<svg xmlns="http://www.w3.org/2000/svg" viewBox="0 0 236.01 123.99"><defs><style>.cls-1,.cls-3{fill:#157cb8;}.cls-1{opacity:0.4;}.cls-2{fill:#333;}.cls-3{opacity:0.3;}</style></defs><g id="Layer_2" data-name="Layer 2"><g id="Layer_1-2" data-name="Layer 1"><rect class="cls-1" x="30.86" y="19.14" width="79.71" height="75.68" rx="2.01" transform="translate(-19.92 62.74) rotate(-42.5)"/><path class="cls-2" d="M102.27,88.38a36.73,36.73,0,0,0-2.58-3.68c-.94-1.22-1.92-2.4-2.93-3.56-2-2.39-4.42-4.35-6.51-6.63C86.19,69.92,82,65.31,77.9,60.72L53.23,33,47.08,26,44,22.55a25.64,25.64,0,0,0-3.07-3.15A5.17,5.17,0,0,0,37.67,18a6.45,6.45,0,0,0-3.32,1.55c-2.29,1.74-4.48,4-6.81,6.08L13.61,38,6.67,44.08A8.33,8.33,0,0,0,4.41,47a3.9,3.9,0,0,0,.14,3,17.38,17.38,0,0,0,2,3.55c.83,1.19,1.81,2.33,2.63,3.62.43.62.85,1.27,1.34,1.87s.94,1.23,1.44,1.81l3.09,3.46L27.42,78.11l24.79,27.63,6.19,6.92,3.05,3.51L63,118a16.36,16.36,0,0,0,1.43,1.54,3.73,3.73,0,0,0,2.83,1.35c.84-.12,1.93-1.07,3.07-2.11,2.38-2.1,4.71-4.06,7.07-6.08,4.73-4,9.41-8,14.22-11.94,2.4-2,4.78-3.83,6.9-5.9a23.62,23.62,0,0,0,2.89-3.25c.8-1.12,1.39-2.38,1-3.26Zm1.67-1a3.77,3.77,0,0,1,.57,1.48,5.18,5.18,0,0,1-.06,1.48,8.61,8.61,0,0,1-.91,2.51,22.27,22.27,0,0,1-2.85,4,61.76,61.76,0,0,1-6.85,6.53c-4.7,4-9.55,7.88-14.34,11.8-2.38,2-4.83,3.9-7.12,5.87a23.63,23.63,0,0,1-1.91,1.57,6.59,6.59,0,0,1-2.74,1.23,5.35,5.35,0,0,1-3.18-.46,10.42,10.42,0,0,1-2.31-1.53,19,19,0,0,1-1.81-1.77l-1.56-1.71L55.76,115l-6.16-6.93L24.89,80.37,12.59,66.46,9.54,63c-1-1.17-2.14-2.23-3.3-3.32A25.15,25.15,0,0,1,3.14,56,19.53,19.53,0,0,1,.6,51.44,9.59,9.59,0,0,1,0,48.52a7.61,7.61,0,0,1,.59-3.13A12.44,12.44,0,0,1,4,41.08l7.12-6L25.35,23.16c2.33-2,4.5-4.15,7.18-6.11a13.48,13.48,0,0,1,2.24-1.32,6.84,6.84,0,0,1,2.85-.7,6.62,6.62,0,0,1,2.87.66,10.33,10.33,0,0,1,2.26,1.46,32.28,32.28,0,0,1,3.37,3.52l3.07,3.46L55.44,31l25,27.42c4.13,4.62,8.29,9.17,12.35,13.9,2,2.41,3.52,5.15,5.51,7.53s4,4.74,5.74,7.5Z"/><path class="cls-2" d="M43,25.42c.34.32.5.51.75.77l.66.72c.44.48.9.95,1.35,1.42.89,1,1.81,1.87,2.73,2.79s1.84,1.85,2.81,2.73,1.94,1.75,2.89,2.64C57.8,40.24,61.26,44.13,64.8,48q10.49,11.56,20.81,23.3c3.44,3.91,6.85,7.84,10.24,11.83.85,1,1.69,2,2.51,3.08a9.94,9.94,0,0,1,.65.94l.1.21s0,.13.07.2a1.5,1.5,0,0,1,0,.46,1.32,1.32,0,0,1-.09.4c0,.06-.06.13-.08.18a1.6,1.6,0,0,1-.13.21,5.5,5.5,0,0,1-.39.51c-.49.55-1,1-1.43,1.48-1.9,1.85-3.84,3.58-5.8,5.32q-5.86,5.18-11.89,10.18c-2,1.67-4,3.33-6.07,5-1,.82-2,1.63-3.1,2.43l-1.6,1.19c-.27.2-.55.4-.84.59a10.47,10.47,0,0,1-1,.62,2.35,2.35,0,0,1-.72.23,1.91,1.91,0,0,1-1-.13,1.55,1.55,0,0,1-.43-.28l-.17-.15-.4-.38-.71-.72L62,113.19l-2.66-2.87c-1.84-1.84-3.29-4-5-6L43.74,92.84q-10.55-11.5-21-23.16c-3.45-3.91-7-7.75-10.26-11.82-.83-1-1.64-2-2.45-3.18-.1-.16-.2-.3-.33-.53,0-.06-.06-.12-.11-.24a.94.94,0,0,1-.09-.26,1.9,1.9,0,0,1,0-.41,1.75,1.75,0,0,1,.22-.73,5.69,5.69,0,0,1,.71-1c.45-.55.91-1,1.36-1.53,1.82-1.94,3.71-3.74,5.6-5.56C21.18,40.8,25,37.28,29,33.9c2-1.65,4-3.33,6.23-4.8,1.09-.73,2.2-1.44,3.34-2.13.58-.33,1.15-.67,1.75-1,.3-.16.6-.32.94-.47a4.42,4.42,0,0,1,.56-.21,1.72,1.72,0,0,1,.38-.07A1,1,0,0,1,43,25.42Zm-.9,1.13a.49.49,0,0,0,.29.12l-.09,0-.34.16a8.09,8.09,0,0,0-.77.48,17.74,17.74,0,0,0-1.5,1.16c-1,.81-2,1.67-2.91,2.54-1.91,1.74-3.92,3.37-5.87,5.08C27,39.46,23,42.84,19.18,46.32c-1.91,1.74-3.8,3.52-5.57,5.35-.44.46-.86.94-1.23,1.4a4.17,4.17,0,0,0-.4.57s0,0,0-.26a.93.93,0,0,0,0-.29l0-.15s0,0,0,0a3.17,3.17,0,0,0,.2.29c.72.95,1.6,1.95,2.44,2.91L24.87,67.82Q35.24,79.48,45.74,91l10.5,11.54c1.79,1.89,3.87,3.51,5.57,5.47l2.67,2.83,1.33,1.41.66.69.29.29,0,0a1.34,1.34,0,0,0-.34-.21,1.55,1.55,0,0,0-.83-.12c-.35.07-.25.08-.26.07s.4-.23.63-.38l.77-.51L68.3,111c1-.76,2.08-1.53,3.11-2.32,2-1.56,4.1-3.16,6.13-4.77,4.07-3.23,8.11-6.5,12.08-9.84,2-1.67,3.95-3.36,5.83-5.09.46-.43.93-.88,1.31-1.3.09-.1.18-.22.21-.26h0l0,.07a.92.92,0,0,0-.06.29,1.15,1.15,0,0,0,0,.34l0,.08h0a5.34,5.34,0,0,0-.44-.67c-.74-1-1.56-2-2.39-3-3.31-4-6.81-7.83-10.28-11.69-7-7.73-14-15.38-21.06-23-3.49-3.86-7.07-7.64-10.5-11.55-.82-1-1.61-2-2.41-3.09s-1.65-2-2.5-3-1.71-2-2.6-2.91c-.44-.48-.88-1-1.34-1.42l-.68-.69C42.52,27,42.23,26.67,42.09,26.55Z"/><circle class="cls-2" cx="16.7" cy="39.93" r="0.8"/><ellipse class="cls-2" cx="22.88" cy="34.58" rx="4.43" ry="1.77" transform="translate(-17.05 23.42) rotate(-40.89)"/><path class="cls-2" d="M167.65,17.41l2.19.37h0a.33.33,0,0,1,.27.37.32.32,0,0,1-.37.26h0l-2.15-.63a.19.19,0,0,1-.13-.23.2.2,0,0,1,.21-.13Z"/><path class="cls-2" d="M174.26,18.29l4.45.34h0a.74.74,0,0,1-.11,1.48h-.07l-4.44-.74a.54.54,0,0,1,.13-1.07Z"/><path class="cls-2" d="M183.17,18.89l4.47.28a1.08,1.08,0,1,1-.13,2.15h-.07L183,20.74a.92.92,0,0,1-.8-1A1,1,0,0,1,183.17,18.89Z"/><path class="cls-2" d="M192.11,19.47l4.48.36a1.32,1.32,0,1,1-.22,2.64h-.08l-4.42-.59h0a1.21,1.21,0,0,1-1-1.35A1.22,1.22,0,0,1,192.11,19.47Z"/><path class="cls-2" d="M201.07,20.29l4.48.58a1.49,1.49,0,0,1-.39,3h-.09l-4.38-.71h0a1.42,1.42,0,0,1,.41-2.8Z"/><path class="cls-2" d="M210,21.6l4.45,1a1.6,1.6,0,1,1-.67,3.13h0l-.09,0-4.28-1-.08,0a1.56,1.56,0,0,1,.69-3Z"/><path class="cls-2" d="M218.89,23.8a46.24,46.24,0,0,1,4.34,1.61,1.67,1.67,0,0,1-1.32,3.07h0c-1.3-.58-2.65-1.1-4-1.56a1.64,1.64,0,0,1,1-3.11Z"/><path class="cls-2" d="M227.4,27.6a21.35,21.35,0,0,1,3.8,2.94A1.62,1.62,0,0,1,229,32.9h0a22.06,22.06,0,0,0-3.3-2.48,1.65,1.65,0,1,1,1.72-2.82Z"/><path class="cls-2" d="M234.2,34.43a14.43,14.43,0,0,1,1.64,4.65,1.44,1.44,0,0,1-2.81.59h0A13.34,13.34,0,0,0,231.52,36a1.55,1.55,0,1,1,2.66-1.58l0,0Z"/><path class="cls-2" d="M236,43.92a22.77,22.77,0,0,1-.36,2.34,15.27,15.27,0,0,1-.65,2.33,1.17,1.17,0,0,1-2.22-.74h0a13,13,0,0,0,.43-2,18.65,18.65,0,0,0,.19-2.09,1.31,1.31,0,0,1,1.35-1.26A1.3,1.3,0,0,1,236,43.83Z"/><path class="cls-2" d="M232.42,52.75a13,13,0,0,1-3.93,2.77.9.9,0,0,1-.8-1.61,11.13,11.13,0,0,0,3.2-2.55,1,1,0,0,1,1.58,1.34l0,0Z"/><path class="cls-2" d="M224.05,56.93a33.5,33.5,0,0,1-4.53.61.67.67,0,0,1-.12-1.33,29.3,29.3,0,0,0,4.3-.76.77.77,0,0,1,.93.55.74.74,0,0,1-.54.92Z"/><path class="cls-2" d="M215,57.66c-1.51,0-3-.08-4.51-.18a.57.57,0,0,1,.07-1.14c1.48.08,3,.12,4.44.11a.6.6,0,0,1,.6.6.62.62,0,0,1-.6.61Z"/><path class="cls-2" d="M206,57.1l-4.46-.5a.58.58,0,1,1,.13-1.16h0l4.43.54h0a.58.58,0,0,1,.5.63A.56.56,0,0,1,206,57.1Z"/><path class="cls-2" d="M197.1,56l-4.44-.63a.7.7,0,1,1,.2-1.38h0l4.4.75h0a.64.64,0,0,1,.52.74A.63.63,0,0,1,197.1,56Z"/><path class="cls-2" d="M188.22,54.78l-4.43-.63a.92.92,0,1,1,.26-1.82h0l4.39.85a.81.81,0,0,1-.27,1.59Z"/><path class="cls-2" d="M179.36,53.54,174.94,53h0a1.16,1.16,0,0,1,.29-2.3h.07l4.41.81a1,1,0,0,1-.31,2Z"/><path class="cls-2" d="M170.51,52.49l-4.42-.4h0a1.43,1.43,0,0,1-1.28-1.53,1.41,1.41,0,0,1,1.53-1.27h.07l4.47.64a1.28,1.28,0,0,1-.29,2.55Z"/><path class="cls-2" d="M161.68,51.81c-1.47-.06-2.93-.09-4.39-.06a1.57,1.57,0,0,1,0-3.14h.06c1.53,0,3,.11,4.56.23a1.49,1.49,0,0,1-.18,3Z"/><path class="cls-2" d="M153,52a33.58,33.58,0,0,0-4.19.68,1.71,1.71,0,1,1-.8-3.32h0a32.8,32.8,0,0,1,4.66-.64A1.65,1.65,0,0,1,153,52Z"/><path class="cls-2" d="M145,54a10.68,10.68,0,0,0-3.08,2.26,1.8,1.8,0,0,1-2.65-2.45l0,0h0a14.11,14.11,0,0,1,4.16-2.93A1.75,1.75,0,0,1,145,54Z"/><path class="cls-2" d="M140,59.48a12.51,12.51,0,0,0-.49,1.87,14.35,14.35,0,0,0-.21,1.95v.1a1.9,1.9,0,1,1-3.8-.24v0a18.7,18.7,0,0,1,.33-2.48,15.4,15.4,0,0,1,.71-2.44A1.85,1.85,0,0,1,140,59.47Z"/><path class="cls-2" d="M139.74,67.06a11,11,0,0,0,1.74,3.34,2,2,0,1,1-3.15,2.4h0A14.39,14.39,0,0,1,136,68.2a2,2,0,0,1,3.76-1.14Z"/><path class="cls-2" d="M144.27,73.2a27.9,27.9,0,0,0,3.46,2.27,2,2,0,0,1-1.87,3.44,26.34,26.34,0,0,1-4-2.59,2,2,0,0,1,2.45-3.12Z"/><path class="cls-2" d="M151.56,77.32c1.32.55,2.68,1,4.06,1.49a1.85,1.85,0,0,1-1.11,3.53c-1.47-.43-2.93-.93-4.37-1.49a1.9,1.9,0,1,1,1.37-3.55Z"/><path class="cls-2" d="M159.8,80.08l4.27,1.07h.07a1.66,1.66,0,0,1-.73,3.23L159,83.48a1.75,1.75,0,1,1,.7-3.43h.07Z"/><path class="cls-2" d="M168.39,82.08l4.37.81h0a1.39,1.39,0,0,1-.43,2.75l-4.48-.56a1.53,1.53,0,0,1,.38-3h.13Z"/><path class="cls-2" d="M177.15,83.65l4.41.69h0a1,1,0,0,1-.24,2l-4.48-.33a1.21,1.21,0,0,1,.18-2.42h.12Z"/><path class="cls-2" d="M186,85l4.43.71a.6.6,0,0,1-.13,1.19l-4.47-.21a.85.85,0,1,1,.08-1.7Z"/><path class="cls-2" d="M194.85,86.5,197,87a.2.2,0,0,1,.14.23.19.19,0,0,1-.2.14h0l-2.21-.21h0a.34.34,0,0,1-.3-.37.33.33,0,0,1,.37-.31Z"/><circle class="cls-3" cx="215.33" cy="89" r="16"/><path class="cls-2" d="M202.53,86a13.83,13.83,0,0,1,6.9-8.07,13.81,13.81,0,0,1,5.18-1.46,13.61,13.61,0,0,1,5.31.66,14.17,14.17,0,0,1,2.45,1.09,10.5,10.5,0,0,1,2.15,1.59,15,15,0,0,1,1.73,2,20.22,20.22,0,0,1,1.43,2.2,15.63,15.63,0,0,1,1.8,5,12.36,12.36,0,0,1,.16,2.72,11.67,11.67,0,0,1-.47,2.69,13.6,13.6,0,0,1-4.57,6.75,13.84,13.84,0,0,1-7.58,3,14.35,14.35,0,0,1-5.41-.65,14.89,14.89,0,0,1-4.77-2.6,14.15,14.15,0,0,1-2-1.92,12.15,12.15,0,0,1-1.52-2.29,13.66,13.66,0,0,1-1.49-5.25A14.06,14.06,0,0,1,202.53,86Zm2.84.89a10.88,10.88,0,0,0-.4,4.24,11.36,11.36,0,0,0,.41,2.09,11.62,11.62,0,0,0,.8,2A13.31,13.31,0,0,0,207.33,97a10.8,10.8,0,0,0,1.45,1.57,10.28,10.28,0,0,0,3.73,2.06,10.7,10.7,0,0,0,4.24.42,10.85,10.85,0,0,0,4.05-1.24,11,11,0,0,0,1.76-1.18,11,11,0,0,0,3.58-5.16,15,15,0,0,0,.54-2.07,13,13,0,0,0,.21-2.16,9.58,9.58,0,0,0-.92-4.32A8.08,8.08,0,0,0,224.74,83a9.78,9.78,0,0,0-1.67-1.48,15.79,15.79,0,0,0-1.87-1.17,11.5,11.5,0,0,0-2-.82,11.1,11.1,0,0,0-11.78,3.58A10.93,10.93,0,0,0,205.37,86.92Z"/><path class="cls-2" d="M162.11,16.91a11,11,0,0,0-.64-8.38,11.32,11.32,0,0,0-2.66-3.41A11.58,11.58,0,0,0,155,3a12.27,12.27,0,0,0-2.14-.49,16.28,16.28,0,0,0-2.21-.12,9.83,9.83,0,0,0-2.22.26,8,8,0,0,0-2.09.83,9.74,9.74,0,0,0-3.23,3,12.52,12.52,0,0,0-1.06,1.89,14.14,14.14,0,0,0-.75,2,11.26,11.26,0,0,0-.43,4.2,12.3,12.3,0,0,0,.39,2.08,12.38,12.38,0,0,0,.77,2,10.83,10.83,0,0,0,6.31,5.44,10.18,10.18,0,0,0,4.24.45,10.67,10.67,0,0,0,2.09-.45,12.55,12.55,0,0,0,2-.81,10.9,10.9,0,0,0,1.79-1.15A11.9,11.9,0,0,0,160,20.62,11.08,11.08,0,0,0,162.11,16.91Zm2.83.9a13.84,13.84,0,0,1-2.56,4.8,13.18,13.18,0,0,1-1.95,1.93,14,14,0,0,1-2.29,1.51,13,13,0,0,1-2.55,1,14.62,14.62,0,0,1-2.7.44,15,15,0,0,1-5.41-.6,14.37,14.37,0,0,1-4.79-2.58,13.83,13.83,0,0,1-3.46-4.22,13.16,13.16,0,0,1-1-2.55,13.65,13.65,0,0,1,.13-8.15,12.17,12.17,0,0,1,1.16-2.48,13,13,0,0,1,1.69-2.13,15.86,15.86,0,0,1,4.34-3,21.27,21.27,0,0,1,2.43-1A14.86,14.86,0,0,1,150.5.12a10.84,10.84,0,0,1,2.67-.07,13.66,13.66,0,0,1,2.62.52,13.41,13.41,0,0,1,4.73,2.51,13.68,13.68,0,0,1,3.41,4.16,13.84,13.84,0,0,1,1.56,5.18A13.68,13.68,0,0,1,164.94,17.81Z"/></g></g></svg>