<svg xmlns="http://www.w3.org/2000/svg" viewBox="0 0 924.73 949.03"><defs><style>.cls-1,.cls-4,.cls-5{fill:#157cb8;}.cls-1{opacity:0.5;}.cls-2{fill:#333;}.cls-3{fill:none;}.cls-4{opacity:0.4;}.cls-5{opacity:0.3;}.cls-6{stroke:#333;stroke-linecap:round;stroke-linejoin:round;stroke-width:0.88px;}</style></defs><g id="Layer_2" data-name="Layer 2"><g id="Layer_1-2" data-name="Layer 1"><circle class="cls-1" cx="353.21" cy="241.26" r="48.74"/><path class="cls-2" d="M368.78,252.15c-8.22,1.95-16.16,5.08-24.38,7.06l-1.53.37a6.13,6.13,0,0,1-2.83,0,6,6,0,0,1-4.18-3.72,5.59,5.59,0,0,1-.31-2.89,13,13,0,0,1,.55-1.93l1-3c1.33-4,2.72-8,4-12,.65-2,1.27-4,1.88-6.05l.93-3,.12-.38.05-.19.11-.3a5.82,5.82,0,0,1,.61-1.19,5.33,5.33,0,0,1,2-1.78,5.51,5.51,0,0,1,5.16,0,7.13,7.13,0,0,1,1.78,1.46l1.09,1.15,4.35,4.6q4.35,4.6,8.59,9.32c.71.78,1.41,1.56,2.07,2.4.33.41.66.83,1,1.26l.47.64.25.35.35.5a5,5,0,0,1,.24,4.57A4.9,4.9,0,0,1,368.78,252.15Zm-.59-2.57a1.64,1.64,0,0,0,1.25-1.22,1.5,1.5,0,0,0-.49-1.48l-.16-.1-.28-.24-.61-.52c-.41-.34-.8-.7-1.19-1.05-.79-.71-1.53-1.47-2.25-2.23-2.94-3-5.85-6.1-8.7-9.22l-4.3-4.65a19.87,19.87,0,0,0-1.68-1.76,1,1,0,0,0-.92,0,.88.88,0,0,0-.35.31,1.13,1.13,0,0,0-.11.22l0,.07-.06.19-.11.38-.92,3q-.94,3-1.82,6.07c-1.18,4-2.25,8.14-3.39,12.21l-.85,3.05c-.41,1.39-.3,1.13-.26,1.35a.64.64,0,0,0,.37.32.72.72,0,0,0,.31,0l1.55-.34C351.43,252.12,360,251.44,368.19,249.58Z" transform="translate(0 -1.52)"/><path class="cls-2" d="M260.09,275.42c11,3.25,22.59,4.84,33.56,8.36l16.48,5.14,8.24,2.58,8.21,2.68,32.83,10.76,16.41,5.39L384,313l4.14,1.2,4.18,1.1,16.71,4.41,8.37,2.16.52.14.26.07c.09,0,.22.05.14,0a1,1,0,0,0-.4-.06,1.18,1.18,0,0,0-.78.38,1.5,1.5,0,0,0-.29.42c-.07.2,0-.12.07-.3l.17-.61.65-2.42c1.73-6.45,3.55-12.87,5.32-19.31.87-3.23,1.82-6.43,2.77-9.63l2.83-9.6c1.85-6.42,3.88-12.78,5.88-19.15s4-12.75,6.13-19.07,4.19-12.68,6.35-19l3.21-9.49.81-2.37.4-1.19.2-.59.09-.27a.28.28,0,0,0,0,.09.82.82,0,0,0,.58.95L436,205.35c-5.44-1.89-11-3.27-16.59-4.81l-33.27-9.31c-11.08-3.12-22.18-6.18-33.24-9.38l-8.3-2.38c-2.77-.79-5.51-1.66-8.27-2.49l-16.52-5-8.21-2.68c-2.72-1-5.45-1.85-8.16-2.85l-8.11-3-.89-.33a.89.89,0,0,0,.39,0,1.07,1.07,0,0,0,.59-.48,1.25,1.25,0,0,0,.13-.35c0-.17-.06.13-.13.32l-.21.59-.84,2.36c-4.57,12.56-8.72,25.25-12.72,38-2,6.36-4.06,12.72-6,19.1s-4,12.74-5.85,19.15l-5.7,19.2-2.85,9.6-1.34,4.52A.32.32,0,0,0,260.09,275.42Zm-1.62,5a5.11,5.11,0,0,1-3-2.65,6.67,6.67,0,0,1-.51-4.38l.15-.55.09-.31.19-.58.36-1.17.73-2.32,2.91-9.29,5.84-18.57c2-6.19,3.78-12.42,5.67-18.63s3.69-12.44,5.52-18.67c3.7-12.45,7.24-24.94,10.36-37.56l.6-2.36.15-.59c.06-.2.07-.3.25-.84a8.36,8.36,0,0,1,1.32-2.44,7.24,7.24,0,0,1,4.39-2.76,6.05,6.05,0,0,1,2.51.07l1.16.28,8.28,2c2.76.67,5.49,1.44,8.24,2.16l8.18,2.34,16.27,5c2.71.84,5.43,1.64,8.13,2.51l8.1,2.62c10.8,3.47,21.56,7.07,32.34,10.62L419,195c5.39,1.8,10.72,3.74,16.21,5.2l16.42,4.48a6.08,6.08,0,0,1,3.65,3.08A8,8,0,0,1,456,213c-.05.22-.1.45-.16.67l-.09.32-.16.59-.32,1.17-.64,2.35L452,227.5c-1.69,6.27-3.46,12.52-5.19,18.78s-3.57,12.48-5.41,18.7-3.65,12.46-5.65,18.64l-2.93,9.28c-1,3.1-1.94,6.19-3,9.26-2.07,6.16-4.09,12.33-6.2,18.47l-.79,2.3-.5,1.44a8.71,8.71,0,0,1-1.47,2.5,7.36,7.36,0,0,1-4.59,2.66,6.09,6.09,0,0,1-2.52-.17l-.37-.12-.25-.09-.51-.18-8-2.82-16.09-5.59-4-1.39-4-1.3-8.18-2.33-16.38-4.63-32.75-9.28L315,299.3l-8.16-2.43L290.51,292C279.61,288.84,269.29,283.81,258.47,280.39Z" transform="translate(0 -1.52)"/><path class="cls-3" d="M199,608.41q-13.08-6-26.22-12.09-37.36-17.37-73.55-35L46.62,699.42a343,343,0,0,0,65.79,32c10.45,3.77,20.5,6.82,30,9.29Z" transform="translate(0 -1.52)"/><path class="cls-2" d="M201.79,607.32c-4.31-2.23-8.68-4.48-13.12-6.68s-8.93-4.35-13.41-6.42l-25-11.78L100.36,559l0,0a2.59,2.59,0,0,0-3.45,1.24,1.54,1.54,0,0,0-.08.19L83.8,595c-4.32,11.54-8.19,23.24-12.66,34.72q-3.33,8.63-6.8,17.18l-7,17.1-3.5,8.55-1.76,4.28-1.72,4.28q-1.73,4.29-3.39,8.6L45.27,694l-1.65,4.31a3.19,3.19,0,0,0,1.28,3.85h0q11.19,7,22.88,13.21c7.78,4.14,15.77,7.89,23.86,11.37s16.34,6.62,24.68,9.46,16.81,5.32,25.34,7.51h0a3.05,3.05,0,0,0,3.57-1.76l14.24-33.64c4.75-11.21,9.66-22.42,14.4-33.67s9.37-22.48,14-33.71l7-16.82Zm-5.6,2.17-7.25,16.31-7.17,16.26c-4.76,10.83-9.55,21.64-14.24,32.45s-9.2,21.65-13.87,32.49l-14,32.52,3.58-1.75q-12.56-3.3-24.81-7.57t-24.17-9.44q-5.94-2.58-11.79-5.39c-3.89-1.89-7.77-3.79-11.6-5.8-7.66-4-15.17-8.31-22.52-12.87l1.29,3.86,1.64-4.32,1.6-4.33q1.62-4.32,3.18-8.67l1.57-4.35,1.53-4.36,3.07-8.71,6.14-17.43q3.12-8.7,6.36-17.35c4.3-11.55,9.19-22.86,13.64-34.35l13.31-34.47-3.57,1.42,49.73,24,12.43,6,6.22,3,3.12,1.49,1.55.74.76.36.72.33c3.88,1.78,7.73,3.49,11.65,5.13S192.14,607.87,196.19,609.49Z" transform="translate(0 -1.52)"/><path class="cls-3" d="M204.92,631.06q-13.08-6-26.22-12.08-37.37-17.37-73.55-35L52.55,722.08a343.33,343.33,0,0,0,65.79,32c10.45,3.77,20.5,6.81,30,9.29Z" transform="translate(0 -1.52)"/><path class="cls-2" d="M207.71,630c-4.3-2.23-8.67-4.48-13.11-6.68s-8.93-4.35-13.41-6.42l-25-11.78-49.88-23.48,0,0a2.59,2.59,0,0,0-3.45,1.24,1.54,1.54,0,0,0-.08.19l-13,34.59c-4.32,11.54-8.19,23.24-12.66,34.72q-3.33,8.63-6.8,17.18l-7,17.1-3.5,8.55L58,699.45l-1.72,4.28c-1.15,2.86-2.28,5.73-3.39,8.59l-1.69,4.31-1.65,4.31a3.19,3.19,0,0,0,1.28,3.85h0q11.2,7,22.89,13.21c7.78,4.14,15.77,7.89,23.86,11.37s16.34,6.62,24.68,9.46,16.8,5.31,25.33,7.51h0a3.05,3.05,0,0,0,3.57-1.76L165.43,731c4.75-11.21,9.65-22.42,14.4-33.67s9.37-22.48,14-33.71l7-16.82Zm-5.59,2.17-7.25,16.31-7.17,16.26c-4.76,10.83-9.55,21.64-14.24,32.45s-9.2,21.65-13.87,32.49l-14,32.52,3.58-1.75q-12.55-3.3-24.82-7.57t-24.16-9.44q-5.94-2.58-11.79-5.39c-3.89-1.89-7.77-3.79-11.6-5.81-7.67-4-15.17-8.3-22.52-12.86l1.29,3.86,1.64-4.32,1.6-4.33c1.08-2.89,2.14-5.77,3.18-8.67l1.57-4.35,1.53-4.36,3.07-8.71,6.14-17.43q3.12-8.7,6.36-17.35c4.29-11.55,9.19-22.86,13.64-34.35l13.31-34.47L104,586.3l49.73,24,12.43,6,6.22,3,3.12,1.49,1.55.74.75.36.73.33c3.87,1.78,7.73,3.49,11.64,5.13S198.07,630.53,202.12,632.15Z" transform="translate(0 -1.52)"/><rect class="cls-4" x="482.8" y="125.27" width="109.36" height="36.83" rx="3.16" transform="translate(-17.32 183.78) rotate(-19.26)"/><path class="cls-2" d="M582.78,137.42l-23.48,8.76L535.52,155c-7.94,2.94-16,5.8-24,8.7l-24.07,8.61-2.1.75-.75-2.12-8.16-23.32-8.06-23.35-16-46.73-.62-1.81,1.79-.61q11.89-4.08,23.77-8.27l23.76-8.33,47.52-16.64,1.82-.64L551,43q4.14,11.82,8.23,23.68l8.11,23.71c2.67,7.9,5.28,15.79,7.89,23.64l3.81,11.74Zm-2-.95-4.44-11.69-4.33-11.58q-4.24-11.55-8.41-23l-8.18-22.94c-2.73-7.64-5.4-15.29-8.07-23l2.46,1.18L502.3,62.05l-23.77,8.28q-11.89,4.14-23.76,8.33l1.16-2.41,16.54,46.56,8.24,23.28,8.13,23.33L486,168.05l23.46-8c7.84-2.64,15.65-5.32,23.55-7.9l23.76-7.84Z" transform="translate(0 -1.52)"/><rect class="cls-2" x="449.83" y="72.31" width="9.89" height="9.89" rx="0.25" transform="translate(-0.03 152.79) rotate(-19.26)"/><rect class="cls-2" x="543.82" y="39.48" width="9.89" height="9.89" rx="0.25" transform="translate(16.05 181.95) rotate(-19.26)"/><rect class="cls-2" x="482.23" y="165.06" width="9.89" height="9.89" rx="0.25" transform="translate(-28.81 168.67) rotate(-19.26)"/><rect class="cls-2" x="576.22" y="132.23" width="9.89" height="9.89" rx="0.25" transform="translate(-12.72 197.83) rotate(-19.26)"/><circle class="cls-4" cx="740.88" cy="715.11" r="31.83"/><path class="cls-2" d="M750.36,813.76a43.35,43.35,0,0,1-21,2l-2.62-.52c-.44-.1-.88-.16-1.31-.28l-1.28-.39c-.85-.26-1.72-.5-2.56-.79l-2.48-1-1.24-.52-1.19-.62-2.37-1.26L712,808.93l-1.13-.74-1-.84-2.1-1.68c-.66-.61-1.3-1.25-1.94-1.87a44.33,44.33,0,0,1-3.59-4c-.57-.7-1-1.47-1.57-2.21a22.47,22.47,0,0,1-1.46-2.27,40.33,40.33,0,0,1-2.42-4.83l-1-2.49-.84-2.31L693.23,781l-3.35-9.25q-1.7-4.62-3.32-9.26l-1.64-4.64-.83-2.32-.78-2.59a41,41,0,0,1-.54-21.61l.35-1.32c.15-.43.31-.86.47-1.28.33-.85.65-1.7,1-2.53l1.25-2.41.63-1.19.72-1.14c.48-.76,1-1.51,1.42-2.28s1.07-1.43,1.57-2.16L691,716c.26-.36.57-.68.85-1l1.71-2A42.23,42.23,0,0,1,732,699.67l2.58.56c.43.1.87.17,1.29.3l1.26.4c.84.27,1.69.52,2.52.82l2.43,1c.41.18.82.34,1.22.53l1.16.63,2.32,1.27,2.19,1.48,1.09.74,1,.84,2,1.69c.65.6,1.26,1.24,1.88,1.86a43.88,43.88,0,0,1,3.47,4c.55.69,1,1.46,1.49,2.18a22.64,22.64,0,0,1,1.4,2.24,38.61,38.61,0,0,1,2.32,4.75l1,2.44.81,2.32,1.62,4.65,3.24,9.29,3.23,9.29,1.62,4.65.81,2.32.75,2.52a37.58,37.58,0,0,1,1.15,5.15,21,21,0,0,1,.29,2.63c.06.88.19,1.75.19,2.63a42.32,42.32,0,0,1-.24,5.28c-.1.87-.18,1.75-.31,2.62l-.55,2.59-.28,1.29-.39,1.26-.8,2.52-1,2.43-.52,1.22c-.19.39-.41.78-.62,1.16l-1.26,2.33c-.46.74-1,1.47-1.46,2.2l-.74,1.09c-.24.37-.55.69-.81,1L767.72,802A43.24,43.24,0,0,1,750.36,813.76Zm-2.07-5.94a37.08,37.08,0,0,0,15-9.8,33.42,33.42,0,0,0,2.81-3.57c.42-.63.86-1.25,1.27-1.89l1.08-2c.18-.34.37-.66.54-1l.45-1,.89-2.1.69-2.17.34-1.08.24-1.11.48-2.23c.11-.75.18-1.51.27-2.26a36.22,36.22,0,0,0,.2-4.54c0-.76-.11-1.51-.16-2.27a19.07,19.07,0,0,0-.26-2.26,32,32,0,0,0-1-4.44l-.65-2.19-.81-2.33-1.62-4.64-3.25-9.29-3.25-9.29L760,731.67l-.81-2.32-.86-2.12a34.31,34.31,0,0,0-2-4.09,18.22,18.22,0,0,0-1.21-1.92c-.43-.63-.81-1.29-1.28-1.88a38.93,38.93,0,0,0-3-3.42c-.54-.53-1.07-1.08-1.62-1.6l-1.76-1.44-.88-.72-1-.63-1.88-1.27-2-1.08-1-.54c-.34-.16-.69-.3-1-.45l-2.1-.88c-.71-.25-1.44-.46-2.16-.69l-1.09-.34a10.88,10.88,0,0,0-1.1-.25l-2.23-.47a35.8,35.8,0,0,0-32.69,11.65,30.53,30.53,0,0,0-2.71,3.6c-.4.63-.79,1.27-1.16,1.92s-.62,1.37-.92,2.06c-.14.34-.31.67-.44,1l-.34,1.07-.67,2.12c-.14.73-.32,1.45-.48,2.16-.08.36-.17.71-.27,1.07l-.17,1.08c-.11.72-.25,1.44-.39,2.15l-.25,2.17a35.11,35.11,0,0,0-.22,4.35c0,.73.11,1.45.15,2.18a17.55,17.55,0,0,0,.23,2.17,31.25,31.25,0,0,0,.93,4.27l.61,2.12.8,2.33,1.6,4.65q1.62,4.65,3.17,9.31l3.13,9.33L702.5,783l.78,2.34.81,2.07a32.4,32.4,0,0,0,1.88,4,18.37,18.37,0,0,0,1.14,1.9c.42.61.77,1.26,1.23,1.84a35.6,35.6,0,0,0,2.86,3.39c.52.53,1,1.07,1.55,1.59l1.7,1.44.85.72.91.63L718,804.2l2,1.1,1,.55c.33.16.68.3,1,.45l2,.91c.7.26,1.42.47,2.12.72l1.07.35c.35.12.72.18,1.09.27l2.18.5A36.86,36.86,0,0,0,748.29,807.82Z" transform="translate(0 -1.52)"/><rect class="cls-4" x="731.57" y="183.31" width="170.02" height="170.02" rx="7.64" transform="translate(157.28 -284.68) rotate(21.72)"/><path class="cls-2" d="M767.82,353.53a65.36,65.36,0,0,0,3.8-6.94c1.17-2.43,2.3-4.89,3.34-7.39,2.23-4.94,3.37-10.36,5.36-15.42,4.08-10,8.09-20.14,12.12-30.23L817,233.07l6.13-15.13,3-7.59.78-1.91c.26-.61.5-1.21.73-1.81a27.88,27.88,0,0,0,1.08-3.57c.53-2.34.54-4.63-.34-6.2s-2.79-2.9-5-4c-4.55-2.25-9.79-3.94-14.9-6l-30.26-12.37-15.06-6.16a14.85,14.85,0,0,0-6.33-1.32,6.15,6.15,0,0,0-2.39.72,9.62,9.62,0,0,0-2.23,1.84,31.27,31.27,0,0,0-4,5.94c-1.23,2.24-2.28,4.66-3.65,7a60.76,60.76,0,0,0-3.64,7.26l-3,7.55-12.17,30.27-24.23,60.6-6.09,15.15c-1,2.52-2.08,5-3.16,7.54l-1.65,3.75a30.06,30.06,0,0,0-1.31,3.46,11,11,0,0,0-.55,3.22,3.86,3.86,0,0,0,.63,2.29c.83,1.24,3.18,2.25,5.7,3.22s5.1,2.11,7.61,3.18l7.51,3.21c10,4.34,20,8.57,29.89,13.09,4.94,2.29,9.75,4.56,14.68,6.31a42.57,42.57,0,0,0,7.37,2c2.4.37,4.83.32,5.93-.92Zm2.84,1.87a6.09,6.09,0,0,1-1.89,2.05,8.56,8.56,0,0,1-2.38,1.08,15.56,15.56,0,0,1-4.67.51,38.45,38.45,0,0,1-8.56-1.35,114.78,114.78,0,0,1-15.65-5.7c-10-4.29-19.85-8.94-29.76-13.42-4.92-2.24-9.92-4.57-14.79-6.67-1.24-.53-2.58-1-4-1.78a11.65,11.65,0,0,1-4.09-3.35,8.84,8.84,0,0,1-1.32-2.64,10.83,10.83,0,0,1-.43-2.74,18.7,18.7,0,0,1,.61-4.82,34,34,0,0,1,1.39-4.24l1.47-3.78,3-7.58,6.11-15.12,24.43-60.53,12.34-30.23c1-2.52,2.09-5,3.15-7.54a81.09,81.09,0,0,0,2.67-7.79A43,43,0,0,1,741.7,172a34.58,34.58,0,0,1,5.13-7.51,17.05,17.05,0,0,1,4.13-3.21,13,13,0,0,1,5.4-1.51,21.44,21.44,0,0,1,9.48,2.07l15,6.56,29.85,13.06c2.47,1,5,2,7.52,3.07a82.7,82.7,0,0,1,7.7,3.49,26,26,0,0,1,3.84,2.48,12.06,12.06,0,0,1,3.32,4,11.65,11.65,0,0,1,1.2,5.06,18.27,18.27,0,0,1-.55,4.69,31.87,31.87,0,0,1-1.35,4.21l-1.57,3.83-3.06,7.55-6,15.18-23.7,60.82L792,311c-2,5-4,10.12-6.22,15.15s-5.38,9.55-7.57,14.54l-3.48,7.44a81.54,81.54,0,0,1-3.87,7.45Z" transform="translate(0 -1.52)"/><path class="cls-2" d="M820.86,211a3.73,3.73,0,0,1-.17.55l-.15.42-.31.82-.64,1.62c-.44,1.07-.83,2.16-1.24,3.24-.82,2.15-1.59,4.33-2.36,6.5s-1.54,4.35-2.21,6.57-1.28,4.45-2,6.64-1.6,4.33-2.45,6.47l-2.55,6.43-5.14,12.84c-6.92,17.08-14,34.09-21.23,51.08-3.6,8.5-7.24,17-11,25.43-1,2.12-1.88,4.23-2.95,6.37-.27.53-.54,1.06-.88,1.64-.09.15-.18.3-.3.47l-.2.29a3.6,3.6,0,0,1-.42.44,2.2,2.2,0,0,1-.82.47,2.6,2.6,0,0,1-.59.11,3.18,3.18,0,0,1-.56,0c-.27,0-.46-.07-.65-.1a36.83,36.83,0,0,1-3.58-1.07c-4.44-1.56-8.72-3.28-13-5Q732.62,338,720,332.35q-6.33-2.81-12.64-5.73c-2.1-1-4.19-2-6.29-3-1-.52-2.09-1.05-3.15-1.61-.53-.28-1-.57-1.59-.88a17.05,17.05,0,0,1-1.8-1.17l-.34-.29-.24-.24a3.53,3.53,0,0,1-.36-.46,3.07,3.07,0,0,1-.51-1.64,3.19,3.19,0,0,1,.09-.86l.11-.38.31-.94.6-1.67c.41-1.1.8-2.19,1.23-3.26l2.53-6.46c.84-2.15,1.71-4.28,2.76-6.35s2.08-4.13,3-6.27c3.35-8.59,6.79-17.14,10.21-25.7q10.29-25.68,20.89-51.23l5.36-12.76c1.8-4.25,3.62-8.49,5.6-12.69,1-2.1,2-4.18,3.14-6.32.15-.27.31-.54.48-.83l.3-.47.21-.3.18-.22a2.65,2.65,0,0,1,.4-.37,2.48,2.48,0,0,1,.64-.35,3,3,0,0,1,.47-.14,5.29,5.29,0,0,1,.57-.06,6.89,6.89,0,0,1,.72,0,9.07,9.07,0,0,1,1.06.17c1.28.26,2.4.61,3.55.95,4.51,1.38,8.87,2.9,13.23,4.48s8.68,3.24,13,4.94,8.59,3.45,12.84,5.3,8.45,3.79,12.5,6.1c2,1.16,4,2.36,6,3.63,1,.65,2,1.29,3,2,.49.36,1,.71,1.48,1.13a8.26,8.26,0,0,1,.77.72,4.1,4.1,0,0,1,.42.55A1.79,1.79,0,0,1,820.86,211Zm-2.47-.53a.8.8,0,0,0,0,.54l-.13-.12a5.78,5.78,0,0,0-.53-.42,12.45,12.45,0,0,0-1.35-.84c-1-.53-2-1-3-1.48-2.07-.91-4.19-1.77-6.32-2.61-4.26-1.68-8.43-3.58-12.66-5.34C786,196.59,777.55,193,769,189.64c-4.27-1.65-8.56-3.3-12.87-4.61a32.07,32.07,0,0,0-3.14-.79,4.63,4.63,0,0,0-.64-.09h-.14l.14,0a.92.92,0,0,0,.26-.07,1.63,1.63,0,0,0,.45-.25,1.89,1.89,0,0,0,.25-.22l0-.05,0,.06a2.47,2.47,0,0,0-.16.26l-.35.68c-1,2-1.86,4.09-2.76,6.18-3.59,8.44-7.26,16.89-10.79,25.39q-10.65,25.49-21,51.1l-10.38,25.62c-.83,2.14-1.47,4.37-2.14,6.58s-1.46,4.37-2.31,6.51l-2.48,6.43-1.23,3.2-.58,1.57-.25.7s0,.08,0,0a2.44,2.44,0,0,0,.06-.65,2.55,2.55,0,0,0-.44-1.44,1.76,1.76,0,0,0-.22-.29l-.09-.09h0c.17.14.67.46,1.1.72l1.41.81c1,.55,2,1.08,3,1.61,2,1.05,4.05,2.08,6.1,3.1,4.1,2,8.25,4,12.4,6,8.31,3.92,16.67,7.76,25.09,11.43,4.21,1.82,8.44,3.65,12.66,5.24a29.87,29.87,0,0,0,3,1l.2,0H763a1.31,1.31,0,0,0-.38.07,1.71,1.71,0,0,0-.64.35c-.14.13-.12.13-.12.13l0-.07.16-.26c.25-.4.52-.89.77-1.38,1-2,2-4.06,2.94-6.14,3.79-8.36,7.27-16.89,10.79-25.4,7-17,13.75-34.18,20.59-51.29l5.16-12.82,2.56-6.41c.86-2.14,1.68-4.29,2.67-6.38s2-4.14,3.07-6.21,1.94-4.18,2.85-6.3,1.82-4.23,2.66-6.38c.41-1.07.85-2.13,1.22-3.22l.58-1.62.27-.8.13-.39C818.34,210.67,818.4,210.48,818.39,210.5Z" transform="translate(0 -1.52)"/><circle cx="777.52" cy="179.38" r="1.4"/><ellipse class="cls-2" cx="790.77" cy="186.47" rx="3.12" ry="7.79" transform="matrix(0.39, -0.92, 0.92, 0.39, 312.38, 841.64)"/><rect class="cls-1" x="196.95" y="791.43" width="156.97" height="49.13" rx="4.38" transform="translate(-451.84 353.19) rotate(-38.96)"/><path class="cls-2" d="M336.76,794a2,2,0,0,1,.12,1.09,1.68,1.68,0,0,1-.09.32l0,.12c-.07.14-.14.29-.22.43a3.87,3.87,0,0,1-.57.76,11,11,0,0,1-1,.81c-.57.47-1.15,1-1.72,1.47q-1.71,1.51-3.37,3.07c-.55.52-1.11,1-1.64,1.57s-1.06,1.11-1.56,1.68c-1,1.16-2,2.37-3,3.46s-2.25,2-3.4,3l-3.46,2.95-6.95,5.87-14,11.59c-4.69,3.85-9.4,7.67-14.06,11.55s-9.36,7.72-14,11.66-9.15,8-13.69,12l-6.82,6-3.4,3a8.73,8.73,0,0,1-1.35,1,5.17,5.17,0,0,1-1.23.54,4.35,4.35,0,0,1-1.93.1,4.57,4.57,0,0,1-1.63-.63l-.29-.19-.23-.18-.41-.35c-.36-.35-.7-.72-1-1.11l-12-13.63-3-3.43-1.56-1.85a6.26,6.26,0,0,1-1.16-2.12,4.81,4.81,0,0,1-.2-2,4.93,4.93,0,0,1,.62-1.86,6.75,6.75,0,0,1,1.46-1.73l.31-.27.22-.18.44-.35a19.85,19.85,0,0,1,1.9-1.29,33.65,33.65,0,0,0,3.83-2.51c4.59-4,9.24-7.87,13.85-11.8l27.76-23.51,7-5.88c2.29-2,4.66-3.87,7.07-5.72s4.77-3.75,7.06-5.73c.58-.49,1.16-1,1.73-1.49a12.25,12.25,0,0,1,1.12-.9,5.45,5.45,0,0,1,1.92-.86,4.79,4.79,0,0,1,1.13-.14,4.69,4.69,0,0,1,.53,0l.3,0,1.13.06,2.27.15,9.07.64c3,.2,6.06.39,9.07.7s6,.68,9,1.16c1.5.24,3,.52,4.49.83.75.15,1.49.32,2.24.5.38.08.75.19,1.12.28l.28.07.19,0,.21.06.28.11a1.92,1.92,0,0,1,.31.18l.09.07,0,0A1.73,1.73,0,0,1,336.76,794Zm-2.66,1.44a1.34,1.34,0,0,0,.74.68h-.1l-.16,0a.91.91,0,0,0-.23,0v0l.07,0s.1,0,.05,0l-.29,0c-.38,0-.77.07-1.15.08-.76,0-1.53.08-2.29.11-1.53,0-3.05.06-4.56,0-3,0-6.07-.17-9.1-.41s-6-.54-9-.87l-9.06-1L296.7,794l-1.13-.12-.27,0h0s0,0-.15,0a5.45,5.45,0,0,0-.66.5c-.6.47-1.18,1-1.78,1.45-2.35,1.91-4.63,3.92-6.86,6s-4.52,4.07-6.85,6l-7,5.85L244.12,837c-4.66,3.88-9.3,7.79-14,11.64a31.89,31.89,0,0,0-3.13,3.34,22.48,22.48,0,0,1-1.59,1.65l-.76.67c-.14.12-.2.25,0,0a2.09,2.09,0,0,0,.26-.8,2.23,2.23,0,0,0-.07-.89c-.14-.41-.13-.28,0-.17l1.37,1.62,2.9,3.53,11.49,14.18.48.58c.09.1,0-.07-.62-.21a1.72,1.72,0,0,0-.81,0,.47.47,0,0,0-.19.06,3.14,3.14,0,0,0,.48-.33l3.54-2.86,7.1-5.68q7.09-5.7,14.12-11.48c4.67-3.87,9.26-7.84,13.86-11.79s9.18-7.94,13.76-11.91l13.79-11.87,7-5.87,3.49-2.91c1.17-1,2.3-2,3.55-2.84s2.62-1.61,3.93-2.41c.65-.4,1.29-.81,1.91-1.25s1.23-.88,1.82-1.35c1.22-.91,2.41-1.84,3.59-2.8.6-.48,1.17-1,1.78-1.47a6.05,6.05,0,0,0,.73-.61.54.54,0,0,0,.1-.16.19.19,0,0,0,0-.08s0,0,0,.19A1.19,1.19,0,0,0,334.1,795.48Z" transform="translate(0 -1.52)"/><path class="cls-2" d="M289.75,889.75a1.69,1.69,0,0,1,1.39-1l-.92.39c1.7-1.3,3.3-2.71,4.89-4.15l2.34-2.19c.78-.73,1.53-1.5,2.24-2.31a56.88,56.88,0,0,1,4.28-4.87c1.58-1.43,3.24-2.78,4.86-4.18,3.23-2.78,6.51-5.52,9.79-8.25l9.89-8.16,1.7,5.35c-6.89-.7-13.77-1.45-20.67-2.1l-10.34-1c-3.45-.3-6.9-.62-10.36-.84l2-.62c-4.89,4.22-9.73,8.5-14.57,12.78s-9.77,8.49-14.66,12.72l-7.36,6.32-.92.78-.46.4-.23.19a1.29,1.29,0,0,0,.17-.16,2.71,2.71,0,0,0,.65-1.23,3,3,0,0,0,.08-1.08,2.94,2.94,0,0,0-.24-.83,2,2,0,0,0-.34-.55.52.52,0,0,1,.11.1l.13.13.23.25.1.11c1.06,1.22,2.1,2.44,3.11,3.68l1.54,1.87c.5.62,1,1.23,1.5,1.89,1,1.3,1.65,2.82,2.57,4.16a15.94,15.94,0,0,0,1.52,1.95c.55.62,1.07,1.24,1.57,1.87,1,1.24,2,2.44,3.05,3.58v0a3,3,0,0,1-.21,4.26l-.11.1.35-4.33,16.84,19.42-2.21-1.1,20.61,1.42,10.31.73c3.43.23,6.85.7,10.27,1.07l-2.42,4.83c-1.33-1.66-2.73-3.25-4.12-4.85l-4.3-4.79c-3-3.42-5.95-7-8.9-10.58s-5.76-7.37-8.23-11S291.58,892.8,289.75,889.75Zm3.05,1.31,9.79,9.29c3,2.85,5.61,5.58,8.09,8.47s5,5.82,7.43,8.9c.58.75,1.28,1.6,1.95,2.41s1.32,1.65,2,2.44c1.37,1.62,2.73,3.23,4.17,4.78a2.86,2.86,0,0,1,.73,1.51,2.92,2.92,0,0,1-.22,1.65,2.9,2.9,0,0,1-2.72,1.68h-.21c-3.44-.13-6.91-.15-10.32-.41l-10.32-.73-20.59-1.54a3.17,3.17,0,0,1-2.16-1.11l-16.67-19.6-.06-.06a3.07,3.07,0,0,1-.71-2.2,2.79,2.79,0,0,1,.33-1.12,2.86,2.86,0,0,1,.73-.92l.06,0-.3,4.37c-1.12-1.28-2.17-2.57-3.16-3.83-.52-.63-1-1.25-1.5-1.87a13.13,13.13,0,0,0-1.59-1.74c-1.16-1.13-2.55-2.07-3.67-3.24-.58-.58-1.08-1.21-1.62-1.82l-1.58-1.84q-1.57-1.85-3.11-3.73l-.1-.12,0,.06.1.1s0,0,0,0l-.33-.34a5.57,5.57,0,0,1-1-1.54,4.82,4.82,0,0,1-.31-3.09,5,5,0,0,1,1.24-2.26,5.5,5.5,0,0,1,.62-.56l.24-.2.48-.37.95-.75,7.59-6,15.19-12c5.05-4,10.09-8,15.09-12.13l.07-.06a2.61,2.61,0,0,1,.89-.46,2.42,2.42,0,0,1,1-.09c3.44.36,6.89.65,10.35,1l10.34.8c6.9.55,13.81,1,20.72,1.51a3,3,0,0,1,1.76,5.28l-.07.06L322.7,868c-3.25,2.78-6.5,5.55-9.79,8.28-1.65,1.36-3.26,2.75-4.94,4.09a53.9,53.9,0,0,1-5.51,3.4,28.45,28.45,0,0,0-2.65,1.84c-.87.62-1.72,1.28-2.56,1.93-1.68,1.32-3.34,2.66-4.91,4.12l-.92.39a1.67,1.67,0,0,0,.81-.28,1.64,1.64,0,0,0,.57-.71Z" transform="translate(0 -1.52)"/><circle class="cls-1" cx="607.47" cy="873.09" r="28.78"/><path class="cls-2" d="M618.63,852.56a111.89,111.89,0,0,0-3.48-15c-.74-2.47-1.55-4.92-2.49-7.3a37.36,37.36,0,0,0-3.33-6.74,10,10,0,0,0-1.05-1.31,2.91,2.91,0,0,0-1-.69.66.66,0,0,0-.2-.06.09.09,0,0,0-.09,0l-.1,0-.22.07a5.33,5.33,0,0,0-1.36.65,3.54,3.54,0,0,0-1.43,2.19,11.13,11.13,0,0,0-.27,3.31,29.43,29.43,0,0,0,.38,3.62c.15,1.23.42,2.46.65,3.7.51,2.48,1,5,1.5,7.55v0a.74.74,0,0,1-.57.85.86.86,0,0,1-1-.48c-.52-1.22-1-2.42-1.51-3.67s-.9-2.49-1.3-3.75-.71-2.55-1-3.87a30.16,30.16,0,0,1-.64-4,14.27,14.27,0,0,1,.22-4.28,7.77,7.77,0,0,1,.89-2.22A6.28,6.28,0,0,1,603,819.3a9.69,9.69,0,0,1,2.26-1l.26-.09.12,0,.22-.07a4.77,4.77,0,0,1,.93-.17,4.85,4.85,0,0,1,1.88.27,7.09,7.09,0,0,1,2.48,1.65,14,14,0,0,1,1.54,1.84,33.84,33.84,0,0,1,3.78,7.53c.49,1.26.93,2.53,1.3,3.81s.71,2.55,1.06,3.83a30.71,30.71,0,0,1,.8,3.88c.1.66.23,1.3.3,2l.14,2a29.07,29.07,0,0,1,0,4,14.94,14.94,0,0,1-.72,4l0,.07a.34.34,0,0,1-.35.24A.36.36,0,0,1,618.63,852.56Z" transform="translate(0 -1.52)"/><path class="cls-2" d="M672,863.85a3.39,3.39,0,0,1,.33-.64c.25-.41.56-1,1-1.74a27,27,0,0,1,1.77-2.55c.74-1,1.57-2,2.53-3.11a46.43,46.43,0,0,1,3.33-3.4,50.52,50.52,0,0,1,4.13-3.44c1.51-1.13,3.11-2.26,4.87-3.33a21.11,21.11,0,0,1,6.11-2.72,9.64,9.64,0,0,1,2.07-.28,6.47,6.47,0,0,1,2.57.47,5.27,5.27,0,0,1,1.28.74,3.87,3.87,0,0,1,.52.47l.15.14.1.1h0l.11.15.32.41c.13.17.23.32.33.48a6.17,6.17,0,0,1,.53,1.06,5.09,5.09,0,0,1,.31,2.5,5.71,5.71,0,0,1-.71,2.08,11,11,0,0,1-2.12,2.6,38.89,38.89,0,0,1-4.33,3.33l-3.83,2.68-5.76,4-2.22,1.52s2.68-2.76,6.87-6.74c1-1,2.22-2.05,3.45-3.15a46.31,46.31,0,0,0,3.74-3.54,8.82,8.82,0,0,0,1.45-2.08,2.42,2.42,0,0,0,.09-2.1,3.85,3.85,0,0,0-.73-.93l-.12-.13h0l-.05,0a1.56,1.56,0,0,0-.2-.16,1.72,1.72,0,0,0-.43-.21,4,4,0,0,0-2.29.11,19,19,0,0,0-4.84,2.55c-1.52,1-3,2.19-4.33,3.34s-2.65,2.28-3.86,3.39-2.32,2.18-3.35,3.17l-2.82,2.72-2.15,2.12-1.86,1.85a1.31,1.31,0,0,1-1.65.16,1.24,1.24,0,0,1-.49-1.55Z" transform="translate(0 -1.52)"/><path class="cls-2" d="M549,903.84l0-.06a2.25,2.25,0,0,1-.14-.44,5.35,5.35,0,0,1-.11-1.13,17.5,17.5,0,0,1,.45-3.37,54.8,54.8,0,0,1,4-11.44,77.64,77.64,0,0,1,10-16,72.15,72.15,0,0,1,8.13-8.55,65.19,65.19,0,0,1,39.89-16.64,77.88,77.88,0,0,1,8.37-.09c1.4,0,2.83.16,4.25.3.69.05,1.42.14,2.13.22l2.09.25c2.79.37,5.63.8,8.49,1.38,1.43.29,2.86.61,4.3,1l.53.17.58.18,1,.28,2.07.56c1.44.45,2.94.86,4.35,1.35l2.13.74,2.13.81a89.09,89.09,0,0,1,8.42,3.74,72.84,72.84,0,0,1,15.59,10.52A66.63,66.63,0,0,1,690,882a71.42,71.42,0,0,1,7.8,17.09,82.16,82.16,0,0,1,3.37,18.06,99.74,99.74,0,0,1-.27,18c-.32,3-.75,5.87-1.36,8.79-.16.73-.32,1.47-.52,2.23l-.37,1.19-.06.19a2.83,2.83,0,0,1-.21.55,4.16,4.16,0,0,1-1.82,1.87,5.64,5.64,0,0,1-1.19.43,6.29,6.29,0,0,1-.74.11,9.84,9.84,0,0,1-1.8,0c-.48,0-.92-.07-1.36-.13-.85-.11-1.63-.24-2.41-.38-3.07-.56-6-1.24-8.8-2s-5.66-1.47-8.44-2.24c-11.08-3.08-21.68-6.27-31.7-9.38s-19.45-6.19-28.15-9-16.61-5.58-23.67-8-13.14-4.61-18.17-6.43-9-3.33-11.63-4.4c-1.34-.54-2.36-1-3.08-1.3-.36-.16-.61-.29-.88-.44a2.8,2.8,0,0,1-.4-.27,2.37,2.37,0,0,1-.27-.28,1.32,1.32,0,0,1,.42-1.88,1.48,1.48,0,0,1,2,.46.86.86,0,0,0-.1-.16,1.8,1.8,0,0,0-.19-.2c-.08-.06-.08-.06-.06,0a3.77,3.77,0,0,0,.63.26c.63.25,1.66.62,3,1.07,2.68.9,6.67,2.16,11.76,3.72s11.28,3.45,18.39,5.57,15.13,4.52,23.91,7.07,18.27,5.33,28.33,8.16,20.68,5.82,31.68,8.6q4.13,1,8.31,2c2.8.65,5.6,1.26,8.32,1.72.67.12,1.35.21,2,.28.31,0,.6.06.86.07h.41l-.18,0a3.06,3.06,0,0,0-.68.25,3.45,3.45,0,0,0-.73.52,4.35,4.35,0,0,0-.72,1,3,3,0,0,1,3.95-1.31,2.93,2.93,0,0,1,1.59,3.79,3,3,0,0,1-3.86,1.53A3,3,0,0,1,691,945.1l0-.06a6,6,0,0,0,.21-.84c.16-.62.29-1.25.41-1.88a78.55,78.55,0,0,0,1.13-8.08,85.83,85.83,0,0,0-3.17-33,62.67,62.67,0,0,0-7-15.09,58.22,58.22,0,0,0-10.81-12.56,68.78,68.78,0,0,0-13.76-9.28,80,80,0,0,0-7.55-3.42l-1.93-.75-2-.68c-1.3-.47-2.57-.79-3.85-1.24l-2-.58-1-.31-.43-.13-.48-.15c-1.31-.34-2.63-.64-3.95-.92-2.65-.57-5.28-1.06-7.92-1.45l-2-.29c-.64-.09-1.29-.18-1.92-.25-1.28-.14-2.56-.26-3.81-.34a69.18,69.18,0,0,0-7.48-.1,64.64,64.64,0,0,0-14,2.12,59.18,59.18,0,0,0-12.23,4.86,66.78,66.78,0,0,0-18,14.14A79.86,79.86,0,0,0,557,889.28a59,59,0,0,0-4.73,10.39,15.86,15.86,0,0,0-.66,2.72,3.71,3.71,0,0,0,0,.47s-.07-.16,0-.05l0,.07a1.34,1.34,0,0,1-.79,1.77A1.49,1.49,0,0,1,549,903.84Z" transform="translate(0 -1.52)"/><path class="cls-2" d="M604.89,877.23a21.2,21.2,0,0,1,.88-3.42,8.18,8.18,0,0,1,2.25-3.38,6.45,6.45,0,0,1,3.85-1.62,8.8,8.8,0,0,1,4,.62,9.12,9.12,0,0,1,3.25,2.29A9.48,9.48,0,0,1,621,875.2a10.67,10.67,0,0,1,.36,3.82,13.34,13.34,0,0,1-.83,3.55,10.32,10.32,0,0,1-4.69,5.12,9.08,9.08,0,0,1-3.18,1,7.51,7.51,0,0,1-3.3-.29,6.3,6.3,0,0,1-2.84-1.85,7.94,7.94,0,0,1-1.58-3A14.8,14.8,0,0,1,604.89,877.23Zm3,.71a10.22,10.22,0,0,0-.2,4.82,3.64,3.64,0,0,0,2.55,2.77,5.33,5.33,0,0,0,4.11-.66,6.22,6.22,0,0,0,2.71-3.45,7.3,7.3,0,0,0,.37-2.31,6.32,6.32,0,0,0-.37-2.2,4.86,4.86,0,0,0-2.83-2.92,4.46,4.46,0,0,0-3.95.35,5.83,5.83,0,0,0-2.38,3.57Z" transform="translate(0 -1.52)"/><path class="cls-2" d="M646.5,889.33a12.1,12.1,0,0,1,1.9-3.45,10.49,10.49,0,0,1,2.92-2.49,8.91,8.91,0,0,1,6.91-.89,7.13,7.13,0,0,1,3.07,1.84,6.79,6.79,0,0,1,1.77,3.24,9.62,9.62,0,0,1,.16,3.51,18.52,18.52,0,0,1-2.05,6.15,10.49,10.49,0,0,1-2.15,2.7,7.49,7.49,0,0,1-3.17,1.73,7.16,7.16,0,0,1-3.59,0,8.35,8.35,0,0,1-5.44-4.53,9.94,9.94,0,0,1-1-3.86A11.78,11.78,0,0,1,646.5,889.33Zm4.12,1.43a6.12,6.12,0,0,0,.1,4.34,5,5,0,0,0,2.89,2.8,3.7,3.7,0,0,0,3.67-.64,6.29,6.29,0,0,0,1.44-1.68,11.91,11.91,0,0,0,1.55-4.64,5.74,5.74,0,0,0-.17-2.15,3.37,3.37,0,0,0-2.69-2.4A6.18,6.18,0,0,0,650.62,890.76Z" transform="translate(0 -1.52)"/><path class="cls-2" d="M190.35,41.79l.15-1.11a25.25,25.25,0,0,1,.59-3.35,28.49,28.49,0,0,1,1.72-5.27A33.18,33.18,0,0,1,196.26,26l1.14-1.56,1.31-1.51.68-.77.74-.73L201.64,20a44.74,44.74,0,0,1,7.26-5.18,41.61,41.61,0,0,1,8.77-3.6l2.38-.57c.8-.15,1.62-.25,2.43-.37l.61-.09a3.15,3.15,0,0,1,1.33.13,3.09,3.09,0,0,1,1.94,2,3.41,3.41,0,0,1,.15.69v.18l0,.32,0,.59-.06,1.16a10,10,0,0,1-.07,1.22l-.14,1.25a18.83,18.83,0,0,1-.38,2.44l-.22,1.21-.3,1.18c-.2.78-.37,1.58-.64,2.33a38.36,38.36,0,0,1-3.87,8.68,21,21,0,0,1-1.25,2l-1.36,1.84c-.46.61-1,1.14-1.49,1.7l-.74.83c-.25.27-.54.5-.8.75L213.5,42c-.56.45-1.15.8-1.72,1.25a25.13,25.13,0,0,1-3.45,2.09,11.51,11.51,0,0,1-1.77.76l-1.7.68a10.42,10.42,0,0,1-1.64.52l-1.58.42a20.61,20.61,0,0,1-2.91.51l-1.29.17-.61.08-.46,0a5.63,5.63,0,0,1-.58,0l-.36,0-.28,0a4.72,4.72,0,0,1-.54-.13,6.15,6.15,0,0,1-2.51-1.48,5.9,5.9,0,0,1-1.54-2.45,6.21,6.21,0,0,1-.32-1.75l0-.6V41.8Zm6.84.46a.32.32,0,0,0,0-.17.31.31,0,0,0-.13-.19.51.51,0,0,0-.16-.09h-.31l.49,0,1-.07a15.47,15.47,0,0,0,2.35-.24l1.28-.23a7.75,7.75,0,0,0,1.35-.3l1.39-.42a8.56,8.56,0,0,0,1.42-.51,22.55,22.55,0,0,0,2.93-1.41c.48-.3,1-.56,1.48-.88l1.43-1.07c.24-.19.51-.35.73-.56l.69-.63c.45-.44.91-.82,1.39-1.32l1.3-1.47c.45-.49.8-1.07,1.22-1.6A29.85,29.85,0,0,0,221,23.56c.28-.67.45-1.38.67-2.08l.31-1.05.23-1.08a19.75,19.75,0,0,0,.38-2.15l.14-1.06,0-.54.13-2.4a.49.49,0,0,0,0,.12.58.58,0,0,0,.36.36h.18l-.54.09c-.72.12-1.44.21-2.15.35l-2.11.54a32.42,32.42,0,0,0-7.65,3.6,34.86,34.86,0,0,0-6,5.07l-1.19,1.41-.57.69-.51.72-1,1.4L200.82,29a28.28,28.28,0,0,0-2.38,5.26,25.71,25.71,0,0,0-1,4.14,18.87,18.87,0,0,0-.29,2.9l0,.93Z" transform="translate(0 -1.52)"/><circle class="cls-4" cx="238.97" cy="98.93" r="33.41"/><circle class="cls-1" cx="686.49" cy="74.05" r="36.87"/><path class="cls-2" d="M731,127.17a34.47,34.47,0,0,0,2.06-19.6,37.26,37.26,0,0,0-9.14-18h0a.82.82,0,0,1-.25-.73l0-.13a111.53,111.53,0,0,0,2-18.62A63.29,63.29,0,0,0,723.51,52,59.37,59.37,0,0,0,716,35.67a82.7,82.7,0,0,0-5.3-7.41c-1.9-2.39-4-4.66-6.05-6.93s-4.3-4.43-6.53-6.58l-1.7-1.59-.85-.78-.8-.7a27.94,27.94,0,0,0-3.28-2.44c-.21-.13-.47-.23-.3-.16a3.31,3.31,0,0,0,.4.09,3.21,3.21,0,0,0,1.68-.25,3.63,3.63,0,0,0,1.45-1.11,3.36,3.36,0,0,0,.43-.74,3.82,3.82,0,0,0,.2-.6,3,3,0,0,0,0-1.13.92.92,0,0,0-.06-.25v0s0,0,0,.08l.2.58.4,1.15c.55,1.53,1,3.08,1.53,4.64s.92,3.14,1.34,4.72.75,3.21,1,4.84a63.55,63.55,0,0,1,1.19,9.85,56,56,0,0,1-.34,9.94,56.73,56.73,0,0,1-5.6,18.72h0a.22.22,0,0,1-.15.29h0l-1.05.24a16,16,0,0,1-6.28.07,22.44,22.44,0,0,1-5.4-1.63,28.63,28.63,0,0,1-4.74-2.68q-2.25-1.52-4.47-3.07c-2.95-2.08-5.89-4.17-8.74-6.38s-5.61-4.53-8.36-6.86l-2-1.77-2-1.83q-2-1.84-3.93-3.73c-2.62-2.47-5.09-5.12-7.51-7.81A106.17,106.17,0,0,1,627.52,7.06h0L629,6.88a6.62,6.62,0,0,0,.48,2.38,25.45,25.45,0,0,0,1,2.59c.81,1.73,1.69,3.46,2.64,5.17s1.9,3.42,2.84,5.15L639,27.32l6.11,10.28c2,3.46,4.11,6.91,6,10.53h0l0,0a.91.91,0,0,1-1.22,1.31c-6.12-3.87-12.16-7.91-17.94-12.31A199.41,199.41,0,0,1,615.39,23l-2-1.86c-.62-.56-1.33-1.1-2-1.62a19.59,19.59,0,0,0-2.16-1.39,3.41,3.41,0,0,0-.35-.16h.1a.8.8,0,0,0,.35-.12.86.86,0,0,0,.34-.48.76.76,0,0,0,0-.26c0-.15,0,0,0,0l.67,1.17,5.39,9.41c3.6,6.26,7.34,12.42,11.5,18.29A134.57,134.57,0,0,0,641,62.6a123.67,123.67,0,0,0,16.31,14c2.9,2.11,5.91,4.07,9,5.92L668.65,84a6.28,6.28,0,0,1,2.24,2.28,3,3,0,0,1,.31,2,3.09,3.09,0,0,1-1,1.69,5.33,5.33,0,0,1-1.43.87l-1.26.52a74.47,74.47,0,0,1-21.22,5.58,61.79,61.79,0,0,1-11,0,66.84,66.84,0,0,1-10.87-2,91.91,91.91,0,0,1-20.3-8.44c-1.6-.88-3.2-1.77-4.77-2.72-.79-.46-1.57-.93-2.34-1.42l-1.17-.73-.57-.35a3,3,0,0,0-.41-.23c-.1-.07-.24-.06,0,0h.13a1,1,0,0,0,.29,0,1.61,1.61,0,0,0,.37-.16,1.42,1.42,0,0,0,.37-.32,1.37,1.37,0,0,0,.25-.41.9.9,0,0,0,.08-.28l0-.19v-.12c0-.17,0,0,.06.07s.15.27.24.42l1.47,2.23c1,1.48,2,3,3.06,4.38a103.07,103.07,0,0,0,14.1,15.88,83.73,83.73,0,0,0,8.17,6.67,75.67,75.67,0,0,0,8.85,5.59,71.16,71.16,0,0,0,9.46,4.3,75.38,75.38,0,0,0,9.93,2.85,73.28,73.28,0,0,0,10.21,1.4,77.14,77.14,0,0,0,10.31-.15c.86,0,1.72-.18,2.57-.28s1.72-.17,2.57-.33c1.7-.3,3.41-.56,5.1-.92a95.7,95.7,0,0,0,10.09-2.59l-.44.18a65.11,65.11,0,0,1,11.15-4.05,32.57,32.57,0,0,1,12.38-.94,22.86,22.86,0,0,1,11.63,5.12,29,29,0,0,1,4.28,4.45c.63.8,1.22,1.62,1.76,2.45l.42.63a2.06,2.06,0,0,0-.39-.29,1.71,1.71,0,0,0-.86-.19,1.85,1.85,0,0,0-1,.33C731.07,127,731.06,127.14,731,127.17Zm4.44,1.67a3.76,3.76,0,0,1-1.27,1.64,3,3,0,0,1-1.58.55,3.14,3.14,0,0,1-1.52-.33,3.88,3.88,0,0,1-1.39-1.24l-.4-.53c-.52-.71-1.08-1.39-1.65-2a23.7,23.7,0,0,0-3.74-3.44,16.46,16.46,0,0,0-9-3.27,28.2,28.2,0,0,0-9.9,1.48,70.78,70.78,0,0,0-9.82,4.11,3.47,3.47,0,0,1-.41.16l0,0a87,87,0,0,1-22.08,4.44l-2.84.14c-1,0-1.9,0-2.84,0-1.9,0-3.79-.13-5.68-.26a79.83,79.83,0,0,1-11.2-1.88,75.32,75.32,0,0,1-20.72-8.82,82.4,82.4,0,0,1-9.13-6.44,89.74,89.74,0,0,1-8.23-7.46,102.27,102.27,0,0,1-7.33-8.26c-2.28-2.88-4.53-5.78-6.56-8.83-1-1.51-2-3-3-4.6l-1.44-2.33c-.14-.24-.28-.48-.41-.75a4,4,0,0,1-.35-1.15c0-.09,0-.18,0-.26a1.52,1.52,0,0,1,0-.33,1.82,1.82,0,0,1,.11-.4,1.85,1.85,0,0,1,.3-.5,1.92,1.92,0,0,1,1.62-.65,3.19,3.19,0,0,1,1.22.37,6.46,6.46,0,0,1,.75.44l.57.37,1.12.73c.75.5,1.5,1,2.26,1.45,1.52,1,3.06,1.85,4.6,2.74a94.5,94.5,0,0,0,9.59,4.7,65.63,65.63,0,0,0,10.05,3.39,59.05,59.05,0,0,0,10.36,1.69,58.21,58.21,0,0,0,10.4-.34,69.17,69.17,0,0,0,19.86-6l1.19-.55a.51.51,0,0,0,.21-.13s0,0,0,0a1.36,1.36,0,0,0-.46.79,1.75,1.75,0,0,0,0,1c.1.2-.23-.18-.72-.43l-2.25-1.25c-1.64-.89-3.24-1.85-4.82-2.82s-3.13-2-4.66-3.1a116.08,116.08,0,0,1-17.09-14.45,138.87,138.87,0,0,1-14.11-17.31,209.58,209.58,0,0,1-11.43-18.87c-1.77-3.18-3.43-6.39-5.14-9.54l-.65-1.2a4.27,4.27,0,0,1-.54-1.52,3.49,3.49,0,0,1,.06-1.42A3.63,3.63,0,0,1,607,14.23a3.8,3.8,0,0,1,1.71-.56,4.23,4.23,0,0,1,.82,0,4.81,4.81,0,0,1,.73.18,3.21,3.21,0,0,1,.41.16c.24.1.41.18.56.26a23.12,23.12,0,0,1,2.69,1.81,30.36,30.36,0,0,1,2.36,2l1.94,1.95c2.52,2.54,5.06,5.05,7.67,7.48s5.28,4.79,8,7.12c5.44,4.66,11.24,8.92,17,13.27l-1.2,1.32h0a79.27,79.27,0,0,1-8.43-9c-1.29-1.6-2.55-3.22-3.73-4.9-.59-.84-1.19-1.68-1.76-2.53l-1.65-2.61-1.6-2.65c-.51-.91-1-1.82-1.47-2.75a54.21,54.21,0,0,1-2.55-5.71A35.81,35.81,0,0,1,626.77,13a18.07,18.07,0,0,1-.29-3.32,6.5,6.5,0,0,1,.93-3.59l.13-.21a.82.82,0,0,1,1.13-.22.67.67,0,0,1,.25.25h0a169.78,169.78,0,0,0,14.57,15.3C648.64,26,654,30.59,659.58,35s11.24,8.56,17.08,12.54q4.38,3,8.86,5.79a96.68,96.68,0,0,0,9.14,5.16l-1.22.53h0c.57-3.11,1.15-6.18,1.46-9.26.11-.76.16-1.54.22-2.3s.14-1.53.14-2.3l.1-2.29c0-.76,0-1.52,0-2.28a77.55,77.55,0,0,0-2.44-18c-.34-1.47-.79-2.94-1.21-4.4s-.87-2.94-1.35-4.39-1-2.92-1.53-4.37l-.4-1.08-.2-.55-.07-.2-.1-.3a5.64,5.64,0,0,1-.2-.83,4.68,4.68,0,0,1,.06-1.72,4.15,4.15,0,0,1,2.43-2.9,4.39,4.39,0,0,1,2.26-.29,4.74,4.74,0,0,1,1,.23,9.18,9.18,0,0,1,1.84.87,34.74,34.74,0,0,1,4.32,3.25l1,.88.89.84,1.76,1.68c2.3,2.27,4.59,4.57,6.78,7a98.13,98.13,0,0,1,11.71,15.82,63.32,63.32,0,0,1,7.26,18.53,60.77,60.77,0,0,1,.76,19.7,88.94,88.94,0,0,1-4.4,18.81l-.22-.86h0a23,23,0,0,1,9.17,7.11,28.19,28.19,0,0,1,5.26,10.66,24.41,24.41,0,0,1,0,11.92A52.23,52.23,0,0,1,735.48,128.84Z" transform="translate(0 -1.52)"/><path class="cls-2" d="M231.79,98.21l.2-2.09,0-1.05a10.38,10.38,0,0,1,.2-1.13l.44-2.3c.18-.75.41-1.45.62-2.19l.32-1.08.42-1.06c.29-.7.55-1.42.88-2.11l1-2c.35-.68.78-1.31,1.16-2a21.51,21.51,0,0,1,1.27-1.89,22.3,22.3,0,0,1,1.38-1.82,22,22,0,0,1,1.49-1.73c.56-.54,1-1.13,1.59-1.64s1.08-1.06,1.67-1.54,1.16-1,1.81-1.45,1.24-.91,1.87-1.35l1-.63.9-.55-1.25,4.89a32.52,32.52,0,0,0-14.53-11.66A35.59,35.59,0,0,0,225,59.47l-2.62-.28-1-.06a8.08,8.08,0,0,0-1.1,0,20.83,20.83,0,0,0-2.34.18c-.8.12-1.58.22-2.37.35a80.4,80.4,0,0,0-9.79,2.66c-1.71.53-3.44,1.08-5.38,1.54-.51.1-1,.22-1.52.3a14.49,14.49,0,0,1-1.69.2l-.95,0-.47,0-.56,0a12.82,12.82,0,0,1-1.51-.24l-.93-.2c-.31-.08-.51-.15-.77-.23a13.49,13.49,0,0,1-1.44-.49c-.95-.33-1.81-.7-2.66-1.06L183,60c-1.57-.69-3.11-1.33-4.64-1.85a27.46,27.46,0,0,0-4.55-1.2,25.68,25.68,0,0,0-4.72-.26c-.77,0-1.49.07-2.27.14s-1.58.17-2.36.32a33.68,33.68,0,0,0-17,8.36c-.58.54-1.18,1.08-1.72,1.68l-.82.87-.77.93a22.39,22.39,0,0,0-1.47,1.9l-.36.5-.09.12c-.07.09,0-.06,0,0v.07l-.18.27-.71,1.12a39.55,39.55,0,0,0-4,8.82,50.37,50.37,0,0,0-2,9.71,70.89,70.89,0,0,0,.8,20.2,90.17,90.17,0,0,0,5.83,19.6,77,77,0,0,0,4.58,9.12c.85,1.42,1.82,3,2.75,4.4s1.89,2.88,2.89,4.25a41.13,41.13,0,0,0,6.55,7.39c.6.55,1.24.94,1.86,1.44.32.21.65.39,1,.6a7.23,7.23,0,0,0,1,.53,11.74,11.74,0,0,0,4.13,1.23l1,.06,1.33,0a7.9,7.9,0,0,0,1.13-.08,11.24,11.24,0,0,0,1.13-.14,29.1,29.1,0,0,0,4.7-1.17c1.61-.52,3.31-1.15,5.12-1.68a32.28,32.28,0,0,1,11.35-1.34l.77,0,.66,0a8.48,8.48,0,0,1,1.37.16l1.48.23c.5.08,1,.21,1.43.32a31.6,31.6,0,0,1,5.43,1.85c1.69.76,3.31,1.6,4.84,2.31a26,26,0,0,0,4.53,1.71l1.14.26,1.17.18a11.51,11.51,0,0,0,1.18.06l.59,0,.26,0,.33,0,1.32,0,1-.15a6.62,6.62,0,0,0,1.08-.2,8.63,8.63,0,0,0,1.11-.29,18.39,18.39,0,0,0,4.22-2,29.17,29.17,0,0,0,3.88-2.95c1.22-1.12,2.42-2.31,3.56-3.58s2.26-2.58,3.37-3.94l1.67-2c.51-.62,1.07-1.38,1.6-2.07a79.64,79.64,0,0,0,5.61-8.59c.83-1.5,1.63-3,2.38-4.57.37-.77.73-1.55,1.07-2.33l.5-1.18.5-1.24,1.07,3-.2-.09-.3-.15c-.19-.09-.39-.19-.58-.3-.37-.21-.75-.4-1.11-.62-.73-.43-1.45-.88-2.14-1.36s-1.35-1-2-1.48-1.28-1.07-1.93-1.61-1.21-1.15-1.82-1.74-1.13-1.25-1.7-1.87-1-1.33-1.57-2a17.5,17.5,0,0,1-1.41-2.1,18.4,18.4,0,0,1-1.26-2.2c-.38-.77-.78-1.52-1.1-2.29l-.87-2.39a17.49,17.49,0,0,1-.69-2.45l-.38-1.23-.15-.62c0-.21,0-.42-.08-.63l-.31-2.51a16.17,16.17,0,0,1-.11-2.51l0-2.49v-.15Zm4.43.33,0,2.21a14.68,14.68,0,0,0,.11,2.2l.28,2.19a2.67,2.67,0,0,0,.07.55l.13.53.26,1.06a15.39,15.39,0,0,0,.6,2.11l.75,2c.3.66.65,1.3,1,2a14.09,14.09,0,0,0,1.1,1.87,15.36,15.36,0,0,0,1.23,1.79c.46.57.86,1.19,1.36,1.73s1,1.1,1.49,1.62,1.06,1,1.65,1.52,1.12.93,1.71,1.41a12.36,12.36,0,0,0,1.8,1.29c.64.37,1.24.81,1.87,1.18.32.19.64.34,1,.53l.48.24.57.27a2.25,2.25,0,0,1,1.11,2.83v.11l-.49,1.22-.52,1.27c-.36.84-.75,1.69-1.13,2.53-.79,1.68-1.62,3.25-2.49,4.85a84.5,84.5,0,0,1-5.93,9.18c-.55.71-1,1.37-1.64,2.13l-1.67,2.09c-1.13,1.39-2.28,2.78-3.51,4.13s-2.52,2.67-3.89,3.95a34.6,34.6,0,0,1-4.52,3.48,22.87,22.87,0,0,1-5.32,2.5,12.58,12.58,0,0,1-1.46.39,11.31,11.31,0,0,1-1.52.29l-1.6.18-1.32,0-.33,0-1.34-.08a11.65,11.65,0,0,1-1.46-.13l-1.46-.22c-.47-.09-1-.21-1.44-.32a32.22,32.22,0,0,1-5.4-2c-1.69-.77-3.24-1.56-4.77-2.2a25.53,25.53,0,0,0-4.6-1.51c-.79-.19-1.54-.3-2.3-.42-.35-.07-.86,0-1.27-.13l-.66,0-.42,0h-.15a27.28,27.28,0,0,0-9.58,1.26c-1.58.48-3.2,1.1-4.94,1.7a34.5,34.5,0,0,1-5.55,1.42,25.37,25.37,0,0,1-3,.31l-1.33,0h-.26l-.55,0-.79,0a17.23,17.23,0,0,1-6-1.67,11.5,11.5,0,0,1-1.35-.7c-.43-.26-.84-.51-1.3-.77a23,23,0,0,1-2.36-1.77,46.22,46.22,0,0,1-7.61-8.32c-1.1-1.47-2.13-3-3.12-4.5s-2-3-2.93-4.55a83.9,83.9,0,0,1-5.06-9.79,96.15,96.15,0,0,1-6.51-20.88,77.69,77.69,0,0,1-1.2-21.89,51,51,0,0,1,6.84-21.5A40.51,40.51,0,0,1,163.29,50c1-.19,1.92-.27,2.88-.4s2-.13,3-.19h1.32l.67,0,.32,0,.49,0,1.54.08c.51,0,1,.14,1.5.21a35,35,0,0,1,5.7,1.46c1.82.61,3.55,1.31,5.22,2l4.81,2.14c.77.32,1.54.65,2.27.9a10.23,10.23,0,0,0,1.07.35,4.11,4.11,0,0,1,.49.15l.36.08a6.82,6.82,0,0,0,1.1.18h.29l.38,0a5.5,5.5,0,0,0,.94-.12c.32,0,.72-.15,1.08-.22,1.5-.36,3.13-.88,4.8-1.41a85.88,85.88,0,0,1,10.66-3c.95-.18,1.89-.35,2.87-.45s2-.19,2.95-.23a13.33,13.33,0,0,1,1.55,0l1.61,0,2.64.28a42.92,42.92,0,0,1,11.27,2.81,38.78,38.78,0,0,1,10.08,5.94,34.22,34.22,0,0,1,7.53,9l.15.26a3.31,3.31,0,0,1-1.18,4.52l-.22.12-.89.45-.82.44c-.55.31-1.11.62-1.64,1s-1.08.69-1.61,1-1,.76-1.55,1.14-1,.81-1.48,1.23-.92.89-1.41,1.33-.9.91-1.32,1.4a15,15,0,0,0-1.28,1.49c-.36.53-.79,1-1.12,1.57l-1,1.68c-.32.56-.56,1.16-.84,1.73l-.41.84-.31.89c-.2.61-.45,1.22-.63,1.83l-.41,1.81c-.08.31-.15.62-.2.94l-.07,1.07-.22,2.09v-.12Z" transform="translate(0 -1.52)"/><path class="cls-2" d="M528.74,267.44a6.85,6.85,0,0,1,.82-1.08,6.13,6.13,0,0,1,.54-.49,2.64,2.64,0,0,1,.29-.21l.23-.16,1-.73,2.1-1.46c1.4-1,2.8-2,4.18-3,2.77-2,5.53-4,8.25-6q8.16-6.13,16-12.68c5.2-4.38,10.34-8.83,15.29-13.48s9.84-9.37,14.56-14.25l2.66-2.75,2.63,2.85c4.41,4.79,8.83,9.58,13.2,14.41s8.71,9.7,13.06,14.55l26,29.17,1.74,1.94-1.57,2a203.79,203.79,0,0,1-14.61,16.74,193.93,193.93,0,0,1-34.47,27.91,186.81,186.81,0,0,1-19.46,10.73L579,332.54l-1.56-1.93-6.37-7.85-6.31-7.91q-6.3-7.94-12.52-15.9l-6.14-8c-2-2.65-4-5.3-6-7.94C536.23,277.78,532.39,272.55,528.74,267.44Zm3.51.59c4.59,5,9,10,13.29,14.84l6.38,7.28,6.22,7.26q6.14,7.27,12.19,14.56l6,7.31,6,7.37-3.8-.86a186.3,186.3,0,0,0,18.87-10.3A182,182,0,0,0,615,303.07a178.67,178.67,0,0,0,15.9-14.47q3.76-3.84,7.28-7.91t6.76-8.36l.17,4L618.4,247.7c-4.42-4.78-8.89-9.52-13.29-14.33s-8.78-9.63-13.15-14.46l5.29.09q-7.37,7.37-15.15,14.25c-2.61,2.28-5.25,4.53-7.92,6.72s-5.39,4.36-8.14,6.47c-5.49,4.21-11.14,8.22-16.9,12.05-2.89,1.89-5.8,3.75-8.75,5.55-1.48.89-3,1.78-4.45,2.65L533.69,268l-1.13.64c-.07,0,0,0,0,0s0,0,0,0a1,1,0,0,0,0-.16A.73.73,0,0,0,532.25,268Z" transform="translate(0 -1.52)"/><path class="cls-2" d="M549,276.83c3.72-3.6,7.61-6.93,11.5-10.23s7.84-6.51,11.8-9.7,8-6.34,12-9.45,8.14-6.17,12.46-9a115,115,0,0,1-10.44,11.38c-3.69,3.56-7.56,6.95-11.56,10.17s-8.14,6.26-12.42,9.1A115.76,115.76,0,0,1,549,276.83Z" transform="translate(0 -1.52)"/><path class="cls-2" d="M565.35,291.13c3.72-3.6,7.6-6.93,11.5-10.23s7.84-6.51,11.8-9.7,8-6.34,12-9.45,8.14-6.17,12.46-9a116.19,116.19,0,0,1-10.44,11.38c-3.69,3.56-7.56,6.95-11.56,10.17s-8.14,6.26-12.42,9.1A115.76,115.76,0,0,1,565.35,291.13Z" transform="translate(0 -1.52)"/><path class="cls-2" d="M577.54,306.73c3.72-3.6,7.61-6.93,11.5-10.23s7.84-6.51,11.8-9.7,8-6.34,12-9.45,8.14-6.17,12.46-9a113.74,113.74,0,0,1-10.44,11.37c-3.69,3.57-7.56,7-11.56,10.18s-8.14,6.26-12.42,9.1A117.23,117.23,0,0,1,577.54,306.73Z" transform="translate(0 -1.52)"/><path class="cls-2" d="M458.89,712.84a6.81,6.81,0,0,1,1.2.65,4.89,4.89,0,0,1,.56.46l.26.25.18.2.88.93,1.77,1.85c1.18,1.24,2.36,2.47,3.56,3.68,2.38,2.44,4.78,4.86,7.23,7.23q7.31,7.14,15,13.89c5.13,4.46,10.31,8.87,15.66,13.06s10.76,8.29,16.3,12.21l3.13,2.21-2.42,3q-6.09,7.65-12.24,15.25c-4.09,5.07-8.25,10.08-12.38,15.12L472.68,833l-1.66,2-2.23-1.24A204.69,204.69,0,0,1,450,821.92a188.5,188.5,0,0,1-46.41-47.41l-1.39-2,1.66-1.83,6.79-7.5,6.86-7.44q6.89-7.43,13.8-14.8l6.94-7.27c2.32-2.39,4.62-4.78,6.93-7.12C449.81,721.82,454.4,717.23,458.89,712.84Zm-.05,3.56c-4.28,5.3-8.47,10.4-12.64,15.39L440,739.21l-6.23,7.25q-6.25,7.17-12.53,14.27l-6.3,7.09-6.37,7,.27-3.88a186,186,0,0,0,13.05,17.07,180.06,180.06,0,0,0,14.95,15.44A178,178,0,0,0,453.54,817q4.38,3.12,8.93,6c3,1.9,6.15,3.69,9.29,5.41l-3.89.77,24.19-30.72c4.05-5.11,8.06-10.24,12.14-15.32s8.18-10.15,12.29-15.21l.71,5.24q-8.39-6.13-16.39-12.79-4-3.35-7.85-6.81c-2.6-2.29-5.12-4.66-7.63-7q-7.5-7.18-14.48-14.87-3.48-3.85-6.82-7.81-1.66-2-3.3-4l-1.62-2-.8-1c-.05-.06,0,0,0,0h0l.14,0A.75.75,0,0,0,458.84,716.4Z" transform="translate(0 -1.52)"/><path class="cls-2" d="M452.69,734.24c4.12,3.14,8,6.47,11.86,9.81s7.63,6.75,11.39,10.19,7.48,6.9,11.17,10.42,7.33,7.11,10.82,10.94A113.74,113.74,0,0,1,485.1,767q-6.14-4.66-11.82-9.88t-10.89-10.88A118.52,118.52,0,0,1,452.69,734.24Z" transform="translate(0 -1.52)"/><path class="cls-2" d="M441.06,752.63c4.12,3.13,8,6.46,11.86,9.81s7.63,6.75,11.39,10.18,7.48,6.91,11.16,10.43,7.34,7.11,10.83,10.94a116.16,116.16,0,0,1-12.84-8.58c-4.09-3.11-8-6.42-11.81-9.88s-7.43-7.09-10.89-10.89A114.67,114.67,0,0,1,441.06,752.63Z" transform="translate(0 -1.52)"/><path class="cls-2" d="M427.5,767.06c4.12,3.13,8,6.46,11.86,9.8s7.63,6.76,11.39,10.19,7.48,6.9,11.17,10.43,7.33,7.11,10.82,10.93a114.77,114.77,0,0,1-12.84-8.58q-6.13-4.67-11.81-9.88T437.2,779.07A115.72,115.72,0,0,1,427.5,767.06Z" transform="translate(0 -1.52)"/><rect class="cls-4" x="306.63" y="442.26" width="471.82" height="126.79" rx="6.24"/><path class="cls-2" d="M355.74,658.57c-1.13-15.42-1.32-30.85-1.31-46.27l0-23.14,0-11.57v-2.11l0-.36a6.41,6.41,0,0,1,.31-1.43,6.24,6.24,0,0,1,4.06-3.9,5.88,5.88,0,0,1,1.43-.25l.37,0h4.88l92.56.14,92.55.41h5.21a5.23,5.23,0,0,1,1.3.24,5.62,5.62,0,0,1,3.94,4.83c0,.19,0,.49,0,.6v1.81l-.08,11.57-.17,23.14-.39,46.27a1.88,1.88,0,0,1-3.75,0l-.38-46.27-.17-23.14-.08-11.57v-1.81a1.09,1.09,0,0,1,0-.12l0-.12a.57.57,0,0,0-.36-.32l-.12,0h-4.91l-92.55.41-92.56.13H360.7s0,0,0,0,0,0,0,0h0s0,0,0,.06v13.38l0,23.14c0,15.42-.19,30.85-1.31,46.27a1.88,1.88,0,0,1-3.75,0Z" transform="translate(0 -1.52)"/><path class="cls-2" d="M276.29,553.4l15.65-.09,15.65-.26c10.44-.25,20.87-.57,31.31-.89l15.65-.45c5.21-.15,10.43-.24,15.65-.32s10.43-.12,15.65-.15,10.44,0,15.65,0l125.22.18,62.61.09,31.3,0,15.66,0,7.47,0a.44.44,0,0,0-.24.14.58.58,0,0,0,0,.14s0,0,0,.06V551l.24-62.6.11-31.31.06-15.65,0-7.83V433a.05.05,0,0,0,0,0s0-.06-.1-.07l-250.43-.92-62.61-.12-31.31-.05-15.65,0h-7.59a1.2,1.2,0,0,0-.92.5,1.26,1.26,0,0,0-.23.48,2.51,2.51,0,0,0,0,.27v.94l-.09,62.61-.05,31.31,0,15.65v8.55a1.57,1.57,0,0,0,.05.3,1.4,1.4,0,0,0,.3.53A1.45,1.45,0,0,0,276.29,553.4Zm0,6.27a7.77,7.77,0,0,1-5.82-2.63,7.64,7.64,0,0,1-1.59-2.85,7.48,7.48,0,0,1-.31-1.62l0-.41v-8.65l0-15.65,0-31.31-.09-62.61v-1a8.36,8.36,0,0,1,.19-1.66,8,8,0,0,1,7.16-6.16c.66,0,.86,0,1.21,0h6.85l15.65,0,31.31,0,62.61-.12L643.78,424a9.07,9.07,0,0,1,8.68,6.41,9.28,9.28,0,0,1,.36,1.89l0,.48v.86l0,7.83.06,15.65.11,31.31.23,62.6v1a9.83,9.83,0,0,1-.23,2,9.5,9.5,0,0,1-8.6,7.4c-.82,0-1,0-1.33,0h-6.84l-15.66,0-31.3,0-62.61.09-125.22.18c-5.21,0-10.43,0-15.65,0s-10.43,0-15.65-.15-10.44-.17-15.65-.32l-15.65-.44c-10.44-.33-20.87-.65-31.31-.9l-15.65-.26Z" transform="translate(0 -1.52)"/><path class="cls-2" d="M262.48,659.25l21.57-.09,21.58-.26q21.57-.37,43.14-.9l21.58-.45c7.19-.15,14.38-.24,21.57-.32s14.38-.12,21.58-.15l21.57,0,172.59.19,43.15,0,9.75,0a.51.51,0,0,0-.4.41c0,.54,0-.92,0-1.7v-2.7l0-21.57.14-86.3.23-86.29.12-43.15.06-21.58,0-10.78v-3.37a.8.8,0,0,0,0-.2h0v0a.12.12,0,0,0-.1-.09L315.47,379,272.33,379h-9.92c-.06,0-.11,0-.17,0a1.16,1.16,0,0,0-.88.89c0-.07,0,1.21,0,2v2.69l0,21.58-.09,86.29-.09,86.3,0,43.15,0,21.57V658a1.89,1.89,0,0,0,.1.41A1.44,1.44,0,0,0,262.48,659.25Zm0,6.32a7.78,7.78,0,0,1-7.16-4.75,8.29,8.29,0,0,1-.57-2.2l0-.56c0-.22,0-.34,0-.44v-3.37l0-10.79,0-21.57,0-43.15-.09-86.3-.1-86.29,0-21.58v-4a9.65,9.65,0,0,1,.15-2,8.08,8.08,0,0,1,6.28-6.34A7.8,7.8,0,0,1,262,372l.53,0h9.78l43.14-.07L660.66,371a9.09,9.09,0,0,1,8.38,5.54,9.72,9.72,0,0,1,.67,2.58l0,.66c0,.26,0,.39,0,.49v3.37l0,10.78.06,21.58.11,43.15.24,86.29.14,86.3,0,21.57v4.05a11.58,11.58,0,0,1-.18,2.32,9.75,9.75,0,0,1-7.57,7.65,11.33,11.33,0,0,1-1.41.18l-.62,0h-9.78l-43.15.05-172.59.18-21.57,0c-7.2,0-14.39,0-21.58-.16s-14.38-.17-21.57-.32l-21.58-.45q-21.57-.5-43.14-.9l-21.58-.26Z" transform="translate(0 -1.52)"/><path class="cls-2" d="M281.66,462.36c14.93-1.11,29.85-1.31,44.78-1.3l44.79.07,89.57.13,89.57.41,44.79.3,44.78.39a1.84,1.84,0,0,1,1.84,1.87,1.86,1.86,0,0,1-1.84,1.84l-44.78.38-44.79.3-89.57.41-89.57.14-44.79.06c-14.93,0-29.85-.18-44.78-1.29a1.86,1.86,0,0,1,0-3.71Z" transform="translate(0 -1.52)"/><path class="cls-2" d="M281.66,492.72c14.93-1.11,29.85-1.3,44.78-1.3l44.79.07,89.57.14,89.57.4,44.79.31,44.78.38a1.86,1.86,0,0,1,0,3.71l-44.78.38-44.79.31-89.57.4-89.57.14-44.79.07c-14.93,0-29.85-.19-44.78-1.3a1.86,1.86,0,0,1,0-3.71Z" transform="translate(0 -1.52)"/><path class="cls-2" d="M281.66,520.05c14.93-1.11,29.85-1.31,44.78-1.3l44.79.07,89.57.13,89.57.41,44.79.3,44.78.39a1.84,1.84,0,0,1,1.84,1.87,1.86,1.86,0,0,1-1.84,1.84l-44.78.38-44.79.3-89.57.41-89.57.14-44.79.06c-14.93,0-29.85-.18-44.78-1.29a1.86,1.86,0,0,1,0-3.71Z" transform="translate(0 -1.52)"/><path class="cls-2" d="M310.84,439.92a52.19,52.19,0,0,1,1.3,13.12l0,13.12c0,8.74-.11,17.49-.17,26.24s-.22,17.49-.4,26.23l-.31,13.12q-.15,6.57-.38,13.12a1.86,1.86,0,0,1-3.71,0q-.24-6.55-.38-13.12l-.32-13.12c-.17-8.74-.28-17.49-.39-26.23s-.17-17.5-.17-26.24l0-13.12a52.19,52.19,0,0,1,1.3-13.12,1.91,1.91,0,0,1,3.71,0Z" transform="translate(0 -1.52)"/><path class="cls-2" d="M339.68,439.92A51.74,51.74,0,0,1,341,453l0,13.12c0,8.74-.11,17.49-.17,26.24s-.22,17.49-.4,26.23l-.31,13.12c-.11,4.38-.22,8.75-.39,13.12a1.84,1.84,0,0,1-1.92,1.79,1.87,1.87,0,0,1-1.79-1.79q-.24-6.55-.38-13.12l-.31-13.12c-.18-8.74-.29-17.49-.4-26.23s-.17-17.5-.17-26.24l0-13.12A52.18,52.18,0,0,1,336,439.92a1.93,1.93,0,0,1,2.33-1.39A1.91,1.91,0,0,1,339.68,439.92Z" transform="translate(0 -1.52)"/><path class="cls-2" d="M370.05,439.92a52.66,52.66,0,0,1,1.3,13.12l0,13.12c0,8.74-.11,17.49-.17,26.24s-.22,17.49-.4,26.23l-.31,13.12q-.15,6.57-.38,13.12a1.86,1.86,0,0,1-3.71,0q-.24-6.55-.38-13.12l-.32-13.12c-.17-8.74-.28-17.49-.4-26.23s-.16-17.5-.17-26.24L365,453a51.74,51.74,0,0,1,1.3-13.12,1.91,1.91,0,0,1,3.71,0Z" transform="translate(0 -1.52)"/><path class="cls-2" d="M400.41,439.92a30.93,30.93,0,0,1,1.3,10.08l0,10.09c0,6.72-.12,13.44-.18,20.16s-.22,13.44-.39,20.17l-.32,10.08c-.1,3.36-.22,6.72-.38,10.08a1.86,1.86,0,0,1-1.94,1.77,1.88,1.88,0,0,1-1.77-1.77c-.16-3.36-.28-6.72-.38-10.08L396,500.42c-.18-6.73-.29-13.45-.4-20.17s-.17-13.44-.17-20.16l0-10.09a31.2,31.2,0,0,1,1.3-10.08,2,2,0,0,1,2.47-1.24A2,2,0,0,1,400.41,439.92Z" transform="translate(0 -1.52)"/><path class="cls-2" d="M433.81,439.92a31.2,31.2,0,0,1,1.3,10.08l0,10.09c0,6.72-.11,13.44-.17,20.16s-.22,13.44-.39,20.17l-.32,10.08c-.1,3.36-.22,6.72-.38,10.08a1.86,1.86,0,0,1-3.71,0c-.16-3.36-.28-6.72-.38-10.08l-.31-10.08c-.18-6.73-.29-13.45-.4-20.17s-.17-13.44-.17-20.16l0-10.09a31.2,31.2,0,0,1,1.3-10.08,2,2,0,0,1,2.47-1.24A2,2,0,0,1,433.81,439.92Z" transform="translate(0 -1.52)"/><path class="cls-2" d="M464.17,439.92a51.74,51.74,0,0,1,1.3,13.12l0,13.12c0,8.74-.11,17.49-.17,26.24s-.22,17.49-.4,26.23l-.31,13.12c-.11,4.38-.22,8.75-.39,13.12a1.84,1.84,0,0,1-1.92,1.79,1.87,1.87,0,0,1-1.79-1.79q-.24-6.55-.38-13.12l-.31-13.12c-.18-8.74-.29-17.49-.4-26.23s-.17-17.5-.17-26.24l0-13.12a52.18,52.18,0,0,1,1.29-13.12,1.93,1.93,0,0,1,2.33-1.39A1.91,1.91,0,0,1,464.17,439.92Z" transform="translate(0 -1.52)"/><path class="cls-2" d="M497.57,439.92a51.74,51.74,0,0,1,1.3,13.12l0,13.12c0,8.74-.11,17.49-.17,26.24s-.22,17.49-.4,26.23L498,531.75c-.11,4.38-.23,8.75-.39,13.12a1.85,1.85,0,0,1-1.92,1.79,1.87,1.87,0,0,1-1.79-1.79q-.24-6.55-.38-13.12l-.31-13.12c-.18-8.74-.29-17.49-.4-26.23s-.17-17.5-.17-26.24l0-13.12a52.66,52.66,0,0,1,1.3-13.12,1.93,1.93,0,0,1,2.33-1.39A1.91,1.91,0,0,1,497.57,439.92Z" transform="translate(0 -1.52)"/><path class="cls-2" d="M527.94,439.92a52.66,52.66,0,0,1,1.3,13.12l0,13.12c0,8.74-.11,17.49-.17,26.24s-.22,17.49-.4,26.23l-.31,13.12q-.15,6.57-.38,13.12a1.86,1.86,0,0,1-3.71,0c-.16-4.37-.28-8.74-.39-13.12l-.31-13.12q-.25-13.11-.4-26.23c-.06-8.75-.17-17.5-.17-26.24l0-13.12a51.74,51.74,0,0,1,1.3-13.12,1.91,1.91,0,0,1,3.71,0Z" transform="translate(0 -1.52)"/><path class="cls-2" d="M558.3,439.92A52.19,52.19,0,0,1,559.6,453l0,13.12c0,8.74-.11,17.49-.17,26.24s-.22,17.49-.39,26.23l-.32,13.12q-.15,6.57-.38,13.12a1.86,1.86,0,0,1-3.71,0q-.24-6.55-.38-13.12l-.32-13.12c-.17-8.74-.28-17.49-.39-26.23s-.17-17.5-.17-26.24l0-13.12a52.19,52.19,0,0,1,1.3-13.12,1.91,1.91,0,0,1,3.71,0Z" transform="translate(0 -1.52)"/><path class="cls-2" d="M588.66,439.92A51.74,51.74,0,0,1,590,453l0,13.12c0,8.74-.11,17.49-.17,26.24s-.23,17.49-.4,26.23l-.31,13.12c-.11,4.38-.23,8.75-.39,13.12a1.85,1.85,0,0,1-1.92,1.79,1.87,1.87,0,0,1-1.79-1.79q-.24-6.55-.38-13.12l-.31-13.12c-.18-8.74-.29-17.49-.4-26.23s-.17-17.5-.17-26.24l0-13.12a52.66,52.66,0,0,1,1.3-13.12,1.93,1.93,0,0,1,2.33-1.39A1.91,1.91,0,0,1,588.66,439.92Z" transform="translate(0 -1.52)"/><path class="cls-2" d="M619,439.92a52.66,52.66,0,0,1,1.3,13.12l0,13.12c0,8.74-.11,17.49-.17,26.24s-.22,17.49-.4,26.23l-.31,13.12q-.15,6.57-.38,13.12a1.86,1.86,0,0,1-3.71,0c-.16-4.37-.28-8.74-.39-13.12l-.31-13.12c-.18-8.74-.29-17.49-.4-26.23s-.17-17.5-.17-26.24L614,453a51.74,51.74,0,0,1,1.3-13.12,1.91,1.91,0,0,1,3.71,0Z" transform="translate(0 -1.52)"/><rect class="cls-2" x="259.41" y="394.67" width="402.02" height="15.34"/><rect class="cls-5" x="-15.97" y="278.47" width="263.39" height="111.87" rx="4.43" transform="translate(409.81 136.08) rotate(75.3)"/><path class="cls-2" d="M211.84,467.53l-11.56,3-11.53,3.16c-7.66,2.17-15.31,4.41-23,6.66s-15.3,4.45-23,6.54C139,488,135.11,489,131.26,490s-7.72,2-11.58,2.94L73.33,504.51,67.53,506l-1.52.37-1.14.22-1.16.12a14.07,14.07,0,0,1-4.61-.53,13.58,13.58,0,0,1-7.38-5.35,13.44,13.44,0,0,1-1.92-4.2l-.75-3-5.81-23.17L20.06,377.76,8.58,331.37,2.84,308.18,1.4,302.39l-.72-2.9-.18-.73c-.06-.25-.11-.43-.19-.84a13.42,13.42,0,0,1-.3-2.19,13.11,13.11,0,0,1,2.55-8.3,13,13,0,0,1,7.21-4.79l92.77-23,46.38-11.49,5.8-1.43,1.5-.37,1-.2,1-.1a12.48,12.48,0,0,1,4.13.48,12.13,12.13,0,0,1,6.6,4.81,11.88,11.88,0,0,1,1.72,3.76l.73,2.94,5.74,23.19L200.4,374,212,420.32l5.8,23.17,1.45,5.8.73,2.89.18.73c.06.25.12.44.19.8a13.1,13.1,0,0,1,.27,2,11.64,11.64,0,0,1-8.8,11.84Zm-1.43-5.67a5.78,5.78,0,0,0,4.34-5.88,6.43,6.43,0,0,0-.14-1c0-.13-.1-.42-.15-.65l-.19-.72-.73-2.9L212.06,445l-5.88-23.16L194.4,375.48l-23.58-92.61-5.95-23.14-.74-2.85a5.09,5.09,0,0,0-.77-1.63,5.23,5.23,0,0,0-2.88-2.06,5.63,5.63,0,0,0-1.78-.19l-.44.05-.45.09c-.37.08-.93.24-1.39.35L150.64,255l-46.28,11.9L11.8,290.69a4.73,4.73,0,0,0-2.52,1.72,4.63,4.63,0,0,0-.86,2.91,6.8,6.8,0,0,0,.11.77c0,.08.09.38.15.61l.19.72.74,2.89,1.49,5.79,6,23.14L29,375.51l23.6,92.61,5.89,23.15.72,2.84a3.83,3.83,0,0,0,.56,1.19,3.76,3.76,0,0,0,2.11,1.51,4,4,0,0,0,1.29.15l.33,0,.33-.07.28-.07.37-.09.72-.18L70.94,495l46.31-11.77c3.86-1,7.71-2,11.58-2.91s7.73-1.91,11.62-2.78c7.76-1.82,15.54-3.5,23.34-5.16s15.59-3.31,23.37-5l11.64-2.69Z" transform="translate(0 -1.52)"/><rect class="cls-6" x="53.98" y="277.97" width="4.98" height="221.65" transform="translate(-93.43 24.12) rotate(-14.17)"/></g></g></svg>