<svg xmlns="http://www.w3.org/2000/svg" viewBox="0 0 1196.12 959.59"><defs><style>.cls-1,.cls-3,.cls-4{fill:#157cb8;}.cls-1{opacity:0.5;}.cls-2{fill:#333;}.cls-3{opacity:0.4;}.cls-4{opacity:0.3;}.cls-5{fill:#1d1d1b;}.cls-6{stroke:#333;stroke-linecap:round;stroke-linejoin:round;stroke-width:1.07px;}.cls-7{fill:none;}</style></defs><g id="Layer_2" data-name="Layer 2"><g id="Layer_1-2" data-name="Layer 1"><rect class="cls-1" x="608.58" y="42.11" width="156.97" height="49.13" rx="4.38" transform="translate(109 446.87) rotate(-38.96)"/><path class="cls-2" d="M748.39,44.72a1.93,1.93,0,0,1,.11,1.09,1.16,1.16,0,0,1-.08.32l0,.11a3.55,3.55,0,0,1-.21.44,3.87,3.87,0,0,1-.57.76,12.93,12.93,0,0,1-1,.81c-.57.47-1.15,1-1.72,1.47q-1.71,1.52-3.37,3.07c-.55.52-1.11,1-1.64,1.57s-1.06,1.11-1.56,1.68c-1,1.16-2,2.37-3,3.46s-2.25,2-3.4,3l-3.46,2.95-7,5.87-14,11.59c-4.69,3.85-9.4,7.67-14.06,11.55s-9.36,7.71-14,11.66-9.15,8-13.69,12l-6.82,6-3.41,3a8.9,8.9,0,0,1-1.35,1,5.33,5.33,0,0,1-1.22.54,4.35,4.35,0,0,1-1.93.1,4.57,4.57,0,0,1-1.63-.63L649,128l-.23-.18-.41-.35a13.53,13.53,0,0,1-1-1.11l-12-13.63-3-3.43-1.56-1.85a6.67,6.67,0,0,1-1.17-2.12,5,5,0,0,1-.19-2,4.93,4.93,0,0,1,.62-1.86,6.75,6.75,0,0,1,1.46-1.73l.31-.27.22-.18.44-.35a22,22,0,0,1,1.9-1.3,33.11,33.11,0,0,0,3.83-2.5c4.59-4,9.23-7.87,13.85-11.8l27.76-23.52,7-5.87c2.3-2,4.67-3.87,7.07-5.72s4.78-3.75,7.07-5.73c.58-.5,1.16-1,1.72-1.49a12,12,0,0,1,1.13-.9,5.45,5.45,0,0,1,1.92-.86,5.39,5.39,0,0,1,1.13-.15l.53,0h.29l1.14.07,2.27.15,9.07.64c3,.2,6.06.39,9.07.7s6,.68,9,1.16c1.5.24,3,.52,4.49.83.75.15,1.49.32,2.24.5.37.08.75.19,1.12.28l.28.07.19,0a.83.83,0,0,1,.21.06l.28.11a1.49,1.49,0,0,1,.3.18l.1.07,0,0A1.78,1.78,0,0,1,748.39,44.72Zm-2.66,1.44a1.34,1.34,0,0,0,.74.68l-.1,0-.16,0a.61.61,0,0,0-.23,0v0l.07,0s.1,0,.05,0l-.29,0c-.38,0-.77.07-1.15.08-.77.05-1.53.08-2.29.11-1.53.05-3,.06-4.56,0q-4.56-.06-9.1-.41c-3-.21-6-.54-9.05-.87l-9.06-1-2.28-.22-1.13-.12-.27,0h0s0,0-.14,0a4.67,4.67,0,0,0-.67.5l-1.78,1.44c-2.34,1.92-4.62,3.93-6.85,6s-4.52,4.07-6.85,6l-7,5.85L655.75,87.63c-4.66,3.87-9.3,7.79-14,11.63a32.91,32.91,0,0,0-3.13,3.34,22.62,22.62,0,0,1-1.59,1.66l-.76.67c-.15.12-.2.25,0,0a2,2,0,0,0,.26-.79,2.23,2.23,0,0,0-.07-.89c-.14-.41-.13-.28,0-.17l1.36,1.62,2.91,3.52,11.49,14.19.48.58c.09.1,0-.07-.62-.21a1.85,1.85,0,0,0-.81,0,.44.44,0,0,0-.19.07,2.62,2.62,0,0,0,.48-.34l3.54-2.85,7.1-5.68q7.1-5.7,14.12-11.48c4.67-3.87,9.26-7.84,13.86-11.8s9.17-7.93,13.76-11.9L717.7,66.94l6.95-5.87,3.5-2.91c1.17-1,2.29-2,3.55-2.84s2.61-1.61,3.93-2.41c.65-.4,1.29-.81,1.91-1.25s1.23-.89,1.82-1.35c1.22-.91,2.41-1.84,3.59-2.8.6-.48,1.17-.95,1.77-1.47a4.87,4.87,0,0,0,.74-.62.4.4,0,0,0,.1-.15.19.19,0,0,0,0-.08s0,0,0,.19A1.2,1.2,0,0,0,745.73,46.16Z" transform="translate(-1.9)"/><path class="cls-2" d="M701.38,140.43a1.7,1.7,0,0,1,.56-.69,1.75,1.75,0,0,1,.83-.31l-.92.39c1.7-1.3,3.3-2.71,4.88-4.15l2.34-2.19a30.66,30.66,0,0,0,2.25-2.31,56.88,56.88,0,0,1,4.28-4.87c1.58-1.43,3.23-2.78,4.85-4.18,3.24-2.78,6.52-5.52,9.8-8.26l9.89-8.16,1.7,5.35c-6.89-.69-13.77-1.45-20.67-2.09l-10.34-1c-3.45-.3-6.9-.62-10.36-.85l2-.62c-4.89,4.23-9.73,8.51-14.57,12.79s-9.77,8.49-14.66,12.72l-7.36,6.32-.92.78-.47.39-.22.2a1.29,1.29,0,0,0,.17-.16,2.71,2.71,0,0,0,.65-1.23,3,3,0,0,0,.08-1.08,2.94,2.94,0,0,0-.24-.83,2.15,2.15,0,0,0-.34-.56,1.14,1.14,0,0,1,.11.11l.13.13.23.25.1.11q1.59,1.82,3.11,3.68l1.54,1.87c.5.62,1,1.22,1.5,1.89,1,1.3,1.65,2.82,2.57,4.16a15.72,15.72,0,0,0,1.52,1.95c.55.61,1.06,1.24,1.57,1.87,1,1.24,2,2.44,3.05,3.58v0a3,3,0,0,1-.22,4.26l-.1.1.34-4.33,16.85,19.42-2.21-1.1,20.61,1.42,10.31.73c3.43.23,6.85.7,10.27,1.07l-2.42,4.83c-1.33-1.66-2.73-3.25-4.12-4.85L725,172.2c-3-3.42-6-7-8.9-10.58s-5.76-7.38-8.23-11S703.21,143.47,701.38,140.43Zm3,1.31,9.79,9.29c3,2.85,5.61,5.58,8.09,8.46s5,5.83,7.42,8.91c.59.75,1.29,1.6,1.95,2.41s1.33,1.64,2,2.44c1.37,1.62,2.73,3.23,4.17,4.78a2.86,2.86,0,0,1,.73,1.5,3,3,0,0,1-.22,1.66,2.9,2.9,0,0,1-2.72,1.68h-.21c-3.44-.13-6.91-.15-10.32-.41l-10.32-.73-20.59-1.54a3.32,3.32,0,0,1-1.19-.34,3.19,3.19,0,0,1-1-.77l-16.66-19.6-.06-.07a2.85,2.85,0,0,1-.57-1,2.9,2.9,0,0,1-.14-1.17,3,3,0,0,1,.32-1.13,3.12,3.12,0,0,1,.74-.91l.06-.06-.3,4.38c-1.13-1.28-2.17-2.57-3.17-3.83-.51-.63-1-1.25-1.49-1.88a13.71,13.71,0,0,0-1.59-1.73c-1.16-1.13-2.55-2.08-3.67-3.25-.58-.57-1.08-1.2-1.62-1.81l-1.58-1.84q-1.58-1.84-3.11-3.73l-.1-.12,0,.06.1.1s0,0,0,0l-.33-.34a5.72,5.72,0,0,1-1-1.54,4.76,4.76,0,0,1-.31-3.09,5,5,0,0,1,1.24-2.26,4.68,4.68,0,0,1,.62-.56l.24-.2.48-.38,1-.74,7.59-6,15.19-12c5-4,10.09-8,15.09-12.13l.07-.06a2.82,2.82,0,0,1,.89-.47,2.79,2.79,0,0,1,1-.09c3.44.37,6.89.66,10.35,1l10.33.8c6.91.55,13.82,1,20.73,1.51a2.93,2.93,0,0,1,1.62.63,3,3,0,0,1,.13,4.65l-.06.06-9.7,8.37c-3.25,2.78-6.5,5.55-9.79,8.28-1.65,1.36-3.26,2.75-4.94,4.09a55.72,55.72,0,0,1-5.51,3.4,28.45,28.45,0,0,0-2.65,1.84c-.87.62-1.72,1.28-2.56,1.93-1.68,1.32-3.34,2.66-4.91,4.12l-.92.39a1.58,1.58,0,0,0,1.38-1Z" transform="translate(-1.9)"/><circle class="cls-1" cx="1099.2" cy="540.29" r="28.78"/><path class="cls-2" d="M1112.26,518.24a110.41,110.41,0,0,0-3.49-15c-.73-2.47-1.54-4.92-2.48-7.3a37,37,0,0,0-3.33-6.74,9.35,9.35,0,0,0-1.06-1.31,2.65,2.65,0,0,0-1-.69.66.66,0,0,0-.2-.06.09.09,0,0,0-.09,0l-.11,0-.21.07a5.56,5.56,0,0,0-1.37.65,3.52,3.52,0,0,0-1.42,2.19,11.13,11.13,0,0,0-.28,3.31,31.34,31.34,0,0,0,.38,3.61c.16,1.24.43,2.47.66,3.71.51,2.48,1,5,1.5,7.55v.05a.73.73,0,0,1-.57.84.84.84,0,0,1-1-.47c-.52-1.22-1-2.42-1.51-3.67s-.91-2.49-1.3-3.75-.71-2.55-1-3.87a29.09,29.09,0,0,1-.64-4,14.27,14.27,0,0,1,.22-4.28,7.77,7.77,0,0,1,.89-2.22,6.28,6.28,0,0,1,1.76-1.91,9.69,9.69,0,0,1,2.26-1.05l.25-.1.13,0,.22-.07a4.13,4.13,0,0,1,.93-.17,4.85,4.85,0,0,1,1.88.27,7.09,7.09,0,0,1,2.48,1.65,13.41,13.41,0,0,1,1.54,1.84,34.27,34.27,0,0,1,3.78,7.53c.49,1.26.93,2.53,1.3,3.81s.71,2.55,1.06,3.83a30.71,30.71,0,0,1,.8,3.88c.1.65.23,1.3.3,1.95l.14,2a29.07,29.07,0,0,1,0,4,14.94,14.94,0,0,1-.72,4l0,.07a.34.34,0,0,1-.35.24A.36.36,0,0,1,1112.26,518.24Z" transform="translate(-1.9)"/><path class="cls-2" d="M1165.59,529.53a3.61,3.61,0,0,1,.33-.65c.25-.4.56-1,1-1.73a27,27,0,0,1,1.77-2.55c.73-1,1.57-2,2.53-3.11a46.29,46.29,0,0,1,3.32-3.4,50.32,50.32,0,0,1,4.14-3.44c1.5-1.13,3.11-2.27,4.87-3.34a21.24,21.24,0,0,1,6.11-2.71,9.64,9.64,0,0,1,2.07-.28,6.68,6.68,0,0,1,2.57.46,5.31,5.31,0,0,1,1.28.75,3.87,3.87,0,0,1,.52.47l.15.13.1.11h0l.11.14.32.42c.13.17.23.32.33.48a6.17,6.17,0,0,1,.53,1.06,5.21,5.21,0,0,1,.31,2.5,5.71,5.71,0,0,1-.71,2.08,10.79,10.79,0,0,1-2.12,2.59,37.81,37.81,0,0,1-4.33,3.34l-3.83,2.68-5.76,4.05-2.22,1.52s2.68-2.76,6.87-6.74c1-1,2.22-2,3.45-3.15a48.13,48.13,0,0,0,3.74-3.54,8.82,8.82,0,0,0,1.45-2.08,2.42,2.42,0,0,0,.09-2.1,3.85,3.85,0,0,0-.73-.93l-.12-.13,0,0h0a1.56,1.56,0,0,0-.2-.16,1.72,1.72,0,0,0-.43-.21,4,4,0,0,0-2.29.1,19.14,19.14,0,0,0-4.84,2.55c-1.52,1-3,2.2-4.33,3.34s-2.65,2.29-3.86,3.4-2.32,2.18-3.35,3.17l-2.82,2.72-2.15,2.11-1.86,1.86a1.31,1.31,0,0,1-1.65.16,1.26,1.26,0,0,1-.5-1.55Z" transform="translate(-1.9)"/><path class="cls-2" d="M1042.59,569.52l0-.06a2.49,2.49,0,0,1-.14-.44,4.76,4.76,0,0,1-.11-1.13,16.56,16.56,0,0,1,.45-3.37,55.15,55.15,0,0,1,4-11.44,78.12,78.12,0,0,1,10-16,71.35,71.35,0,0,1,8.13-8.55,65.19,65.19,0,0,1,39.89-16.64,80.56,80.56,0,0,1,8.37-.1c1.4.06,2.83.17,4.25.3.68.06,1.42.15,2.13.23l2.08.25c2.8.37,5.64.8,8.5,1.37,1.43.29,2.86.62,4.3,1l.53.17.58.18,1,.27,2.07.57c1.44.45,2.94.86,4.35,1.34l2.13.75,2.13.81a89.09,89.09,0,0,1,8.42,3.74,72.84,72.84,0,0,1,15.59,10.52,66.9,66.9,0,0,1,12.33,14.46,71,71,0,0,1,7.79,17.09,81.6,81.6,0,0,1,3.38,18.06,99.63,99.63,0,0,1-.27,17.95c-.32,3-.75,5.88-1.36,8.8-.16.73-.32,1.47-.52,2.22l-.37,1.2-.06.19a2.83,2.83,0,0,1-.21.55,4.7,4.7,0,0,1-.88,1.2,4.09,4.09,0,0,1-.94.66,4.72,4.72,0,0,1-1.19.43,6.5,6.5,0,0,1-.75.12,10.69,10.69,0,0,1-1.79,0c-.48,0-.92-.08-1.37-.13-.84-.11-1.62-.24-2.4-.38-3.07-.56-6-1.24-8.8-2s-5.66-1.48-8.44-2.24c-11.08-3.08-21.68-6.27-31.7-9.39s-19.45-6.18-28.15-9-16.61-5.58-23.67-8-13.14-4.62-18.17-6.43-9-3.33-11.63-4.4c-1.34-.54-2.36-1-3.08-1.3-.36-.16-.61-.3-.88-.45a2.8,2.8,0,0,1-.4-.27,1.72,1.72,0,0,1-.27-.27,1.31,1.31,0,0,1,.42-1.88,1.49,1.49,0,0,1,2,.45l-.1-.15a1.8,1.8,0,0,0-.19-.2c-.08-.06-.09-.06-.06,0a3.77,3.77,0,0,0,.63.26c.63.25,1.65.62,3,1.07,2.68.9,6.67,2.16,11.76,3.72s11.28,3.45,18.39,5.57,15.13,4.52,23.91,7.07,18.26,5.33,28.33,8.16,20.68,5.82,31.68,8.6c2.75.69,5.52,1.37,8.31,2s5.6,1.26,8.32,1.72c.67.12,1.35.21,2,.28.31,0,.6.06.85.07h.42l-.19,0a2.71,2.71,0,0,0-.67.25,3.13,3.13,0,0,0-.73.52,4.06,4.06,0,0,0-.72,1,3,3,0,0,1,4-1.31,2.92,2.92,0,0,1,1.59,3.78,3,3,0,0,1-3.86,1.53,2.94,2.94,0,0,1-1.81-3.7l0-.06a6.42,6.42,0,0,0,.21-.84c.15-.62.29-1.25.41-1.88a81.4,81.4,0,0,0,1.13-8.08,85.83,85.83,0,0,0-3.17-33,62.67,62.67,0,0,0-7-15.09,58.5,58.5,0,0,0-10.81-12.56,68.78,68.78,0,0,0-13.76-9.28,78.66,78.66,0,0,0-7.55-3.42l-1.93-.75-2-.68c-1.3-.48-2.57-.79-3.85-1.24l-2.05-.58-1-.31-.43-.14-.49-.14c-1.3-.34-2.62-.64-3.94-.92-2.65-.57-5.29-1.06-7.92-1.45l-2-.29c-.65-.09-1.29-.18-1.92-.25-1.28-.14-2.56-.26-3.82-.34a69.14,69.14,0,0,0-7.48-.1,64.22,64.22,0,0,0-14,2.12,58.76,58.76,0,0,0-12.22,4.86,66.79,66.79,0,0,0-18,14.13A79.59,79.59,0,0,0,1050.67,555a59.22,59.22,0,0,0-4.73,10.38,16,16,0,0,0-.66,2.73,3.71,3.71,0,0,0,0,.47s-.07-.16,0,0l0,.07a1.33,1.33,0,0,1-.8,1.77A1.49,1.49,0,0,1,1042.59,569.52Z" transform="translate(-1.9)"/><path class="cls-2" d="M1098.52,542.91a21.2,21.2,0,0,1,.88-3.42,8.36,8.36,0,0,1,2.24-3.39,6.56,6.56,0,0,1,3.86-1.61,8.8,8.8,0,0,1,4,.62,9.12,9.12,0,0,1,3.25,2.29,9.4,9.4,0,0,1,1.91,3.48,10.62,10.62,0,0,1,.36,3.81,13.1,13.1,0,0,1-.83,3.55,10.3,10.3,0,0,1-4.69,5.13,9.08,9.08,0,0,1-3.18,1,7.51,7.51,0,0,1-3.3-.29,6.3,6.3,0,0,1-2.84-1.85,7.94,7.94,0,0,1-1.58-3A14.8,14.8,0,0,1,1098.52,542.91Zm2.94.71a10.31,10.31,0,0,0-.19,4.81,3.64,3.64,0,0,0,2.55,2.78,5.33,5.33,0,0,0,4.11-.66,6.21,6.21,0,0,0,2.71-3.46,7.18,7.18,0,0,0,.36-2.3,6.31,6.31,0,0,0-.36-2.2,4.86,4.86,0,0,0-2.83-2.92,4.48,4.48,0,0,0-4,.35,5.87,5.87,0,0,0-2.37,3.56Z" transform="translate(-1.9)"/><path class="cls-2" d="M1140.13,555a12.1,12.1,0,0,1,1.9-3.45,10.49,10.49,0,0,1,2.92-2.49,8.91,8.91,0,0,1,6.91-.89,7.13,7.13,0,0,1,3.07,1.84,6.87,6.87,0,0,1,1.77,3.24,9.84,9.84,0,0,1,.16,3.51,18.52,18.52,0,0,1-2,6.15,10.49,10.49,0,0,1-2.15,2.7,7.55,7.55,0,0,1-3.17,1.73,7.16,7.16,0,0,1-3.59,0,8.34,8.34,0,0,1-5.44-4.54,9.85,9.85,0,0,1-1-3.85A11.78,11.78,0,0,1,1140.13,555Zm4.12,1.43a6.09,6.09,0,0,0,.1,4.33,5,5,0,0,0,2.89,2.81,3.72,3.72,0,0,0,3.67-.64,6.65,6.65,0,0,0,1.44-1.68,11.91,11.91,0,0,0,1.55-4.64,5.74,5.74,0,0,0-.17-2.15,3.37,3.37,0,0,0-2.69-2.4A6.18,6.18,0,0,0,1144.25,556.44Z" transform="translate(-1.9)"/><circle class="cls-1" cx="99.9" cy="630.68" r="36.87"/><path class="cls-2" d="M166.12,653.28a34.6,34.6,0,0,0-8-18,37.29,37.29,0,0,0-16.89-11.07h0a.79.79,0,0,1-.58-.51l0-.12a112.14,112.14,0,0,0-7.49-17.17,63.76,63.76,0,0,0-11-14.53,59.42,59.42,0,0,0-14.63-10.48,86.12,86.12,0,0,0-8.28-3.79c-2.84-1.12-5.77-2.06-8.7-3s-5.93-1.71-8.94-2.46l-2.27-.53-1.11-.26-1-.21a25.56,25.56,0,0,0-4.06-.48c-.24,0-.52,0-.34,0a1.59,1.59,0,0,0,.4-.12,3.21,3.21,0,0,0,1.33-1,3.56,3.56,0,0,0,.71-2.55,4.32,4.32,0,0,0-.13-.61,2.73,2.73,0,0,0-.52-1,1.33,1.33,0,0,0-.17-.19l0,0,.07.06.46.4.92.8c1.23,1,2.43,2.16,3.63,3.27s2.36,2.27,3.52,3.43,2.24,2.4,3.3,3.67a64.58,64.58,0,0,1,5.94,8,55.48,55.48,0,0,1,4.64,8.79,57,57,0,0,1,4.47,19v.24a.78.78,0,0,1-.73.83h-.08a15.94,15.94,0,0,1-5.41,3.18,23,23,0,0,1-5.49,1.28,27.58,27.58,0,0,1-5.45,0c-1.81-.13-3.61-.28-5.41-.44-3.59-.33-7.18-.68-10.75-1.18s-7.12-1.14-10.67-1.8l-2.65-.51-2.64-.6c-1.76-.41-3.52-.83-5.26-1.28-3.51-.84-7-1.91-10.41-3a105.84,105.84,0,0,1-19.87-8.64l1.23-.91h0a6.37,6.37,0,0,0,1.59,1.83,25.84,25.84,0,0,0,2.2,1.73c1.55,1.1,3.18,2.16,4.85,3.17s3.36,2,5,3.05l5.11,3L47,618.36c3.49,2,7,3.94,10.46,6.13h0l.09,0a.9.9,0,0,1-.47,1.7c-7.24-.31-14.48-.81-21.69-1.74a203.65,203.65,0,0,1-21.4-4l-2.62-.64c-.82-.17-1.71-.29-2.58-.39a19,19,0,0,0-2.57-.13,1.85,1.85,0,0,0-.38,0s.12,0,.34-.33a.82.82,0,0,0,0-.61.5.5,0,0,0-.12-.22c-.08-.09,0,0,0,0l1.17.68,9.36,5.48c6.23,3.64,12.54,7.13,19.07,10.15a135.74,135.74,0,0,0,20.15,7.55,123.5,123.5,0,0,0,21.13,4c3.56.39,7.15.59,10.74.67l2.74.06a6.34,6.34,0,0,1,3.08.86,3,3,0,0,1,1.25,1.55,3.07,3.07,0,0,1,0,2,4.86,4.86,0,0,1-.81,1.46l-.83,1.09A74.3,74.3,0,0,1,77.5,669.15a60.63,60.63,0,0,1-9.58,5.5,66.58,66.58,0,0,1-10.43,3.68,91.87,91.87,0,0,1-21.8,2.78c-1.83,0-3.66.06-5.49,0-.92,0-1.83,0-2.74-.07l-1.37,0-.68,0h-.47c-.11,0-.25.07,0,0a1.11,1.11,0,0,0,.34-.24,1.55,1.55,0,0,0,.43-.81,1.33,1.33,0,0,0-.21-1c-.1-.14,0,0,.09,0a4.81,4.81,0,0,0,.42.24l2.39,1.21c1.59.79,3.2,1.56,4.83,2.28a104.51,104.51,0,0,0,20.13,6.76,85.9,85.9,0,0,0,10.41,1.72,77.89,77.89,0,0,0,10.46.44,71.38,71.38,0,0,0,10.34-1,71.63,71.63,0,0,0,19.58-6.34A75.72,75.72,0,0,0,113,679c.72-.46,1.4-1,2.09-1.51s1.4-1,2.06-1.57c1.33-1.1,2.68-2.18,4-3.33a96.52,96.52,0,0,0,7.46-7.27l-.3.37a65.86,65.86,0,0,1,7.67-9.06,32.62,32.62,0,0,1,10.27-7,23.57,23.57,0,0,1,6.26-1.57,23,23,0,0,1,6.37.23A28.35,28.35,0,0,1,164.8,650c.94.38,1.86.8,2.75,1.26l.67.33a1.55,1.55,0,0,0-.48-.06,1.76,1.76,0,0,0-.84.27,1.73,1.73,0,0,0-.66.76A1,1,0,0,0,166.12,653.28Zm4.68-.77a3.84,3.84,0,0,1-.28,2.06,3.12,3.12,0,0,1-1.1,1.26,3,3,0,0,1-1.48.47,3.85,3.85,0,0,1-1.83-.38l-.61-.26c-.81-.36-1.62-.66-2.44-.94a23.71,23.71,0,0,0-4.95-1.12,16.22,16.22,0,0,0-9.4,1.62,28.1,28.1,0,0,0-7.85,6.21,70.41,70.41,0,0,0-6.48,8.45l-.27.35,0,0a86.5,86.5,0,0,1-17,14.85l-2.39,1.53c-.8.5-1.64,1-2.46,1.43-1.62,1-3.35,1.76-5,2.6a81.12,81.12,0,0,1-10.66,3.94,75.66,75.66,0,0,1-22.35,2.66,84.19,84.19,0,0,1-11.13-1,88.49,88.49,0,0,1-10.85-2.38,99.76,99.76,0,0,1-10.47-3.52c-3.41-1.36-6.8-2.76-10.08-4.39-1.65-.79-3.28-1.64-4.89-2.5l-2.42-1.3a7.55,7.55,0,0,1-.72-.45,3.65,3.65,0,0,1-.87-.82,1.94,1.94,0,0,1-.38-1.5,1.87,1.87,0,0,1,.53-1,2.06,2.06,0,0,1,.57-.39,3.17,3.17,0,0,1,1.24-.27,8.21,8.21,0,0,1,.86,0l.68,0,1.34.08c.89.06,1.78.1,2.68.13,1.78.07,3.57.09,5.35.09a92.47,92.47,0,0,0,10.66-.7,65.29,65.29,0,0,0,10.4-2.05,58.41,58.41,0,0,0,9.83-3.7,57,57,0,0,0,8.85-5.47,68.62,68.62,0,0,0,14.25-15.05l.76-1.07a.7.7,0,0,0,.13-.22s0,0,0,0a1.32,1.32,0,0,0,0,.91,1.81,1.81,0,0,0,.54.85c.18.12-.29,0-.84,0l-2.58,0c-1.86,0-3.72,0-5.58,0s-3.72-.19-5.58-.37a114.59,114.59,0,0,1-22-4,138.8,138.8,0,0,1-20.85-8,209.19,209.19,0,0,1-19.3-10.68c-3.12-1.88-6.16-3.84-9.21-5.73L3.93,622l-.42-.28a4.11,4.11,0,0,1-.75-.7,3.57,3.57,0,0,1-.46-4,3.5,3.5,0,0,1,1.22-1.35,3.25,3.25,0,0,1,.71-.37,4.48,4.48,0,0,1,1.16-.28A5,5,0,0,1,6,615a21.55,21.55,0,0,1,3.23.23,29.84,29.84,0,0,1,3,.55l2.66.73c3.44,1,6.9,1.87,10.37,2.67s7,1.54,10.48,2.2c7,1.33,14.19,2.14,21.37,3l-.38,1.74h0A78.34,78.34,0,0,1,45,622.6c-1.92-.74-3.82-1.52-5.68-2.4-.93-.43-1.86-.86-2.78-1.32l-2.74-1.44-2.7-1.5q-1.34-.81-2.64-1.65a57.78,57.78,0,0,1-5.06-3.69,37,37,0,0,1-4.54-4.49A18.18,18.18,0,0,1,17,603.38a6.6,6.6,0,0,1-1-3.58h0a.89.89,0,0,1,.79-1,1,1,0,0,1,.39,0l0,0a170.67,170.67,0,0,0,20.25,6c6.87,1.62,13.82,2.89,20.81,3.94s14,1.83,21.05,2.38c3.52.28,7,.49,10.57.61a94.14,94.14,0,0,0,10.5-.07h0l-.8,1.07c-1-3-2.08-5.93-3.34-8.76-.28-.71-.62-1.41-.95-2.1s-.64-1.4-1-2.07l-1-2c-.36-.67-.76-1.32-1.14-2A77.42,77.42,0,0,0,81,581.53c-1-1.11-2.15-2.15-3.25-3.21s-2.21-2.12-3.35-3.14-2.3-2-3.5-3l-.89-.74-.44-.37-.16-.14-.24-.21a5.5,5.5,0,0,1-.58-.63,4.42,4.42,0,0,1-.81-1.51,4.09,4.09,0,0,1-.15-.76,3.72,3.72,0,0,1,0-1,4.16,4.16,0,0,1,.82-2,4.41,4.41,0,0,1,1.81-1.38,5.27,5.27,0,0,1,1-.29,9.06,9.06,0,0,1,2-.15,33.85,33.85,0,0,1,5.36.66l1.29.28,1.19.29,2.36.58c3.13.82,6.26,1.68,9.36,2.69a97.32,97.32,0,0,1,18,7.9,63,63,0,0,1,15.52,12.46,61,61,0,0,1,10.47,16.71,89.42,89.42,0,0,1,5.54,18.51l-.63-.64h0a23.15,23.15,0,0,1,11.5,1.6,28.16,28.16,0,0,1,9.87,6.64A24.47,24.47,0,0,1,169.05,641,52,52,0,0,1,170.8,652.51Z" transform="translate(-1.9)"/><path class="cls-2" d="M1005.53,217.45l-.3-.75a17.18,17.18,0,0,1-.83-2.31,20.81,20.81,0,0,1-.82-3.9,24.07,24.07,0,0,1,0-5l.15-1.38.28-1.41.15-.72.2-.72.42-1.46a32.12,32.12,0,0,1,2.68-5.84,29.92,29.92,0,0,1,4.18-5.39l1.28-1.21c.45-.38.93-.73,1.39-1.1l.35-.27a2.2,2.2,0,0,1,.88-.4,2.23,2.23,0,0,1,1.91.53,2.49,2.49,0,0,1,.34.38l.05.11.11.21.19.38.37.74a8.36,8.36,0,0,1,.4.79l.36.83a14.76,14.76,0,0,1,.63,1.66l.3.83.24.85c.15.56.33,1.12.43,1.68a27.89,27.89,0,0,1,.69,6.81,15.44,15.44,0,0,1-.08,1.67l-.19,1.64c-.07.54-.21,1.07-.32,1.59l-.17.78c-.06.26-.15.51-.23.76l-.49,1.49c-.19.47-.43.9-.63,1.39a19,19,0,0,1-1.4,2.54,10,10,0,0,1-.83,1.11l-.82,1a9.17,9.17,0,0,1-.84.92l-.84.82a14.16,14.16,0,0,1-1.63,1.36l-.75.57-.35.27-.3.15a2.53,2.53,0,0,1-.37.18l-.23.12-.19.09a2.38,2.38,0,0,1-.38.11,4.4,4.4,0,0,1-4.76-2l-.2-.39-.06-.12Zm4.44-2.17a.31.31,0,0,0-.05-.1.25.25,0,0,0-.15-.08h-.13l-.08,0-.13.07,0,0,.05,0,.29-.19.63-.42a12,12,0,0,0,1.38-1l.71-.61a4.72,4.72,0,0,0,.74-.67l.72-.76a5.65,5.65,0,0,0,.71-.83,14.29,14.29,0,0,0,1.32-1.93c.19-.35.41-.7.61-1.07l.51-1.19c.08-.2.19-.4.26-.61l.2-.64c.12-.43.27-.83.39-1.32l.29-1.38c.11-.47.11-1,.18-1.44a21.24,21.24,0,0,0-.25-6.06c-.07-.51-.22-1-.33-1.53l-.19-.77-.24-.76c-.15-.5-.33-1-.53-1.48l-.3-.71-.17-.34-.78-1.55,0,.07a.42.42,0,0,0,.35.1l.12-.06-.31.25c-.4.34-.82.65-1.21,1l-1.12,1.09a23.36,23.36,0,0,0-3.5,5,26,26,0,0,0-1.94,5.33l-.24,1.31-.11.63-.06.64-.12,1.22v1.18a20.53,20.53,0,0,0,.4,4.14,18,18,0,0,0,.86,2.94,13.11,13.11,0,0,0,.86,1.91l.3.6Z" transform="translate(-1.9)"/><circle class="cls-3" cx="1055" cy="236.67" r="24.05"/><path class="cls-2" d="M1051.62,237.84l-.62-1.38-.34-.67a7.91,7.91,0,0,1-.29-.78l-.54-1.6c-.16-.53-.27-1-.4-1.58l-.19-.8-.12-.81c-.07-.54-.17-1.08-.2-1.63l-.12-1.62c0-.55,0-1.09,0-1.64s0-1.09.11-1.63.12-1.09.21-1.63.16-1.08.31-1.62.24-1.07.41-1.59.29-1.05.49-1.56.36-1,.61-1.55.45-1,.68-1.51l.39-.74.36-.67,1,3.5a23.44,23.44,0,0,0-13.25-2.08,25.84,25.84,0,0,0-6.62,1.83l-1.73.77-.68.33a6.71,6.71,0,0,0-.68.4,15.68,15.68,0,0,0-1.4.95c-.45.36-.91.7-1.35,1.07a57.22,57.22,0,0,0-5.16,5.17c-.88.94-1.76,1.91-2.81,2.89-.28.24-.54.49-.84.73s-.62.49-1,.73l-.58.35-.3.15-.36.18a6.79,6.79,0,0,1-1,.39l-.66.21-.56.14c-.37.08-.73.16-1.08.21-.7.12-1.37.2-2,.29l-3.8.38q-1.85.2-3.57.51a19.41,19.41,0,0,0-3.26.89,18.07,18.07,0,0,0-3.05,1.52c-.46.31-.9.58-1.36.9a16.62,16.62,0,0,0-1.37,1,24.2,24.2,0,0,0-7.6,11.3c-.17.55-.35,1.1-.47,1.67l-.21.84-.14.85a16.18,16.18,0,0,0-.24,1.72l0,.43v.11c0,.08,0,0,0,0l0,0v.23l0,1a28.49,28.49,0,0,0,.64,6.95,37,37,0,0,0,2.2,6.8,51.43,51.43,0,0,0,7.74,12.32,64.44,64.44,0,0,0,10.66,10.15,55.59,55.59,0,0,0,6.13,4.06c1,.58,2.2,1.2,3.29,1.76s2.22,1.13,3.33,1.62a29.08,29.08,0,0,0,6.74,2.27c.56.13,1.11.14,1.67.23.27,0,.55,0,.82,0a4.39,4.39,0,0,0,.81,0,8.09,8.09,0,0,0,3-.71l.64-.32.82-.48a4.73,4.73,0,0,0,.68-.46,7.37,7.37,0,0,0,.65-.49,20.51,20.51,0,0,0,2.52-2.41c.82-.91,1.66-1.9,2.6-2.88a23.11,23.11,0,0,1,6.61-4.91l.49-.25.43-.21a5.42,5.42,0,0,1,.91-.39l1-.39c.34-.12.67-.21,1-.31a22.58,22.58,0,0,1,4.06-.79c1.33-.13,2.64-.19,3.85-.29a17.51,17.51,0,0,0,3.44-.56l.8-.24.8-.31c.26-.1.51-.26.76-.38l.38-.19.17-.09.21-.1.82-.49.59-.46a5.07,5.07,0,0,0,.61-.52,7.8,7.8,0,0,0,.58-.57,13.46,13.46,0,0,0,1.94-2.74,22.35,22.35,0,0,0,1.37-3.23,35.59,35.59,0,0,0,.93-3.52c.26-1.2.49-2.42.7-3.66l.34-1.82c.09-.57.17-1.25.26-1.87a56.71,56.71,0,0,0,.42-7.37c0-1.24-.06-2.47-.15-3.71,0-.61-.1-1.23-.17-1.84l-.11-.91-.13-1,1.73,1.45-.16,0h-.24l-.47,0c-.3,0-.61,0-.92,0-.61,0-1.21,0-1.82-.08s-1.2-.13-1.8-.19-1.19-.21-1.78-.32-1.18-.28-1.76-.43-1.16-.38-1.74-.56-1.12-.45-1.69-.68a13.67,13.67,0,0,1-1.63-.8,14.55,14.55,0,0,1-1.58-.93c-.51-.34-1-.67-1.51-1l-1.4-1.18a13.09,13.09,0,0,1-1.3-1.28l-.68-.63-.31-.34c-.1-.11-.19-.24-.28-.36l-1.1-1.46a11.94,11.94,0,0,1-1-1.53l-.88-1.56,0-.08Zm2.88-1.39.82,1.38a10.33,10.33,0,0,0,.85,1.33l1,1.27a1.72,1.72,0,0,0,.24.31l.28.29.54.57a11.74,11.74,0,0,0,1.13,1.1l1.2,1c.43.31.87.58,1.31.88a10,10,0,0,0,1.35.77,11.4,11.4,0,0,0,1.41.68c.49.19,1,.44,1.47.59s1,.34,1.52.48,1,.26,1.57.36l1.57.27a9.63,9.63,0,0,0,1.59.16c.53,0,1.06.06,1.59.06.27,0,.52,0,.78,0l.39,0,.46,0a1.61,1.61,0,0,1,1.71,1.36l0,.08.14.93.12,1c.08.66.14,1.32.2,2,.12,1.34.16,2.61.18,3.92a59,59,0,0,1-.41,7.86c-.09.64-.15,1.23-.26,1.92l-.3,1.9c-.2,1.27-.43,2.55-.71,3.84s-.61,2.57-1,3.86a25.06,25.06,0,0,1-1.58,3.79,16.36,16.36,0,0,1-2.42,3.47,8,8,0,0,1-.78.76,7.33,7.33,0,0,1-.84.73l-.93.69-.82.49-.21.1-.87.44a9.09,9.09,0,0,1-1,.43l-1,.39-1,.32a22.48,22.48,0,0,1-4.08.71c-1.32.13-2.57.19-3.76.33a19,19,0,0,0-3.41.71c-.56.16-1.08.37-1.59.57-.24.08-.55.28-.84.37l-.43.21-.26.14h0l-.1.05a19.46,19.46,0,0,0-5.53,4.21c-.82.87-1.61,1.84-2.48,2.83a25.15,25.15,0,0,1-3,2.88,18.27,18.27,0,0,1-1.76,1.27l-.82.5-.17.08-.35.18-.51.26a12.49,12.49,0,0,1-4.33,1.08,7.88,7.88,0,0,1-1.09.05l-1.09,0a17.65,17.65,0,0,1-2.11-.25,34,34,0,0,1-7.73-2.47c-1.21-.53-2.39-1.1-3.56-1.69s-2.27-1.15-3.46-1.8a59.06,59.06,0,0,1-6.66-4.3,69,69,0,0,1-11.55-10.71,55.51,55.51,0,0,1-8.59-13.24,36.7,36.7,0,0,1-3.43-15.87,29.19,29.19,0,0,1,10.43-21.93c.53-.46,1.11-.86,1.66-1.28s1.21-.81,1.82-1.2l.83-.48.42-.21.21-.11.32-.16,1-.49c.33-.17.68-.27,1-.41a25.3,25.3,0,0,1,4.09-1.13c1.35-.27,2.68-.45,4-.61l3.77-.38c.59-.08,1.19-.15,1.74-.25.28,0,.53-.11.79-.17a3.47,3.47,0,0,1,.36-.08l.25-.08a4.4,4.4,0,0,0,.76-.29l.06,0,.12-.06.24-.12a4.89,4.89,0,0,0,.55-.41c.19-.14.4-.36.59-.53.81-.76,1.65-1.67,2.5-2.6a59.84,59.84,0,0,1,5.6-5.66c.53-.45,1-.89,1.63-1.31s1.15-.82,1.75-1.2a10.67,10.67,0,0,1,1-.57l1-.54,1.75-.78a30.9,30.9,0,0,1,8-2.28,27.39,27.39,0,0,1,8.43.1,24.4,24.4,0,0,1,7.92,2.92l.19.1a2.38,2.38,0,0,1,.87,3.25l-.09.15-.39.6-.36.57c-.23.39-.47.78-.67,1.19s-.43.82-.63,1.23-.37.85-.56,1.27-.32.86-.49,1.3-.25.88-.4,1.33a13.2,13.2,0,0,0-.32,1.35,9.45,9.45,0,0,0-.26,1.39c-.05.46-.13.92-.14,1.39l0,1.4c0,.47.06.93.09,1.39l0,.67.12.67c.09.45.15.92.26,1.36l.4,1.28a4.2,4.2,0,0,0,.21.66l.33.7.62,1.38,0-.08Z" transform="translate(-1.9)"/><path d="M355,882.74a78,78,0,0,0-5.56-8c-2-2.61-4.13-5.19-6.32-7.7-4.23-5.13-9.56-9.35-14.06-14.28-8.75-9.93-17.76-19.86-26.67-29.78l-53.21-59.91-13.31-15-6.69-7.49-1.68-1.9c-.53-.62-1.06-1.21-1.6-1.78a33.46,33.46,0,0,0-3.33-3.13c-2.3-1.86-4.81-3.11-7-3s-4.71,1.5-7.16,3.34-4.89,4.06-7.32,6.3-4.86,4.56-7.37,6.84l-30.06,26.57-15,13.22a18.17,18.17,0,0,0-4.9,6.25,7.5,7.5,0,0,0-.5,3,11.65,11.65,0,0,0,.81,3.45,37.1,37.1,0,0,0,4.35,7.67c1.79,2.57,3.88,5,5.67,7.8.91,1.36,1.85,2.74,2.87,4.06s2,2.64,3.14,3.89l6.65,7.47,26.69,29.85,53.51,59.64,13.36,14.94q3.3,3.76,6.58,7.58l3.23,3.85a34.17,34.17,0,0,0,3.09,3.33,13.08,13.08,0,0,0,3.25,2.35,4.72,4.72,0,0,0,2.86.56,7.66,7.66,0,0,0,3.09-1.51,43.9,43.9,0,0,0,3.56-3c2.55-2.32,5.09-4.45,7.62-6.65l7.62-6.51c10.22-8.61,20.32-17.36,30.67-25.77,5.21-4.19,10.33-8.25,14.93-12.72a51.47,51.47,0,0,0,6.22-7c1.72-2.44,3-5.14,2.22-7Zm3.61-2.11a7.47,7.47,0,0,1,1.22,3.19,10.44,10.44,0,0,1-.1,3.22,19.24,19.24,0,0,1-2,5.41,48.08,48.08,0,0,1-6.14,8.69,142.08,142.08,0,0,1-14.79,14.12c-10.17,8.68-20.63,17-30.95,25.45L298.1,947c-2.58,2.1-5.2,4.2-7.64,6.31-1.25,1.09-2.55,2.28-4.12,3.41a14.33,14.33,0,0,1-5.91,2.67,10.54,10.54,0,0,1-3.63,0,12.28,12.28,0,0,1-3.24-1,22,22,0,0,1-5-3.29,41.75,41.75,0,0,1-3.91-3.83l-3.36-3.68-6.71-7.42-13.31-15L188,865.44l-26.55-30c-2.22-2.5-4.4-5-6.59-7.56s-4.6-4.82-7.11-7.18a52.65,52.65,0,0,1-6.71-7.94c-1-1.43-2-2.94-3-4.53a31.81,31.81,0,0,1-2.5-5.21,20.44,20.44,0,0,1-1.29-6.29,16.08,16.08,0,0,1,1.27-6.76,21,21,0,0,1,3.4-5.32,37,37,0,0,1,4-4l15.37-12.93L189,742c2.49-2.15,5-4.37,7.48-6.61a103.08,103.08,0,0,1,8-6.57,30.53,30.53,0,0,1,4.82-2.87,14.81,14.81,0,0,1,6.17-1.51,14.43,14.43,0,0,1,6.21,1.43,22.86,22.86,0,0,1,4.86,3.16,39,39,0,0,1,3.91,3.78c.59.65,1.17,1.31,1.73,2l1.63,1.86,6.63,7.46,13.46,14.83,54,59.17L321.28,833c4.43,5,9,9.93,13.29,15.09s7.59,11.11,11.89,16.25l6.29,7.86a100.34,100.34,0,0,1,6.1,8.32Z" transform="translate(-1.9)"/><path d="M227,746.84c.29.25.36.34.52.49l.38.4.73.79,1.44,1.58c.94,1.07,1.92,2.09,2.88,3.13,1.93,2.07,3.9,4.1,5.88,6.13s3.94,4.06,6,6,4.2,3.83,6.22,5.82,3.89,4.12,5.79,6.21l5.68,6.31,11.34,12.63q22.56,25.38,44.66,51.16,11.1,12.87,22,25.93c1.8,2.2,3.63,4.37,5.39,6.7.45.6.88,1.18,1.34,1.88.11.17.23.35.35.58s.13.23.2.38a3.12,3.12,0,0,1,.27.69,2.92,2.92,0,0,1,.07,1.16,3.48,3.48,0,0,1-.21.71,3.76,3.76,0,0,1-.32.62,6.3,6.3,0,0,1-.46.65,43.7,43.7,0,0,1-3.12,3.36c-4.13,4-8.35,7.81-12.6,11.59Q318.73,913,305.64,923.88c-4.35,3.63-8.74,7.24-13.18,10.79q-3.33,2.67-6.74,5.28c-1.14.87-2.29,1.74-3.48,2.6-.59.43-1.2.85-1.84,1.28l-1,.64a14.13,14.13,0,0,1-1.26.7l-.5.21-.4.14a5.16,5.16,0,0,1-.69.14,3.7,3.7,0,0,1-2.09-.32,4,4,0,0,1-.9-.58l-.22-.19-.14-.14c-.35-.32-.6-.58-.87-.85L270.82,942c-1-1-2-2.07-2.92-3.12l-5.72-6.3a82.92,82.92,0,0,1-5.49-6.49c-1.72-2.26-3.42-4.54-5.29-6.66-7.64-8.36-15.18-16.8-22.74-25.22q-22.65-25.29-45-50.86l-11.12-12.84c-3.7-4.29-7.38-8.6-10.92-13.07-1.77-2.24-3.52-4.45-5.24-6.89-.22-.31-.44-.62-.66-1-.11-.17-.23-.36-.36-.58l-.21-.39-.15-.33a3.51,3.51,0,0,1-.19-.64,3.29,3.29,0,0,1,0-.89,3.9,3.9,0,0,1,.11-.59,3.71,3.71,0,0,1,.25-.65,5,5,0,0,1,.43-.79,13,13,0,0,1,.76-1.07c1-1.26,2-2.31,3-3.39,4-4.21,8-8.18,12.14-12.12s8.28-7.79,12.5-11.59,8.46-7.58,12.81-11.25,8.78-7.23,13.51-10.45c2.39-1.58,4.79-3.15,7.27-4.63,1.25-.74,2.49-1.47,3.79-2.18.66-.35,1.32-.7,2-1a10.35,10.35,0,0,1,1.21-.45,3.94,3.94,0,0,1,.83-.16A2.27,2.27,0,0,1,227,746.84Zm-1.92,2.44a1,1,0,0,0,.61.25,1.64,1.64,0,0,0-.2.07,6.18,6.18,0,0,0-.75.36,16,16,0,0,0-1.66,1c-1.11.77-2.2,1.62-3.27,2.52-2.14,1.78-4.23,3.65-6.31,5.54-4.18,3.75-8.49,7.35-12.76,11s-8.59,7.29-12.85,11-8.47,7.45-12.63,11.23-8.3,7.63-12.07,11.65a39.66,39.66,0,0,0-2.58,3,7.45,7.45,0,0,0-.46.67l-.08.14a.5.5,0,0,0,.06-.16,1.64,1.64,0,0,0,.06-.33,2.66,2.66,0,0,0,0-.63,3.07,3.07,0,0,0-.1-.39l0-.08,0,.07.21.32.56.76c1.63,2.11,3.48,4.27,5.3,6.4l11,12.85,11.07,12.84q22.26,25.58,44.79,51l22.55,25.35c1.91,2.08,4,4,6.08,5.94s4,4,5.9,6.08l5.73,6.22,2.86,3.1,1.41,1.5.63.65,0,0,0,0a2.79,2.79,0,0,0-.68-.42,3.18,3.18,0,0,0-1.83-.3,3.63,3.63,0,0,0-.44.08l-.14,0h0a6.23,6.23,0,0,0,.6-.33l.79-.49,1.66-1.11c1.13-.77,2.26-1.58,3.39-2.4,2.25-1.64,4.5-3.33,6.74-5q6.71-5.12,13.34-10.38c8.84-7,17.61-14.13,26.23-21.39,4.29-3.64,8.6-7.31,12.65-11.09a37,37,0,0,0,2.73-2.78l.15-.21-.07.16a1.82,1.82,0,0,0-.12.45,2,2,0,0,0,0,.9c.06.22.07.2.07.2l0-.09a3.27,3.27,0,0,0-.19-.32c-.31-.5-.71-1.06-1.11-1.6-1.62-2.2-3.38-4.41-5.16-6.58-7.13-8.71-14.63-17.19-22.07-25.69s-15-16.9-22.57-25.32l-22.68-25.23-11.3-12.65-5.66-6.32c-1.88-2.11-3.8-4.18-5.57-6.4s-3.44-4.5-5.16-6.76-3.55-4.41-5.38-6.57-3.67-4.3-5.58-6.39c-1-1-1.89-2.1-2.88-3.1l-1.47-1.51-.73-.74-.36-.35Z" transform="translate(-1.9)"/><circle cx="168.39" cy="778.15" r="1.72"/><ellipse cx="183.63" cy="766.6" rx="9.57" ry="3.83" transform="translate(-458.91 307.29) rotate(-40.89)"/><rect class="cls-3" x="207.24" y="737.55" width="156.55" height="145.56" rx="3.91" transform="translate(-474.33 405.77) rotate(-42.5)"/><rect class="cls-3" x="329.67" y="134.48" width="169.15" height="94.17" rx="3.45" transform="translate(59.08 -100.88) rotate(14.98)"/><path class="cls-2" d="M353.85,256c14.72,3.79,30,5.35,44.64,9.49l22,6,11,3,10.95,3.16,43.78,12.67,21.89,6.35L519,299.89l5.52,1.39,5.56,1.26,22.23,5,11.14,2.47.69.16.35.07c.11,0,.28.07.18,0a1.12,1.12,0,0,0-.52-.06,1.51,1.51,0,0,0-1,.53,2.12,2.12,0,0,0-.36.57c-.08.27,0-.15.08-.4l.19-.81.75-3.22c2-8.59,4.09-17.14,6.12-25.71,1-4.29,2.11-8.56,3.21-12.82l3.3-12.8c2.13-8.54,4.52-17,6.87-25.51s4.65-17,7.2-25.43,4.94-16.91,7.5-25.35l3.8-12.66,1-3.16.48-1.58.24-.79.1-.36a.37.37,0,0,0,0,.11,1.08,1.08,0,0,0,.82,1.23l-21.84-6.55c-7.26-2.24-14.7-3.81-22.09-5.58l-44.29-10.74c-14.77-3.6-29.54-7.13-44.27-10.84l-11.06-2.76c-3.68-.92-7.34-1.94-11-2.9l-22-5.88-10.95-3.15c-3.63-1.13-7.27-2.19-10.88-3.38l-10.84-3.57-1.19-.4a1.3,1.3,0,0,0,.51-.08,1.35,1.35,0,0,0,.75-.66,1.48,1.48,0,0,0,.17-.47c0-.22-.08.18-.16.42l-.25.79-1,3.16c-5.46,16.77-10.35,33.7-15,50.68-2.37,8.49-4.77,17-7.05,25.47s-4.68,17-6.84,25.52l-6.63,25.58-3.32,12.79-1.55,6A.42.42,0,0,0,353.85,256Zm-1.9,6.63a6.78,6.78,0,0,1-4.14-3.36,8.78,8.78,0,0,1-.86-5.74l.16-.74.11-.41.22-.78.43-1.55.85-3.09,3.42-12.38L359,209.83c2.32-8.24,4.42-16.54,6.63-24.82s4.29-16.58,6.42-24.87c4.3-16.58,8.39-33.21,11.92-50l.69-3.14.18-.78a10.36,10.36,0,0,1,.28-1.13,11.23,11.23,0,0,1,1.62-3.27A9.64,9.64,0,0,1,392.38,98a8.08,8.08,0,0,1,3.32,0l1.54.32,11,2.29c3.67.76,7.3,1.65,11,2.47l10.9,2.7,21.68,5.82c3.61,1,7.24,1.91,10.84,2.93l10.79,3.09c14.41,4.07,28.76,8.33,43.14,12.51l43.11,12.61c7.18,2.12,14.31,4.43,21.61,6.1L603.14,154a8,8,0,0,1,5,3.89,10.46,10.46,0,0,1,1.15,6.87c0,.29-.11.59-.18.89l-.1.43-.18.78-.37,1.56-.74,3.13L604.74,184c-1.94,8.35-4,16.66-6,25s-4.14,16.62-6.27,24.91-4.24,16.59-6.6,24.83l-3.43,12.37c-1.14,4.13-2.28,8.26-3.52,12.36-2.45,8.21-4.83,16.44-7.33,24.63l-.94,3.08-.59,1.91a11.9,11.9,0,0,1-1.81,3.37,9.8,9.8,0,0,1-5.94,3.72,8.05,8.05,0,0,1-3.32-.11c-.33-.08-.39-.11-.5-.14l-.34-.11-.67-.21-10.72-3.36-21.47-6.62L519.94,308l-5.4-1.53-10.9-2.69-21.81-5.35-43.61-10.73-10.9-2.7-10.87-2.82-21.72-5.67C380.22,272.82,366.37,266.66,352,262.65Z" transform="translate(-1.9)"/><path class="cls-2" d="M409.07,256.52c-6.08-1.34-12.27-2.72-18.46-4.21s-12.4-3.12-18.48-4.79l-.05,0a3.28,3.28,0,0,1-2.29-4h0l8.35-30.24,4.18-15.12c1.41-5,2.75-10.09,4.26-15.1s3.13-10,4.53-15,2.6-10.13,3.86-15.21c2.48-10.16,4.8-20.36,6.86-30.64a3.48,3.48,0,0,1,4.1-2.74l.22,0,.22.06,34.31,9.32h0a3.56,3.56,0,0,1,2.5,4.37l-8.39,30.91L426.33,195l-4.16,15.56c-1.4,5.18-2.89,10.27-4.33,15.4C414.92,236.21,412,246.44,409.07,256.52Zm-3.49-6c2.46-10.12,5-20.09,7.45-30.07,1.26-5,2.48-10,3.78-14.91l3.95-14.75,7.72-29.71,7.82-29.7,2.53,4.38-34.38-9,4.55-2.63c-3.35,9.93-6.43,19.93-9.36,30-1.44,5-2.93,10-4.25,15.1s-2.39,10.19-3.57,15.29-2.55,10.14-3.85,15.2L384,214.8l-7.86,30.37-2.34-4c5.36,1.39,10.62,2.81,15.87,4.4S400.22,248.77,405.58,250.49Z" transform="translate(-1.9)"/><path class="cls-2" d="M457.46,269.47c-6.1-1.37-12.28-2.74-18.48-4.3s-12.36-3.19-18.4-4.93l-.11,0a3,3,0,0,1-2.07-3.74l3.42-12c1.07-4,2.72-7.86,3.84-11.85s1.95-8.06,2.82-12.12,1.61-8.15,2.16-12.29a3.29,3.29,0,0,1,3.7-2.83,3,3,0,0,1,.43.08l.42.12c5.71,1.58,11.41,3.19,17.14,4.72L469.48,215h0a3.51,3.51,0,0,1,2.46,4.29h0l-3.48,12.62c-1.19,4.2-2.23,8.5-3.42,12.75s-2.48,8.39-3.74,12.55S458.76,265.44,457.46,269.47Zm-3.49-6q1.27-6,2.56-11.78c.88-3.85,1.73-7.7,2.69-11.47s2-7.47,3-11.29l2.94-11.41,2.49,4.31-17.18-4.53c-5.73-1.53-11.47-3-17.21-4.47l4.55-2.62c-1.59,3.86-3,7.79-4.27,11.73s-2.54,7.9-3.61,11.91S428.43,242,427.35,246l-3,12.07-2.18-3.77c5.4,1.32,10.68,2.73,15.94,4.26S448.62,261.73,454,263.43Z" transform="translate(-1.9)"/><path class="cls-2" d="M505.85,282.41c-6.09-1.34-12.27-2.73-18.47-4.22s-12.38-3.14-18.47-4.81h-.05a3.26,3.26,0,0,1-2.27-4h0L474.18,242l3.8-13.71c1.27-4.56,2.48-9.15,3.9-13.67s2.89-9,4.13-13.62q.92-3.44,1.75-6.89c.57-2.3,1.16-4.6,1.7-6.91,2.23-9.22,4.3-18.47,6.11-27.8a3.47,3.47,0,0,1,4.08-2.75l.24.06.23.06,17.15,4.68L534.43,166h0a3.54,3.54,0,0,1,2.5,4.36h0l-7.63,28.08c-2.55,9.37-5.2,18.68-7.72,28.08-1.26,4.71-2.48,9.46-3.78,14.14s-2.65,9.32-4,14C511.2,264,508.55,273.27,505.85,282.41Zm-3.49-6c2.2-9.18,4.45-18.21,6.7-27.24,1.13-4.5,2.22-9,3.39-13.5s2.37-8.89,3.56-13.34c2.38-8.91,4.63-17.92,7-26.86l7.07-26.87,2.52,4.37-17.18-4.55-17.2-4.5,4.55-2.62c-3.09,9-5.91,18-8.58,27.14-.69,2.27-1.32,4.55-2,6.83s-1.31,4.56-1.92,6.85c-1.21,4.58-2.19,9.23-3.23,13.86s-2.27,9.2-3.44,13.8L480,243.52l-7.1,27.54-2.33-4c5.37,1.39,10.63,2.79,15.88,4.38S497,274.66,502.36,276.38Z" transform="translate(-1.9)"/><path class="cls-2" d="M554.24,295.36c-6.09-1.35-12.27-2.74-18.47-4.23s-12.38-3.15-18.46-4.84h-.06a3.22,3.22,0,0,1-2.24-4h0l6.66-24,3.33-12c1.1-4,2.22-8,3.51-11.94s2.53-7.9,3.58-11.91,2-8,3-12.08c1.91-8.07,3.69-16.18,5.21-24.35a3.45,3.45,0,0,1,4-2.76l.27.06.25.07L562,188.14l17.16,4.64h0a3.55,3.55,0,0,1,2.5,4.35h0l-6.71,24.64c-2.24,8.22-4.58,16.38-6.78,24.66-1.09,4.14-2.18,8.3-3.33,12.4l-3.51,12.24C559,279.22,556.63,287.36,554.24,295.36Zm-3.49-6c1.9-8,3.84-15.91,5.78-23.79l2.92-11.78c1-3.91,2-7.76,3.09-11.63,2.09-7.74,4-15.6,6.08-23.4l6.14-23.42,2.53,4.36-17.19-4.55-17.2-4.49,4.55-2.62c-2.76,7.84-5.27,15.75-7.64,23.7q-1.78,6-3.45,12c-1.1,4-2,8.06-2.85,12.11s-1.88,8.08-2.93,12.09l-3.09,12L521.29,284l-2.3-4c5.37,1.38,10.64,2.79,15.89,4.35S545.39,287.6,550.75,289.32Z" transform="translate(-1.9)"/><path class="cls-2" d="M710.15,251.41a8,8,0,0,1,1-1.3,5.25,5.25,0,0,1,.65-.6l.35-.26.28-.19,1.27-.88,2.55-1.78q2.54-1.77,5.06-3.57c3.36-2.41,6.7-4.84,10-7.33q9.91-7.44,19.4-15.36c6.3-5.32,12.54-10.7,18.54-16.34s11.91-11.36,17.64-17.27l3.22-3.34,3.18,3.46c5.36,5.81,10.71,11.61,16,17.47s10.55,11.75,15.83,17.63l31.55,35.35,2.11,2.36-1.91,2.44a243.54,243.54,0,0,1-17.7,20.28,226,226,0,0,1-19.91,18.11A229.4,229.4,0,0,1,797.4,316a227.25,227.25,0,0,1-23.59,13l-2.7,1.29L769.22,328l-7.72-9.52-7.65-9.59q-7.62-9.62-15.17-19.26L731.24,280c-2.43-3.22-4.87-6.43-7.24-9.62C719.23,264,714.58,257.61,710.15,251.41Zm4.25.72c5.56,6.11,10.9,12.07,16.11,18l7.73,8.83,7.54,8.8q7.44,8.82,14.78,17.64l7.33,8.86,7.25,8.93-4.59-1a225.61,225.61,0,0,0,22.85-12.48,220.52,220.52,0,0,0,21.26-15,217.69,217.69,0,0,0,19.27-17.54q4.55-4.67,8.82-9.59c2.83-3.29,5.56-6.68,8.19-10.13l.21,4.8-32.33-34.65C813.45,221.7,808,216,802.71,210.12s-10.65-11.67-15.94-17.52l6.4.11q-8.91,8.92-18.35,17.27-4.74,4.14-9.6,8.15c-3.23,2.68-6.53,5.28-9.86,7.83q-10,7.66-20.48,14.6c-3.51,2.3-7,4.56-10.62,6.73q-2.68,1.64-5.39,3.22l-2.73,1.56-1.36.77c-.09,0-.06,0,0,0s0,0,0-.05a.42.42,0,0,0,0-.19A.89.89,0,0,0,714.4,252.13Z" transform="translate(-1.9)"/><path class="cls-2" d="M734.64,262.79c4.52-4.35,9.22-8.39,13.94-12.39s9.5-7.89,14.3-11.76,9.65-7.68,14.56-11.45,9.87-7.48,15.09-10.95A139.06,139.06,0,0,1,779.89,230c-4.48,4.33-9.17,8.43-14,12.33s-9.86,7.59-15,11A139.64,139.64,0,0,1,734.64,262.79Z" transform="translate(-1.9)"/><path class="cls-2" d="M754.52,280.12c4.51-4.35,9.21-8.39,13.93-12.39s9.5-7.89,14.31-11.76,9.65-7.68,14.55-11.45,9.87-7.48,15.1-10.94a139,139,0,0,1-12.65,13.78q-6.72,6.49-14,12.33t-15,11A141.33,141.33,0,0,1,754.52,280.12Z" transform="translate(-1.9)"/><path class="cls-2" d="M769.29,299c4.52-4.36,9.22-8.39,13.94-12.39s9.5-7.9,14.3-11.76,9.65-7.69,14.56-11.46S822,256,827.18,252.48a141.33,141.33,0,0,1-12.64,13.79c-4.48,4.32-9.17,8.43-14,12.33s-9.86,7.58-15,11A141.17,141.17,0,0,1,769.29,299Z" transform="translate(-1.9)"/><path class="cls-2" d="M531.57,804.25A7.15,7.15,0,0,1,533,805a5.2,5.2,0,0,1,.69.55l.31.3.23.25,1.06,1.13,2.15,2.24c1.42,1.5,2.86,3,4.3,4.46,2.9,3,5.8,5.89,8.77,8.76q8.87,8.65,18.13,16.83c6.22,5.42,12.49,10.76,19,15.83s13,10.05,19.75,14.8l3.79,2.68-2.92,3.67c-4.93,6.18-9.85,12.35-14.83,18.48s-10,12.22-15,18.33l-30.13,36.57-2,2.45-2.71-1.51a245.5,245.5,0,0,1-22.74-14.41A228.65,228.65,0,0,1,464.57,879l-1.69-2.47,2-2.23,8.22-9.08,8.32-9q8.34-9,16.73-17.93l8.4-8.82c2.81-2.89,5.61-5.79,8.41-8.62C520.56,815.13,526.12,809.57,531.57,804.25Zm-.07,4.31c-5.19,6.43-10.26,12.61-15.31,18.66l-7.55,9-7.55,8.8q-7.57,8.68-15.18,17.29l-7.64,8.6-7.72,8.52.33-4.7a226.63,226.63,0,0,0,15.81,20.69,222.38,222.38,0,0,0,18.12,18.72,219.72,219.72,0,0,0,20.27,16.37q5.29,3.79,10.82,7.26t11.27,6.55l-4.72.93L571.77,908c4.9-6.19,9.76-12.41,14.71-18.57s9.91-12.3,14.89-18.42l.86,6.35q-10.15-7.46-19.86-15.51-4.82-4.05-9.52-8.25c-3.14-2.78-6.21-5.65-9.24-8.55-6.06-5.8-11.91-11.83-17.55-18-2.81-3.11-5.58-6.26-8.27-9.46q-2-2.42-4-4.84l-2-2.46-1-1.23c-.06-.08,0,0,0,0h0a.45.45,0,0,0,.18,0A.82.82,0,0,0,531.5,808.56Z" transform="translate(-1.9)"/><path class="cls-2" d="M524.05,830.19c5,3.8,9.7,7.83,14.37,11.88s9.25,8.19,13.81,12.35,9.06,8.36,13.53,12.64,8.89,8.61,13.12,13.25a138.63,138.63,0,0,1-15.56-10.4q-7.43-5.65-14.31-12c-4.59-4.2-9-8.6-13.2-13.19A141.19,141.19,0,0,1,524.05,830.19Z" transform="translate(-1.9)"/><path class="cls-2" d="M510,852.47c5,3.8,9.7,7.83,14.37,11.89s9.25,8.18,13.81,12.34,9.06,8.37,13.53,12.64,8.9,8.62,13.12,13.26a140.34,140.34,0,0,1-15.55-10.4c-5-3.77-9.73-7.78-14.32-12s-9-8.6-13.2-13.2A140.13,140.13,0,0,1,510,852.47Z" transform="translate(-1.9)"/><path class="cls-2" d="M493.52,870c5,3.79,9.7,7.83,14.37,11.88s9.25,8.18,13.8,12.34,9.07,8.37,13.54,12.64,8.89,8.62,13.12,13.26a141.41,141.41,0,0,1-15.56-10.4q-7.42-5.65-14.32-12t-13.2-13.2A142.31,142.31,0,0,1,493.52,870Z" transform="translate(-1.9)"/><circle class="cls-4" cx="961.24" cy="744.57" r="40.31"/><rect class="cls-3" x="419.05" y="455.13" width="571.83" height="153.66" rx="7.56"/><path class="cls-2" d="M480.47,715.45c-1.36-18.69-1.59-37.39-1.58-56.08l0-28,0-14v-2.55l0-.44a7.33,7.33,0,0,1,.38-1.73,7.56,7.56,0,0,1,4.91-4.73,8,8,0,0,1,1.74-.31h6.36l112.17.16,112.18.5h5.92l.4,0a7,7,0,0,1,1.57.28,6.76,6.76,0,0,1,4.77,5.86l0,.4v2.52l-.11,14-.2,28-.47,56.08a2.27,2.27,0,0,1-4.54,0l-.47-56.08-.2-28-.1-14V615a.08.08,0,0,1,0,0,.42.42,0,0,0,0-.15.65.65,0,0,0-.42-.39.39.39,0,0,0-.15,0h-2.45l-3.5,0-112.18.49-112.17.17h-5.89s0,0,.05,0,0,0,0,0h0s0,0,0,.08v2.19l0,14,0,28c0,18.69-.23,37.39-1.59,56.08a2.28,2.28,0,0,1-4.55,0Z" transform="translate(-1.9)"/><path class="cls-2" d="M384.19,588q9.48,0,19-.11l19-.31q19-.47,37.94-1.09c25.29-.82,50.58-1.28,75.87-1.14l151.76.22,75.88.11,37.94.05,19,0,9.06,0a.45.45,0,0,0-.29.17.38.38,0,0,0-.06.16.25.25,0,0,0,0,.08v-1.13l.28-75.88.14-37.94.07-19,0-9.48V442s0,0,0-.06-.06-.07-.13-.08l-303.51-1.12-75.88-.15-37.94-.05-19,0h-9.2a1.49,1.49,0,0,0-1.12.6,1.69,1.69,0,0,0-.28.59,3,3,0,0,0,0,.33v1.14l-.1,75.88L382.46,557l0,19v10.08a.58.58,0,0,0,0,.18v.1c0,.13,0,.24.06.37a1.73,1.73,0,0,0,.37.64A1.79,1.79,0,0,0,384.19,588Zm0,7.6a9.43,9.43,0,0,1-9-6.65,10.93,10.93,0,0,1-.37-2l0-.49V576l0-19-.05-37.94-.11-75.88V442a10,10,0,0,1,.24-2,9.61,9.61,0,0,1,8.67-7.45c.8-.05,1.05,0,1.47,0h8.3l19,0,37.94-.05,75.88-.14,303.51-1.12a11,11,0,0,1,8.25,3.72,10.82,10.82,0,0,1,2.27,4.05,11.3,11.3,0,0,1,.44,2.29l0,.58v1.05l0,9.48.07,19,.14,37.94.28,75.88v1.25a11.76,11.76,0,0,1-.28,2.43,11.55,11.55,0,0,1-10.42,9c-1,0-1.18,0-1.61,0h-3.56l-4.74,0-19,0-37.94.06-75.88.1-151.76.22c-25.29.14-50.58-.32-75.87-1.13-12.65-.4-25.3-.79-37.94-1.09l-19-.32C396.83,595.62,390.51,595.6,384.19,595.59Z" transform="translate(-1.9)"/><path class="cls-2" d="M367.45,716.28q13.08,0,26.15-.11l26.14-.32q26.14-.45,52.3-1.09c34.86-.83,69.72-1.28,104.58-1.16l209.18.14,52.29.08h11.85c.18,0,0,0,0,0s-.06,0-.09,0a.68.68,0,0,0-.53.55c0,.67,0-1.11,0-2.06v-3.26l0-26.15.21-104.59.28-104.59.14-52.29.07-26.15,0-13.07v-4.09a1.18,1.18,0,0,0,0-.23h0a0,0,0,0,1,0,0,.14.14,0,0,0-.12-.1l-418.35-1.13-52.29-.11h-12c-.08,0-.14,0-.21,0a1.43,1.43,0,0,0-1.1,1.1c0-.09,0,1.46,0,2.46v3.27l0,26.14-.17,104.59-.06,104.59,0,52.29,0,26.15V714.3a1.51,1.51,0,0,0,0,.28v.13a2.72,2.72,0,0,0,.13.49A1.77,1.77,0,0,0,367.45,716.28Zm0,7.65a9.42,9.42,0,0,1-8.67-5.75,10.19,10.19,0,0,1-.69-2.67l0-.68c0-.26,0-.41,0-.53V671l0-52.29-.06-104.59-.17-104.59,0-26.14v-4.91a12.08,12.08,0,0,1,.18-2.43,9.7,9.7,0,0,1,9-7.84l.65,0h11.85l52.29-.11L850,366.92a11,11,0,0,1,10.16,6.72,12.13,12.13,0,0,1,.81,3.13c0,.27,0,.53,0,.8s0,.47,0,.58v4.09l0,13.07.07,26.15.14,52.29.28,104.59.21,104.59,0,26.15V714a15.4,15.4,0,0,1-.22,2.83,11.86,11.86,0,0,1-9.22,9.31,12.45,12.45,0,0,1-1.72.22l-.76,0H838.09l-52.29.08-209.18.13c-34.86.13-69.72-.33-104.58-1.15q-26.15-.6-52.3-1.1L393.6,724Q380.52,723.94,367.45,723.93Z" transform="translate(-1.9)"/><path class="cls-2" d="M390.7,477.64c18.09-1.34,36.18-1.57,54.27-1.57l54.28.09,108.56.16,108.56.49,54.27.37,54.28.46a2.25,2.25,0,0,1,0,4.5l-54.28.46-54.27.38-108.56.48-108.56.17-54.28.08c-18.09,0-36.18-.22-54.27-1.57a2.25,2.25,0,0,1-2.09-2.41A2.28,2.28,0,0,1,390.7,477.64Z" transform="translate(-1.9)"/><path class="cls-2" d="M390.7,514.44c18.09-1.34,36.18-1.57,54.27-1.57l54.28.08,108.56.17,108.56.49,54.27.37,54.28.46a2.25,2.25,0,0,1,0,4.5l-54.28.46-54.27.37-108.56.49-108.56.17-54.28.08c-18.09,0-36.18-.22-54.27-1.57a2.26,2.26,0,0,1,0-4.5Z" transform="translate(-1.9)"/><path class="cls-2" d="M390.7,547.56C408.79,546.22,426.88,546,445,546l54.28.08,108.56.17,108.56.49,54.27.37,54.28.46a2.25,2.25,0,0,1,0,4.5l-54.28.46-54.27.37-108.56.49-108.56.17-54.28.08c-18.09,0-36.18-.22-54.27-1.57a2.26,2.26,0,0,1,0-4.5Z" transform="translate(-1.9)"/><path class="cls-2" d="M426.06,450.45a63.13,63.13,0,0,1,1.58,15.9l-.05,15.9c0,10.6-.13,21.2-.2,31.8s-.27,21.2-.49,31.8l-.37,15.9c-.13,5.3-.27,10.6-.47,15.9a2.25,2.25,0,0,1-4.49,0c-.2-5.3-.34-10.6-.47-15.9l-.38-15.9c-.21-10.6-.34-21.2-.48-31.8s-.2-21.2-.21-31.8l0-15.9a63.13,63.13,0,0,1,1.58-15.9,2.32,2.32,0,0,1,4.49,0Z" transform="translate(-1.9)"/><path class="cls-2" d="M461,450.45a63.13,63.13,0,0,1,1.58,15.9l-.05,15.9c0,10.6-.13,21.2-.2,31.8s-.27,21.2-.49,31.8l-.38,15.9c-.12,5.3-.26,10.6-.46,15.9a2.25,2.25,0,0,1-2.33,2.17,2.28,2.28,0,0,1-2.17-2.17q-.28-7.95-.46-15.9l-.38-15.9c-.21-10.6-.35-21.2-.48-31.8s-.21-21.2-.21-31.8l0-15.9a63.59,63.59,0,0,1,1.57-15.9,2.32,2.32,0,0,1,4.5,0Z" transform="translate(-1.9)"/><path class="cls-2" d="M497.82,450.45a62.67,62.67,0,0,1,1.57,15.9l0,15.9c0,10.6-.13,21.2-.21,31.8s-.26,21.2-.48,31.8l-.38,15.9c-.12,5.3-.26,10.6-.46,15.9a2.25,2.25,0,0,1-4.5,0q-.29-7.95-.46-15.9l-.38-15.9c-.21-10.6-.35-21.2-.48-31.8s-.21-21.2-.21-31.8l0-15.9a63.12,63.12,0,0,1,1.57-15.9,2.32,2.32,0,0,1,4.5,0Z" transform="translate(-1.9)"/><path class="cls-2" d="M534.62,450.45a37.52,37.52,0,0,1,1.57,12.22l0,12.22c0,8.15-.13,16.3-.21,24.44s-.26,16.3-.48,24.44c-.09,4.08-.25,8.15-.38,12.22s-.27,8.15-.46,12.22a2.25,2.25,0,0,1-4.5,0q-.29-6.11-.46-12.22c-.12-4.07-.29-8.14-.38-12.22-.21-8.14-.35-16.29-.48-24.44s-.21-16.29-.21-24.44l0-12.22a37.79,37.79,0,0,1,1.57-12.22,2.37,2.37,0,0,1,4.5,0Z" transform="translate(-1.9)"/><path class="cls-2" d="M575.1,450.45a37.79,37.79,0,0,1,1.57,12.22l0,12.22c0,8.15-.13,16.3-.21,24.44s-.27,16.3-.48,24.44c-.09,4.08-.25,8.15-.38,12.22s-.27,8.15-.46,12.22a2.25,2.25,0,0,1-4.5,0q-.29-6.11-.46-12.22c-.13-4.07-.29-8.14-.38-12.22-.21-8.14-.35-16.29-.48-24.44s-.21-16.29-.21-24.44l0-12.22a37.79,37.79,0,0,1,1.57-12.22,2.37,2.37,0,0,1,4.5,0Z" transform="translate(-1.9)"/><path class="cls-2" d="M611.9,450.45a63.12,63.12,0,0,1,1.57,15.9l0,15.9c0,10.6-.13,21.2-.21,31.8s-.27,21.2-.48,31.8l-.38,15.9q-.18,7.95-.46,15.9a2.25,2.25,0,0,1-4.5,0c-.2-5.3-.34-10.6-.46-15.9l-.38-15.9c-.22-10.6-.35-21.2-.48-31.8s-.21-21.2-.21-31.8l0-15.9a62.67,62.67,0,0,1,1.57-15.9,2.32,2.32,0,0,1,4.5,0Z" transform="translate(-1.9)"/><path class="cls-2" d="M652.38,450.45a63.12,63.12,0,0,1,1.57,15.9l0,15.9c0,10.6-.14,21.2-.21,31.8s-.27,21.2-.48,31.8l-.38,15.9q-.18,7.95-.46,15.9a2.25,2.25,0,0,1-4.5,0c-.2-5.3-.34-10.6-.46-15.9l-.38-15.9c-.22-10.6-.35-21.2-.48-31.8s-.21-21.2-.21-31.8l0-15.9a62.67,62.67,0,0,1,1.57-15.9,2.32,2.32,0,0,1,4.5,0Z" transform="translate(-1.9)"/><path class="cls-2" d="M689.18,450.45a63.59,63.59,0,0,1,1.57,15.9l0,15.9c0,10.6-.14,21.2-.21,31.8s-.27,21.2-.48,31.8l-.38,15.9c-.13,5.3-.27,10.6-.46,15.9a2.25,2.25,0,0,1-4.5,0c-.2-5.3-.34-10.6-.46-15.9l-.38-15.9c-.22-10.6-.35-21.2-.49-31.8s-.2-21.2-.2-31.8l0-15.9a63.13,63.13,0,0,1,1.58-15.9,2.32,2.32,0,0,1,4.5,0Z" transform="translate(-1.9)"/><path class="cls-2" d="M726,450.45a63.13,63.13,0,0,1,1.58,15.9l0,15.9c0,10.6-.14,21.2-.21,31.8s-.27,21.2-.48,31.8l-.38,15.9c-.13,5.3-.27,10.6-.47,15.9a2.25,2.25,0,0,1-4.49,0c-.2-5.3-.34-10.6-.47-15.9l-.38-15.9c-.21-10.6-.34-21.2-.48-31.8s-.2-21.2-.2-31.8l-.05-15.9a63.13,63.13,0,0,1,1.58-15.9,2.32,2.32,0,0,1,4.49,0Z" transform="translate(-1.9)"/><path class="cls-2" d="M762.77,450.45a63.13,63.13,0,0,1,1.58,15.9l-.05,15.9c0,10.6-.13,21.2-.2,31.8s-.27,21.2-.48,31.8l-.38,15.9c-.13,5.3-.27,10.6-.47,15.9a2.25,2.25,0,0,1-4.49,0c-.2-5.3-.34-10.6-.47-15.9l-.38-15.9c-.21-10.6-.34-21.2-.48-31.8s-.2-21.2-.21-31.8l0-15.9a63.13,63.13,0,0,1,1.58-15.9,2.32,2.32,0,0,1,4.49,0Z" transform="translate(-1.9)"/><path class="cls-2" d="M799.57,450.45a63.13,63.13,0,0,1,1.58,15.9l0,15.9c0,10.6-.13,21.2-.2,31.8s-.27,21.2-.49,31.8l-.38,15.9c-.12,5.3-.26,10.6-.46,15.9a2.25,2.25,0,0,1-4.49,0c-.2-5.3-.34-10.6-.47-15.9l-.38-15.9c-.21-10.6-.35-21.2-.48-31.8s-.2-21.2-.21-31.8l0-15.9a63.13,63.13,0,0,1,1.58-15.9,2.32,2.32,0,0,1,4.49,0Z" transform="translate(-1.9)"/><rect class="cls-2" x="361.83" y="397.45" width="487.23" height="18.6"/><path class="cls-2" d="M993.45,730.76a32.68,32.68,0,0,1-.41,25,33.34,33.34,0,0,1-7.39,10.69,33.86,33.86,0,0,1-11.09,7.09,33.48,33.48,0,0,1-26.1-.88A27.92,27.92,0,0,1,938,764.44a32.75,32.75,0,0,1-5.87-11.72A37.82,37.82,0,0,1,930.69,740c.1-1.06.26-2.11.39-3.16s.47-2.07.7-3.1.63-2,1-3l1.25-2.91a33,33,0,0,1,7.55-10.05A32,32,0,0,1,986.94,720,36.12,36.12,0,0,1,993.45,730.76Zm-4.35,1.56a2.69,2.69,0,0,0-.88-1.1,15,15,0,0,1-1.2-.91,3.2,3.2,0,0,1-.76-1.06l-.59-1.15c-.45-.73-.92-1.44-1.36-2.19s-1-1.39-1.51-2.12-1.13-1.32-1.69-2l-1.89-1.85-2.08-1.68-2.29-1.41-2.43-1.18c-.85-.3-1.7-.59-2.57-.87s-1.76-.42-2.64-.59-1.8-.22-2.71-.29a27.14,27.14,0,0,0-10.67,1.66,27.44,27.44,0,0,0-15.56,14.27l-1,2.51-.75,2.59c-.15.88-.32,1.76-.45,2.65s-.15,1.78-.19,2.67a23.55,23.55,0,0,0,2,10.36,26.56,26.56,0,0,0,6.12,8.28,36.6,36.6,0,0,0,8.22,5.69,26.92,26.92,0,0,0,9.61,2.59c.84,0,1.68.08,2.52.07s1.68-.09,2.52-.17l2.5-.38,2.48-.62a26.36,26.36,0,0,0,17.2-33.77Z" transform="translate(-1.9)"/><path class="cls-2" d="M1050.93,878.89a32.67,32.67,0,0,1,2.28,12.45,33.08,33.08,0,0,1-2.7,12.54,33.24,33.24,0,0,1-44.58,16.89,27.89,27.89,0,0,1-10.51-8.2,33,33,0,0,1-5.87-11.72,37.59,37.59,0,0,1-1.38-12.71c.09-1.06.25-2.11.39-3.16s.46-2.07.69-3.11.63-2,1-3l1.25-2.91A33.1,33.1,0,0,1,999,865.89a32,32,0,0,1,45.41,2.27A36.28,36.28,0,0,1,1050.93,878.89Zm-4.35,1.56a2.65,2.65,0,0,0-.89-1.1c-.41-.32-.86-.6-1.19-.92a2.92,2.92,0,0,1-.77-1.06l-.59-1.14c-.45-.73-.92-1.45-1.36-2.2s-1-1.39-1.51-2.11-1.13-1.32-1.69-2l-1.89-1.86-2.08-1.68-2.28-1.41-2.44-1.18c-.84-.3-1.7-.59-2.56-.86s-1.76-.42-2.65-.6-1.8-.22-2.71-.28a27.13,27.13,0,0,0-10.67,1.65A27.45,27.45,0,0,0,995.75,878l-1,2.51-.75,2.59c-.15.89-.32,1.77-.45,2.65s-.15,1.78-.19,2.68a23.55,23.55,0,0,0,2,10.36,27,27,0,0,0,6.12,8.28,36.56,36.56,0,0,0,8.22,5.68,26.92,26.92,0,0,0,9.62,2.6c.83,0,1.67.07,2.51.07s1.68-.1,2.52-.17l2.5-.38,2.48-.63a26.37,26.37,0,0,0,17.21-33.76Z" transform="translate(-1.9)"/><path class="cls-2" d="M1193.86,746.4a32.59,32.59,0,0,1-.42,25,33.18,33.18,0,0,1-7.39,10.69,33.27,33.27,0,0,1-37.19,6.21,28,28,0,0,1-10.51-8.21,32.92,32.92,0,0,1-5.87-11.72,37.5,37.5,0,0,1-1.38-12.7c.09-1.06.25-2.12.39-3.17s.46-2.07.69-3.1.63-2,1-3l1.25-2.91a33.14,33.14,0,0,1,7.55-10.05,32,32,0,0,1,45.41,2.27A36.07,36.07,0,0,1,1193.86,746.4Zm-4.35,1.55a2.78,2.78,0,0,0-.89-1.1,13.23,13.23,0,0,1-1.19-.91,2.92,2.92,0,0,1-.77-1.06l-.59-1.15c-.45-.73-.92-1.44-1.36-2.19s-1-1.39-1.51-2.11-1.13-1.33-1.69-2l-1.89-1.86-2.08-1.68-2.28-1.41-2.44-1.18c-.84-.3-1.7-.59-2.56-.86s-1.76-.43-2.65-.6-1.8-.22-2.71-.28a27.13,27.13,0,0,0-10.67,1.65,27.45,27.45,0,0,0-15.55,14.27l-1,2.51-.75,2.59c-.15.88-.32,1.76-.45,2.65s-.15,1.78-.18,2.67a23.38,23.38,0,0,0,2,10.36,26.88,26.88,0,0,0,6.12,8.29,36.56,36.56,0,0,0,8.22,5.68,27,27,0,0,0,9.62,2.59c.83,0,1.67.08,2.51.08s1.68-.1,2.52-.17l2.5-.38,2.48-.63A26.38,26.38,0,0,0,1189.51,748Z" transform="translate(-1.9)"/><path class="cls-5" d="M1076.08,734.59a.22.22,0,0,0,.15.41A.22.22,0,0,0,1076.08,734.59Z" transform="translate(-1.9)"/><path class="cls-2" d="M1010.23,841.48a2.87,2.87,0,0,0-2.76-1.92,2.78,2.78,0,0,0-2,.92,2.44,2.44,0,0,0-.67,1.36,54,54,0,0,1-4-6.46c-2.92-5.41-5.51-11-8-16.62Q988.92,810,985.46,801c-1.16-3-2.27-6-3.38-9-.55-1.5-1.09-3-1.68-4.5-.69-1.75-1.57-3.33-2.36-5a2,2,0,0,0-3.72,1.2c.34,1.84.57,3.61,1.09,5.42.44,1.54,1,3,1.48,4.57,1.11,3.25,2.3,6.46,3.54,9.67q3.66,9.43,7.83,18.66c2.67,5.89,5.38,11.81,8.51,17.46a50.7,50.7,0,0,0,4.31,6.77,8.41,8.41,0,0,0-2.44-.51,1.51,1.51,0,0,0-1.36,2c1.71,4.53,8.2,5.91,12.47,6.28,1.44.12,2.69-1.52,2.6-2.85A32.34,32.34,0,0,0,1010.23,841.48Z" transform="translate(-1.9)"/><path class="cls-2" d="M1139.51,794.15a23.86,23.86,0,0,0-5.44,2.17c-1.48.83-3.36,1.94-4.18,3.48s.86,3.28,2.35,2.32c.8-.52,1.61-1,2.43-1.46A339.79,339.79,0,0,1,1082.25,866c-2.92,2.84-5.86,5.65-8.86,8.4l-4.3,3.92a37.36,37.36,0,0,0-4.53,4.45,1.54,1.54,0,0,0,1.87,2.39c3.18-1.61,6-4.38,8.73-6.7s5.58-4.87,8.29-7.4q7.9-7.38,15.3-15.3a317.92,317.92,0,0,0,27.67-34q5.77-8.19,11-16.71c.69,2.49,4.33,1.53,4.25-.6a68.91,68.91,0,0,0,.51-8.24A2.16,2.16,0,0,0,1139.51,794.15Z" transform="translate(-1.9)"/><path class="cls-2" d="M1121,742.44a23.72,23.72,0,0,1-5.58,1.78c-1.67.29-3.83.63-5.44,0a1.72,1.72,0,0,1,.35-3.29c.94-.11,1.88-.24,2.8-.41a339.62,339.62,0,0,0-82-17.29c-4.05-.34-8.11-.65-12.17-.87l-5.81-.31a37.06,37.06,0,0,1-6.33-.56,1.54,1.54,0,0,1-.07-3c3.48-.77,7.45-.44,11-.35,3.7.09,7.4.22,11.1.46,7.2.45,14.38,1.17,21.53,2.11a317.59,317.59,0,0,1,43,8.77q9.66,2.65,19.13,5.91c-1-2.36,2.38-3.93,3.67-2.23a69.87,69.87,0,0,1,5.62,6A2.16,2.16,0,0,1,1121,742.44Z" transform="translate(-1.9)"/><path class="cls-2" d="M1002.81,746.86a23.63,23.63,0,0,0,4.77,3.4c1.5.79,3.45,1.77,5.19,1.62a1.72,1.72,0,0,0,.67-3.23c-.87-.39-1.72-.81-2.54-1.25a339.76,339.76,0,0,1,83.36,8.61c4,.91,7.92,1.86,11.86,2.89l5.62,1.48a37,37,0,0,0,6.2,1.4,1.54,1.54,0,0,0,1-2.87c-3.08-1.8-7-2.69-10.36-3.7s-7.12-2.05-10.71-3q-10.48-2.64-21.15-4.56a317.73,317.73,0,0,0-43.6-4.8c-6.67-.28-13.35-.34-20-.22,1.72-1.93-1.06-4.46-2.81-3.24a67.66,67.66,0,0,0-7.2,4A2.15,2.15,0,0,0,1002.81,746.86Z" transform="translate(-1.9)"/><rect class="cls-4" x="29.99" y="254.78" width="319.21" height="135.58" rx="5.37" transform="translate(451.59 57.32) rotate(75.3)"/><path class="cls-2" d="M306.08,483.92q-7,1.79-14,3.64l-14,3.83c-9.29,2.64-18.56,5.35-27.83,8.07-18.53,5.46-37.14,10.61-55.89,15.21l-56.17,14.07-7,1.76-.88.22-.44.11-.53.12-1.38.27-1.41.14a16.68,16.68,0,0,1-5.58-.64,16.38,16.38,0,0,1-8.94-6.48,16.18,16.18,0,0,1-2.34-5.1l-.91-3.57-7-28.09L73.65,375.12,59.73,318.9l-7-28.1-1.73-7-.87-3.51-.22-.88c-.08-.31-.14-.52-.24-1a16.57,16.57,0,0,1-.36-2.65,15.64,15.64,0,0,1,11.83-15.87L173.61,232l56.21-13.92,7-1.74.88-.21.44-.11.5-.12,1.24-.24,1.26-.12a14.88,14.88,0,0,1,5,.59,14.6,14.6,0,0,1,8,5.82,14.38,14.38,0,0,1,2.08,4.56l.89,3.56,7,28.1,28.12,112.36,14.07,56.18,7,28.08,1.76,7,.88,3.52.22.87c.07.31.14.54.23,1a16.11,16.11,0,0,1,.33,2.4,14.14,14.14,0,0,1-10.67,14.35ZM304.34,477a7,7,0,0,0,5.27-7.13,8,8,0,0,0-.18-1.18c0-.16-.11-.5-.18-.79l-.22-.87-.9-3.51-1.78-7-7.14-28.06-14.27-56.12L256.37,260.12l-7.21-28.05-.9-3.45a6.42,6.42,0,0,0-.93-2,6.31,6.31,0,0,0-3.5-2.49,6.52,6.52,0,0,0-2.15-.23l-.54.05c-.18.05-.36.08-.54.12a3.22,3.22,0,0,0-.37.08l-.44.12-.88.22-7,1.81-56.08,14.42L63.65,269.59a5.52,5.52,0,0,0-4.11,5.62,7.46,7.46,0,0,0,.14.93c0,.09.11.46.18.74l.23.87.9,3.51,1.8,7,7.21,28L84.43,372.4,113,484.63l7.13,28.06.88,3.44a4.7,4.7,0,0,0,.68,1.45,4.6,4.6,0,0,0,2.55,1.83,4.92,4.92,0,0,0,1.57.17l.4,0,.39-.08.35-.08.44-.11.88-.22,7-1.79L191.44,503c18.68-4.85,37.5-9.16,56.41-13.14q14.18-3,28.32-6.11l14.11-3.25C295,479.37,299.66,478.21,304.34,477Z" transform="translate(-1.9)"/><rect class="cls-6" x="114.76" y="254.17" width="6.04" height="268.63" transform="translate(-93.4 40.64) rotate(-14.17)"/><path class="cls-7" d="M1148.9,168.9q-20.26-9.26-40.62-18.72-57.85-26.9-113.91-54.24L912.9,309.87a531.43,531.43,0,0,0,101.91,49.6c16.18,5.83,31.75,10.55,46.51,14.38Z" transform="translate(-1.9)"/><path class="cls-2" d="M1153.23,167.23c-6.66-3.46-13.44-6.94-20.31-10.36s-13.83-6.73-20.77-9.93l-38.75-18.26L996.14,92.32l-.07,0a4,4,0,0,0-5.34,1.92l-.13.3-20.11,53.58c-6.68,17.86-12.69,36-19.61,53.77q-5.16,13.33-10.52,26.61L929.5,255l-5.43,13.25-2.72,6.62-2.66,6.64c-1.79,4.42-3.53,8.86-5.26,13.3l-2.61,6.66-2.56,6.68a5,5,0,0,0,2,6h0Q927.6,325,945.71,334.55c12.06,6.41,24.42,12.21,37,17.61s25.3,10.25,38.23,14.64,26,8.24,39.23,11.63h0a4.73,4.73,0,0,0,5.53-2.73l22.06-52.1c7.35-17.36,15-34.73,22.29-52.15s14.52-34.82,21.75-52.21l10.79-26.05Zm-8.67,3.35-11.23,25.26L1122.23,221c-7.38,16.77-14.8,33.52-22,50.26s-14.25,33.53-21.49,50.32L1057,372l5.55-2.73q-19.44-5.1-38.44-11.72t-37.42-14.61q-9.21-4-18.27-8.35c-6-2.94-12-5.88-18-9q-17.8-9.29-34.89-19.92l2,6,2.53-6.69,2.49-6.71q2.49-6.71,4.92-13.44l2.43-6.73,2.37-6.75,4.76-13.5,9.51-27q4.82-13.49,9.84-26.87c6.66-17.88,14.23-35.41,21.13-53.2l20.62-53.38-5.53,2.19,77,37.1,19.26,9.27,9.63,4.63,4.82,2.31,2.41,1.15,1.17.55,1.12.52c6,2.76,12,5.4,18,8S1138.29,168.07,1144.56,170.58Z" transform="translate(-1.9)"/><path class="cls-7" d="M1158.08,204q-20.25-9.25-40.61-18.72-57.85-26.91-113.91-54.24L922.08,345A532.9,532.9,0,0,0,1024,394.57c16.18,5.83,31.75,10.54,46.51,14.37Z" transform="translate(-1.9)"/><path class="cls-2" d="M1162.41,202.32c-6.66-3.45-13.44-6.94-20.31-10.35s-13.83-6.74-20.76-9.94l-38.76-18.25-77.26-36.37-.06,0a4,4,0,0,0-5.35,1.92c0,.1-.09.2-.12.3l-20.12,53.58C973,201.05,967,219.18,960.06,237q-5.16,13.35-10.52,26.62l-10.86,26.48-5.43,13.24-2.71,6.62-2.67,6.64q-2.67,6.65-5.26,13.31L920,336.52l-2.56,6.68a5,5,0,0,0,2,6h0q17.34,10.88,35.45,20.47c12.05,6.4,24.42,12.21,37,17.6s25.31,10.26,38.23,14.64,26,8.24,39.23,11.64h0a4.72,4.72,0,0,0,5.52-2.73l22.06-52.09c7.36-17.37,14.95-34.73,22.3-52.15s14.52-34.83,21.74-52.21l10.79-26Zm-8.67,3.36-11.23,25.26-11.1,25.18c-7.38,16.78-14.79,33.52-22.05,50.27s-14.25,33.52-21.49,50.31l-21.72,50.38,5.54-2.72q-19.44-5.1-38.43-11.73T995.83,378q-9.21-4-18.26-8.36c-6-2.93-12-5.87-18-9q-17.8-9.3-34.88-19.92l2,6,2.54-6.7,2.48-6.7q2.5-6.7,4.92-13.44l2.43-6.73,2.38-6.75,4.75-13.5,9.51-27q4.82-13.47,9.85-26.87c6.65-17.88,14.23-35.4,21.12-53.19l20.63-53.39-5.54,2.19,77,37.1,19.26,9.28,9.64,4.63,4.82,2.3,2.41,1.16,1.16.54,1.13.52c6,2.77,12,5.41,18,7.95S1147.47,203.17,1153.74,205.68Z" transform="translate(-1.9)"/><circle class="cls-3" cx="802.53" cy="831.76" r="37.69"/><path class="cls-2" d="M815.66,946.76a51.5,51.5,0,0,1-24.88,2.38l-3.1-.62c-.52-.12-1-.19-1.55-.34l-1.52-.46c-1-.31-2-.6-3-.93l-2.93-1.21c-.49-.2-1-.39-1.46-.61l-1.41-.74L773,942.75,770.3,941l-1.33-.87-1.25-1-2.48-2c-.79-.72-1.54-1.48-2.3-2.21l-1.14-1.12c-.39-.37-.71-.8-1.06-1.2l-2.06-2.45c-.67-.82-1.23-1.74-1.85-2.61a26.18,26.18,0,0,1-1.73-2.69,45.56,45.56,0,0,1-2.88-5.71L751,916.22l-1-2.74L748,908l-4-11q-2-5.46-3.93-11l-2-5.49-1-2.75c-.32-1-.63-2.05-.93-3.07a48.39,48.39,0,0,1-.64-25.58l.41-1.56c.18-.51.37-1,.56-1.52.39-1,.77-2,1.18-3l1.48-2.86.75-1.41.85-1.35c.57-.9,1.14-1.79,1.68-2.69s1.27-1.69,1.86-2.56l.91-1.29c.31-.43.68-.8,1-1.22l2-2.42A50,50,0,0,1,794,811.68l3.07.66c.51.12,1,.2,1.52.36l1.5.47c1,.32,2,.62,3,1l2.88,1.23c.48.21,1,.4,1.43.62l1.38.75,2.75,1.5,2.59,1.75,1.3.88,1.21,1,2.41,2c.76.72,1.48,1.47,2.22,2.21l1.1,1.11c.37.37.68.8,1,1.19l2,2.42c.65.82,1.18,1.73,1.78,2.58a30.33,30.33,0,0,1,1.66,2.66,47,47,0,0,1,2.73,5.62l1.16,2.89,1,2.75,1.92,5.5,3.83,11,3.84,11,1.92,5.5,1,2.75.88,3a46.76,46.76,0,0,1,1.36,6.1,26.9,26.9,0,0,1,.35,3.11c.07,1,.21,2.07.21,3.12l0,3.13c0,.52,0,1-.06,1.56l-.17,1.56c-.13,1-.22,2.07-.37,3.1l-.65,3.06-.34,1.53-.46,1.49-1,3-1.21,2.88-.62,1.44c-.23.46-.48.92-.73,1.38l-1.49,2.75c-.55.88-1.15,1.73-1.73,2.6l-.88,1.3c-.29.43-.65.81-1,1.23l-2,2.43A51.13,51.13,0,0,1,815.66,946.76Zm-2.46-7A44,44,0,0,0,831,928.12a40.88,40.88,0,0,0,3.33-4.22c.5-.75,1-1.49,1.5-2.24l1.29-2.37c.21-.4.44-.79.64-1.19l.52-1.24,1.06-2.48.81-2.57.41-1.29.29-1.31.57-2.64c.12-.89.2-1.78.31-2.67l.16-1.34c.05-.45,0-.9,0-1.35l0-2.69c0-.9-.14-1.79-.19-2.69a21.81,21.81,0,0,0-.3-2.67,39.56,39.56,0,0,0-1.18-5.26l-.77-2.6-1-2.74-1.92-5.5-3.84-11-3.85-11-1.92-5.5-1-2.75-1-2.51a39.28,39.28,0,0,0-2.35-4.84,22.35,22.35,0,0,0-1.43-2.28c-.52-.74-1-1.52-1.53-2.22l-1.71-2.08a12,12,0,0,0-.87-1l-.95-1c-.64-.63-1.26-1.28-1.92-1.89l-2.08-1.71-1.05-.85-1.12-.75-2.23-1.5-2.37-1.28-1.19-.64c-.4-.19-.82-.35-1.23-.53l-2.48-1c-.85-.29-1.71-.53-2.57-.81l-1.28-.41c-.43-.13-.88-.19-1.31-.29l-2.63-.56a42.44,42.44,0,0,0-38.71,13.79,34.94,34.94,0,0,0-3.2,4.27c-.49.74-.94,1.5-1.38,2.28s-.73,1.62-1.09,2.43c-.17.4-.37.8-.52,1.21l-.4,1.27-.79,2.51c-.18.86-.38,1.71-.58,2.55-.09.43-.19.85-.31,1.27l-.21,1.28c-.12.86-.29,1.7-.46,2.55l-.29,2.56-.16,1.28a11.12,11.12,0,0,0,0,1.29l-.06,2.59c0,.86.12,1.72.17,2.57a20,20,0,0,0,.27,2.57,37.71,37.71,0,0,0,1.11,5.06l.72,2.51.95,2.75,1.89,5.51q1.91,5.5,3.75,11l3.71,11,1.86,5.52.92,2.76,1,2.46a40,40,0,0,0,2.22,4.74,18.75,18.75,0,0,0,1.35,2.24c.49.73.91,1.5,1.45,2.19l1.63,2.06c.28.33.53.71.84,1l.91,1c.62.62,1.21,1.27,1.84,1.88l2,1.71,1,.86,1.09.75,2.17,1.52,2.3,1.29,1.15.66c.4.19.81.36,1.21.54l2.43,1.07c.83.3,1.68.56,2.51.85l1.26.42c.42.14.86.2,1.29.31l2.59.59A43.7,43.7,0,0,0,813.2,939.73Z" transform="translate(-1.9)"/></g></g></svg>